<?xml version="1.0" encoding="UTF-8"?>
<svg width="20px" height="18px" viewBox="0 0 20 18" version="1.1" xmlns="http://www.w3.org/2000/svg" xmlns:xlink="http://www.w3.org/1999/xlink">
    <!-- Generator: Sketch 49 (51002) - http://www.bohemiancoding.com/sketch -->
    <title>noun_605237_cc</title>
    <desc>Created with Sketch.</desc>
    <defs></defs>
    <g id="Page-1" stroke="none" stroke-width="1" fill="none" fill-rule="evenodd">
        <g id="Product-page-1(sold_out)" transform="translate(-720.000000, -711.000000)" fill="#000000" fill-rule="nonzero">
            <g id="noun_605237_cc" transform="translate(720.000000, 711.000000)">
                <path d="M18.5365854,0.02575 L1.46341463,0.02575 C0.723170732,0.02725 0.123414634,0.641 0.12195122,1.39875 L0.12195122,13.3975 C0.123414634,14.15525 0.723170732,14.769 1.46341463,14.7705 L12.4804878,14.77775 L16.1034146,17.91275 C16.212439,18.006 16.3639024,18.02625 16.4929268,17.9645 C16.6219512,17.90275 16.7036585,17.771 16.7036585,17.6255 L16.7036585,14.77925 L18.5380488,14.7705 L18.5365854,14.7705 C19.2768293,14.769 19.8765854,14.15525 19.8780488,13.3975 L19.8780488,1.39875 C19.8765854,0.64075 19.2768293,0.027 18.5365854,0.02575 Z M19.1463415,13.3975 C19.1463415,13.569 19.0787805,13.7235 18.9670732,13.83825 C18.854878,13.9525 18.7041463,14.0215 18.5365854,14.02175 L18.5346341,14.02175 L16.3358537,14.03225 C16.135122,14.03325 15.9719512,14.201 15.9719512,14.4065 L15.9719512,16.8255 L12.847561,14.116 C12.7814634,14.0595 12.6995122,14.029 12.6134146,14.029 L1.46365854,14.02175 C1.29585366,14.0215 1.14512195,13.9525 1.03292683,13.83825 C0.921219512,13.7235 0.853658537,13.569 0.853658537,13.3975 L0.853658537,1.39875 C0.853658537,1.22725 0.921219512,1.073 1.03292683,0.95825 C1.14512195,0.844 1.29585366,0.77475 1.46341463,0.77475 L18.5365854,0.77475 C18.7041463,0.77475 18.854878,0.844 18.9670732,0.95825 C19.0787805,1.073 19.1463415,1.2275 19.1463415,1.39875 L19.1463415,13.3975 Z" id="Shape"></path>
                <path d="M13.6585366,8.5265 L13.0487805,8.5265 L13.0487805,6.4545 C13.0487805,5.587 12.7263415,4.7965 12.1995122,4.22125 C11.6739024,3.64625 10.9360976,3.2835 10.1219512,3.28375 C9.30756098,3.2835 8.5697561,3.646 8.04390244,4.22125 C7.51731707,4.7965 7.19512195,5.587 7.19512195,6.4545 L7.19512195,8.5265 L6.58536585,8.5265 C6.38341463,8.5265 6.2195122,8.694 6.2195122,8.901 C6.2195122,9.108 6.38341463,9.2755 6.58536585,9.2755 L8.65853659,9.2755 C8.65902439,10.10225 9.31317073,10.773 10.1219512,10.77325 C10.9297561,10.7725 11.584878,10.10275 11.5853659,9.2755 L13.6585366,9.2755 C13.8604878,9.2755 14.0243902,9.10775 14.0243902,8.901 C14.0243902,8.69425 13.8604878,8.5265 13.6585366,8.5265 Z M7.92682927,6.4545 C7.92682927,5.77775 8.17780488,5.1705 8.57804878,4.7335 C8.97926829,4.2965 9.52170732,4.03325 10.1219512,4.03275 C10.7217073,4.033 11.2643902,4.2965 11.6656098,4.7335 C12.0660976,5.17075 12.3170732,5.778 12.3170732,6.4545 L12.3170732,8.5265 L7.92682927,8.5265 L7.92682927,6.4545 Z M10.6390244,9.80475 C10.505122,9.941 10.3243902,10.02425 10.1219512,10.02425 C9.71756098,10.0235 9.39121951,9.6885 9.3902439,9.2755 L10.8536585,9.2755 C10.8531707,9.483 10.7721951,9.66775 10.6390244,9.80475 Z" id="Shape"></path>
            </g>
        </g>
    </g>
</svg>