<?xml version="1.0" encoding="UTF-8"?>
<svg width="63px" height="64px" viewBox="0 0 63 64" version="1.1" xmlns="http://www.w3.org/2000/svg" xmlns:xlink="http://www.w3.org/1999/xlink">
    <!-- Generator: Sketch 46.2 (44496) - http://www.bohemiancoding.com/sketch -->
    <title>Group 7</title>
    <desc>Created with Sketch.</desc>
    <defs>
        <path d="M21.8247865,22.4989676 C21.6236188,22.5533543 21.4896187,22.7873163 21.5435069,22.9901566 L26.8971937,43.1343075 C26.9460581,43.3003432 27.1292747,43.484346 27.3843842,43.4178917 L47.3646039,38.0202871 C47.5657791,37.9659044 47.6997526,37.7319304 47.6458836,37.5291182 L42.2921964,17.3849552 C42.2382506,17.182131 42.0062017,17.0470565 41.8050063,17.101367 L21.8247865,22.4989676 Z M22.4149344,23.1699524 L29.7153991,21.1977489 L31.259731,27.0085538 C31.3166101,27.2224876 31.5347171,27.3494453 31.7469215,27.292142 L35.5892714,26.254142 C35.8014651,26.1967959 35.9273895,25.9768985 35.870551,25.762953 L34.326219,19.9521521 L41.6266841,17.9799486 L46.774458,37.3493263 L39.473993,39.3215018 L37.9296614,33.5106929 C37.8727806,33.2967607 37.6546741,33.1698051 37.4424709,33.2271087 L33.6001206,34.2651126 C33.3879172,34.3224587 33.2619902,34.5423699 33.3188414,34.7563217 L34.863173,40.5671306 L27.5627083,42.539306 L22.4149344,23.1699524 L22.4149344,23.1699524 Z M30.4838692,20.9901521 L33.5577493,20.1597489 L34.9991254,25.5831652 L31.9252457,26.4135684 L30.4838692,20.9901521 Z M11.1765559,32.0187777 C10.9643506,32.0760881 10.8384141,32.2960253 10.8952763,32.5099868 C10.9521387,32.7239082 11.1702615,32.8508814 11.3824668,32.793571 L19.8356365,30.5099382 C20.047842,30.4526278 20.1737785,30.2326906 20.1169161,30.0187693 C20.0600538,29.8048078 19.8419311,29.6778346 19.6297256,29.7351851 L11.1765559,32.0187777 L11.1765559,32.0187777 Z M15.2799915,35.0622445 C15.067786,35.119595 14.9418495,35.3394921 14.9987119,35.5534536 C15.0555743,35.7673749 15.2736969,35.8943481 15.4859024,35.8370377 L20.8651921,34.3838242 C21.0773976,34.3265138 21.2033341,34.1065766 21.1464717,33.8926552 C21.0896093,33.6786937 20.8714867,33.5517205 20.6592812,33.609071 L15.2799915,35.0622445 L15.2799915,35.0622445 Z M18.6149559,38.3133361 C18.4027508,38.3706465 18.2768143,38.5905436 18.3336763,38.8045051 C18.3905387,39.0184665 18.6086617,39.1454398 18.8208668,39.0880893 L21.8947469,38.2577101 C22.106952,38.2003596 22.2328885,37.9804626 22.1760265,37.7665011 C22.1191641,37.5525396 21.9010411,37.4256065 21.688836,37.4829169 L18.6149559,38.3133361 Z M34.1902666,34.9361135 L37.2641467,34.1056943 L38.7055232,39.5291266 L35.6316431,40.3595057 L34.1902666,34.9361135 L34.1902666,34.9361135 Z" id="path-1"></path>
    </defs>
    <g id="Welcome-Page" stroke="none" stroke-width="1" fill="none" fill-rule="evenodd">
        <g id="Buy-Page" transform="translate(-122.000000, -1226.000000)" stroke="#CFA788">
            <g id="Group-7" transform="translate(123.000000, 1227.000000)">
                <ellipse id="Oval-2-Copy-10" stroke-width="1.19999993" fill="#FAFAFA" cx="30.5244687" cy="31" rx="30.5244687" ry="31"></ellipse>
                <g id="Shape-Copy-3" fill-rule="nonzero" transform="translate(29.269738, 30.260561) rotate(-345.000000) translate(-29.269738, -30.260561) " stroke-width="0.4">
                    <use fill="#CFA788" fill-rule="evenodd" xlink:href="#path-1"></use>
                    <use xlink:href="#path-1"></use>
                    <use xlink:href="#path-1"></use>
                    <use xlink:href="#path-1"></use>
                    <use xlink:href="#path-1"></use>
                    <use xlink:href="#path-1"></use>
                    <use xlink:href="#path-1"></use>
                </g>
            </g>
        </g>
    </g>
</svg>