<?xml version="1.0" encoding="utf-8"?>
<!-- Generator: Adobe Illustrator 21.1.0, SVG Export Plug-In . SVG Version: 6.00 Build 0)  -->
<svg version="1.1" id="Слой_1" xmlns="http://www.w3.org/2000/svg" xmlns:xlink="http://www.w3.org/1999/xlink" x="0px" y="0px"
	 viewBox="0 0 16.4 20.5" style="enable-background:new 0 0 16.4 20.5;" xml:space="preserve">
<style type="text/css">
	.st0{fill:#231F20;}
</style>
<title>cart</title>
<path class="st0" d="M4.1,5.6c0-0.5,0-1,0-1.6c0-2.3,1.9-4.1,4.2-4c2,0,3.6,1.5,4,3.4c0.1,0.5,0.1,0.9,0.1,1.4c0,0.2,0,0.5,0,0.7
	h2.4c0.4,0,0.7,0.3,0.8,0.7c0,0,0,0,0,0.1c0.1,1.7,0.2,3.4,0.4,5.1s0.2,3.5,0.4,5.3c0.1,0.9,0.1,1.9,0.2,2.9c0,0.1,0,0.3,0,0.4
	c-0.1,0.3-0.4,0.6-0.8,0.6H0.8c-0.4,0.1-0.8-0.2-0.8-0.6c0-0.1,0-0.1,0-0.2c0-0.9,0.1-1.7,0.2-2.5l0.2-2.5l0.2-3.1
	C0.7,10.6,0.7,9.8,0.8,9C0.8,8,0.9,7.1,1,6.2c0-0.4,0.3-0.6,0.7-0.6L4.1,5.6L4.1,5.6z M5.6,7v0.2c0,0.9,0,1.7,0,2.6
	c0,0.4-0.3,0.7-0.7,0.7s-0.7-0.3-0.7-0.7c0-0.9,0-1.8,0-2.6V7H2.4L1.5,19h13.4L14,7h-1.7v0.2c0,0.9,0,1.7,0,2.6
	c0,0.4-0.3,0.7-0.7,0.7c-0.4,0-0.7-0.3-0.7-0.7c0-0.9,0-1.8,0-2.6V7H5.6z M5.6,5.5h5.3c0-0.6,0-1.2,0-1.8C10.7,2.3,9.4,1.3,8,1.5
	c-1.1,0.1-2,1-2.3,2C5.6,4.2,5.6,4.8,5.6,5.5"/>
</svg>
