<?xml version="1.0" encoding="utf-8"?>
<!-- Generator: Adobe Illustrator 21.1.0, SVG Export Plug-In . SVG Version: 6.00 Build 0)  -->
<svg version="1.1" id="Слой_1" xmlns="http://www.w3.org/2000/svg" xmlns:xlink="http://www.w3.org/1999/xlink" x="0px" y="0px"
	 viewBox="0 0 19.4 14.7" style="enable-background:new 0 0 19.4 14.7;" xml:space="preserve">
<path d="M18.8,14.7C18.8,14.7,18.8,14.7,18.8,14.7L0.6,14.6C0.3,14.6,0,14.3,0,14V0.6C0,0.3,0.3,0,0.6,0s0.6,0.3,0.6,0.6v12.8
	l17.6,0.1c0.3,0,0.6,0.3,0.6,0.6C19.4,14.4,19.1,14.7,18.8,14.7z"/>
<path d="M3.4,9.4C3.2,9.4,3,9.3,2.9,9.2C2.7,8.9,2.8,8.5,3,8.3l4-3.2C7.2,5,7.5,5,7.7,5.1l4.7,2.7l4.3-3.5C17,4,17.4,4.1,17.6,4.3
	c0.2,0.3,0.2,0.6-0.1,0.8L12.9,9c-0.2,0.2-0.5,0.2-0.7,0.1L7.5,6.3L3.8,9.3C3.7,9.4,3.5,9.4,3.4,9.4z"/>
</svg>
