<?xml version="1.0" encoding="UTF-8"?>
<svg width="75px" height="68px" viewBox="0 0 75 68" version="1.1" xmlns="http://www.w3.org/2000/svg" xmlns:xlink="http://www.w3.org/1999/xlink">
    <!-- Generator: Sketch 49.1 (51147) - http://www.bohemiancoding.com/sketch -->
    <title>discount-voucher</title>
    <desc>Created with Sketch.</desc>
    <defs></defs>
    <g id="Page-1" stroke="none" stroke-width="1" fill="none" fill-rule="evenodd">
        <g id="discount-voucher" fill="#000000" fill-rule="nonzero">
            <path d="M54.8332969,15.1667031 C55.4781719,15.1667031 56,14.644875 56,14 L56,4.66670312 C56,2.09289063 53.9071094,0 51.3332969,0 L4.66670312,0 C2.09289063,0 0,2.09289063 0,4.66670312 L0,14 C0,14.644875 0.521828125,15.1667031 1.16670312,15.1667031 C4.38298438,15.1667031 7,17.7837187 7,21 C7,24.2162813 4.38298438,26.8332969 1.16670313,26.8332969 C0.521828125,26.8332969 0,27.355125 0,28 L0,37.3332969 C0,39.9071094 2.09289063,42 4.66670312,42 L51.3334062,42 C53.9071094,42 56,39.9071094 56,37.3332969 L56,28 C56,27.355125 55.4781719,26.8332969 54.8332969,26.8332969 C51.6170156,26.8332969 49,24.2162813 49,21 C49,17.7837187 51.6170156,15.1667031 54.8332969,15.1667031 Z M46.6667031,21 C46.6667031,25.10725 49.7144375,28.5161406 53.6667031,29.0834687 L53.6667031,37.3332969 C53.6667031,38.6195469 52.6196562,39.6665937 51.3334062,39.6665937 L4.66670312,39.6665937 C3.38045312,39.6665937 2.33340625,38.6195469 2.33340625,37.3332969 L2.33340625,29.0834687 C6.28567187,28.5160312 9.33340625,25.10725 9.33340625,21 C9.33340625,16.89275 6.28567187,13.4838594 2.33340625,12.9165312 L2.33340625,4.66670312 C2.33340625,3.38045312 3.38045312,2.33340625 4.66670312,2.33340625 L51.3334062,2.33340625 C52.6196562,2.33340625 53.6667031,3.38045312 53.6667031,4.66670312 L53.6667031,12.9165312 C49.7143281,13.4838594 46.6667031,16.89275 46.6667031,21 Z" id="Shape"></path>
            <path d="M35.4907703,9.20196544 C34.9617236,8.83398475 34.2553637,8.9828195 33.9059872,9.53473428 L20.1923426,31.1343345 C19.8418947,31.6862493 19.9836381,32.430423 20.5092564,32.7984037 C20.7045687,32.9343012 20.9244155,33 21.1420125,33 C21.5114238,33 21.8740854,32.812466 22.0939323,32.4656349 L35.8075769,10.8660346 C36.1581319,10.3140074 36.0163886,9.56994613 35.4907703,9.20196544 Z" id="Shape"></path>
            <path d="M27,14.5 C27,11.4674873 24.9818476,9 22.4999473,9 C20.0180469,9 18,11.4673842 18,14.5 C18,17.5326158 20.0181524,20 22.5000527,20 C24.9819531,20 27,17.5325127 27,14.5 Z M20.2499736,14.5 C20.2499736,12.7113888 21.2805128,11.1999794 22.4999473,11.1999794 C23.7193817,11.1999794 24.7499209,12.7113888 24.7499209,14.5 C24.7499209,16.2886112 23.7193817,17.8000206 22.4999473,17.8000206 C21.2805128,17.8000206 20.2499736,16.2885081 20.2499736,14.5 Z" id="Shape"></path>
            <path d="M34.5,20 C32.0182342,20 30,22.4674873 30,25.5 C30,28.5325127 32.0181288,31 34.5,31 C36.9817658,31 39,28.5325127 39,25.5 C39,22.4674873 36.9818712,20 34.5,20 Z M34.5,28.8000206 C33.2804744,28.8000206 32.2500527,27.2886112 32.2500527,25.5 C32.2500527,23.7113888 33.2805798,22.1999794 34.5,22.1999794 C35.7195256,22.1999794 36.7499473,23.7113888 36.7499473,25.5 C36.7499473,27.2886112 35.7195256,28.8000206 34.5,28.8000206 Z" id="Shape"></path>
            <path d="M54.9974781,17.1851805 C52.0437907,17.1851805 49.5992711,19.5278395 49.5992711,22.3796663 C49.5992711,35.3150181 49.4974105,45.805715 49.4974105,59.5559517 L49.5992711,59.8615336 L53.8771466,72.7967501 C53.9790072,73.2041926 54.3864497,73.5097744 54.7937569,73.5097744 C55.2010641,73.5097744 55.6085066,73.2041926 55.7103672,72.7967501 L60.1918287,59.8613983 L60.2936893,59.5558165 C60.3955499,50.0834552 60.4974105,31.9537529 60.4974105,22.4813917 C60.4975458,19.6295649 58.0531615,17.1851805 54.9974781,17.1851805 Z M54.8956175,69.3337596 L51.8400695,60.5744226 L57.8494402,60.6762833 L54.8956175,69.3337596 Z M58.358608,58.5373455 L51.432627,58.5373455 L51.6363482,28.592623 L58.4604687,28.6944836 L58.358608,58.5373455 Z M58.4604687,26.6574065 L51.6363482,26.5555459 L51.6363482,22.379531 C51.6363482,20.6480358 53.1641223,19.2221224 54.9974781,19.2221224 C56.9326946,19.2221224 58.4604687,20.7498964 58.4604687,22.4813917 L58.4604687,26.6574065 Z" id="Shape" transform="translate(54.997411, 45.347477) rotate(39.000000) translate(-54.997411, -45.347477) "></path>
        </g>
    </g>
</svg>