<?xml version="1.0" encoding="UTF-8" standalone="no"?>
<svg width="69px" height="91px" viewBox="0 0 69 91" version="1.1" xmlns="http://www.w3.org/2000/svg" xmlns:xlink="http://www.w3.org/1999/xlink">
    <!-- Generator: Sketch 45.2 (43514) - http://www.bohemiancoding.com/sketch -->
    <title>Group 8</title>
    <desc>Created with Sketch.</desc>
    <defs>
        <path d="M0.368474846,24.1723804 C0.368474846,11.1461538 10.9311607,0.579395989 23.9573873,0.579395989 C36.9876859,0.579395989 47.5544437,11.1461538 47.5544437,24.1723804 C47.5544437,37.1945351 36.9876859,47.7612929 23.9573873,47.7612929 C10.9311607,47.7612929 0.368474846,37.1945351 0.368474846,24.1723804 Z M2.57699223,24.1723501 C2.57699223,35.9456405 12.1801463,45.5568172 23.9574479,45.5568172 C35.738761,45.5568172 45.341915,35.9456405 45.341915,24.1723501 C45.341915,12.3950484 35.738761,2.78788306 23.9574479,2.78788306 C12.1801463,2.78788306 2.57699223,12.3950484 2.57699223,24.1723501 Z" id="path-1"></path>
        <path d="M10.8923138,1.63583478 L10.8923138,11.7412042 L1.41674077,11.7412042 C0.90963199,11.7412042 0.467956599,12.1869691 0.467956599,12.6858987 C0.467956599,13.1970971 0.90963199,13.6387725 1.41674077,13.6387725 L10.8923138,13.6387725 L10.8923138,23.1143455 C10.8923138,23.6214543 11.3339891,24.0631297 11.8410979,24.0631297 C12.3482067,24.0631297 12.7898821,23.6214543 12.7898821,23.1143455 L12.7898821,13.6387725 L22.8993411,13.6387725 C23.4023603,13.6387725 23.8481252,13.1970971 23.8481252,12.6858987 C23.8481252,12.1869691 23.4023603,11.7412042 22.8993411,11.7412042 L12.7898821,11.7412042 L12.7898821,1.63583478 C12.7898821,1.12463641 12.3482067,0.682961022 11.8410979,0.682961022 C11.3339891,0.682961022 10.8923138,1.12463641 10.8923138,1.63583478 Z" id="path-3"></path>
        <polygon id="path-5" points="0 71.9599807 0 0.97646656 38.8047694 0.97646656 38.8047694 71.9599807 3.15633671e-15 71.9599807"></polygon>
    </defs>
    <g id="Welcome-Page" stroke="none" stroke-width="1" fill="none" fill-rule="evenodd">
        <g id="Desktop" transform="translate(-162.000000, -1568.000000)">
            <g id="Group-8" transform="translate(162.000000, 1567.000000)">
                <g id="Page-1">
                    <g id="Group-3" transform="translate(21.202246, 43.723444)">
                        <mask id="mask-2" fill="white">
                            <use xlink:href="#path-1"></use>
                        </mask>
                        <g id="Clip-2"></g>
                        <polygon id="Fill-1" fill="#CFA788" mask="url(#mask-2)" points="-4.0176549 52.147453 51.9325508 52.147453 51.9325508 -3.80676407 -4.0176549 -3.80676407"></polygon>
                    </g>
                    <g id="Group-6" transform="translate(33.000452, 55.521650)">
                        <mask id="mask-4" fill="white">
                            <use xlink:href="#path-3"></use>
                        </mask>
                        <g id="Clip-5"></g>
                        <polygon id="Fill-4" fill="#CFA788" mask="url(#mask-4)" points="-4.35775601 28.8929319 28.6738379 28.8929319 28.6738379 -4.14275159 -4.35775601 -4.14275159"></polygon>
                    </g>
                    <g id="Group-9" transform="translate(0.000000, 0.744210)">
                        <mask id="mask-6" fill="white">
                            <use xlink:href="#path-5"></use>
                        </mask>
                        <g id="Clip-8"></g>
                        <path d="M17.0879181,69.6133453 C8.57584921,68.8070654 2.7754479,66.6449518 2.51471064,66.5246115 L2.47459721,66.5125775 L15.1303829,29.243194 C15.1504396,29.1830239 15.3229274,28.6735834 15.4031542,28.0799047 C15.4914037,27.3859424 15.2346778,26.467345 15.1263716,26.1183582 C14.5126362,24.5378892 11.6324922,21.4371214 10.4692029,16.7959981 L10.4491462,16.6475784 C10.4611802,15.5685273 10.798133,14.429306 11.1190404,13.3181641 C11.4559931,12.1709202 11.7769005,11.0838463 11.7769005,10.0288633 L11.7769005,9.8443415 L15.5716306,10.0930447 C18.7085005,10.4059295 21.6006784,13.5989581 22.5634006,14.0321831 L22.7920472,14.1284553 C23.0928978,14.264841 23.4378733,14.2688523 23.738724,14.1284553 L23.9673705,14.0321831 C24.9461381,13.5949468 27.8663955,11.2001753 30.9791973,10.8913019 L34.7458479,9.81626211 C34.7458479,9.89247761 34.7418366,9.95665909 34.7418366,10.0288633 C34.7418366,11.1039031 35.0667553,12.1989996 35.4077194,13.3703116 C35.7286268,14.4533741 36.0575569,15.5725386 36.0736023,16.6435671 L36.0575569,16.7959981 C34.7137572,22.1631744 31.7533864,25.1877267 31.3803315,26.1705056 C31.3522521,26.2386984 31.1556963,26.8524339 31.1035489,27.5544188 C31.0433787,28.2884945 31.292082,28.9944908 31.3923655,29.2472053 L34.934381,40.8961441 C35.6524113,40.6153501 36.3824757,40.3546128 37.124574,40.1299776 L33.5986039,28.5211523 C33.5865699,28.4810389 33.5665132,28.4329028 33.5504678,28.3968007 C33.4862864,28.2443697 33.3980368,27.9234623 33.4140822,27.7389406 C33.4461729,27.333795 33.5625019,26.9446947 33.5625019,26.9446947 C34.1922826,25.308067 37.1446307,22.0388228 38.3239654,17.2853819 C38.3319881,17.2372458 38.3400108,17.1971324 38.3480335,17.1449849 L38.3881469,16.8561683 C38.3961696,16.8040208 38.3961696,16.7639074 38.3961696,16.7117599 C38.3961696,15.2877333 38.0070694,13.9760243 37.6340145,12.7004174 C37.3451979,11.7015931 37.0684152,10.7669503 37.0684152,10.0288633 C37.0684152,9.69191049 37.1085287,9.27473086 37.1767215,8.80540379 C37.1847442,8.76529036 37.1927669,8.71715425 37.1967782,8.67704083 C37.4454814,7.11261724 37.9749786,5.09892328 38.2918747,4.0158608 L38.7571904,2.46347124 C38.9377009,1.84973583 38.5887141,1.20792102 37.97899,1.02339927 C37.3652546,0.838877511 36.7274511,1.19187565 36.538918,1.80561106 L36.0736023,3.35800062 C35.9853528,3.67088534 35.4197535,5.6003411 35.0587326,7.47363806 L30.7826415,8.58879129 C27.5494994,8.91371004 24.464777,11.3044702 23.2734083,11.8098993 C22.0940736,11.3084815 19.0294079,8.10743019 15.7681864,7.78251144 L11.4840725,7.50572881 C11.1591538,5.80893091 10.6617473,4.05597422 10.4571689,3.35800062 L9.98784178,1.80561106 C9.80733136,1.19187565 9.16150522,0.838877511 8.54776981,1.02741061 C7.9340344,1.21193237 7.5850476,1.85775852 7.76956936,2.46748258 L8.23889643,4.03190617 C8.58387189,5.20722953 9.10935776,7.20888946 9.34201563,8.74924499 C9.34201563,8.76529036 9.34602697,8.78534707 9.35003832,8.80540379 C9.41823114,9.27473086 9.46235591,9.69592183 9.46235591,10.0328746 C9.46235591,10.7549163 9.18958461,11.6855477 8.89675661,12.672338 C8.51969041,13.9559676 8.13059018,15.2917447 8.13059018,16.7157713 C8.13059018,16.7679187 8.13059018,16.8120435 8.13861287,16.8641909 L8.17471495,17.1530076 C8.1787263,17.2051551 8.18674898,17.2452685 8.19878301,17.2934046 C9.39015174,22.0749249 12.3304658,25.332135 12.9321672,26.8765019 C13.0204167,27.1613072 13.1126776,27.6346456 13.1006436,27.7870767 C13.0525075,28.1521088 12.9401899,28.4890616 12.9361785,28.4970843 L0.252313445,65.8346606 C0.236268075,65.8868081 0.224234048,65.9309328 0.21220002,65.991103 L0.0196555784,66.9939386 C-0.080627985,67.5234358 0.200165993,68.0569444 0.697572467,68.2735569 L1.60413588,68.6586458 C1.8889412,68.7749747 8.22285106,71.1577122 17.4048141,71.9599807 C17.2684285,71.1898029 17.1561109,70.4075911 17.0879181,69.6133453" id="Fill-7" fill="#CFA788" mask="url(#mask-6)"></path>
                    </g>
                </g>
            </g>
        </g>
    </g>
</svg>