<svg version="1.1" id="Слой_1" xmlns="http://www.w3.org/2000/svg" xmlns:xlink="http://www.w3.org/1999/xlink" x="0px" y="0px"
	 viewBox="0 0 91.9 96.1" style="enable-background:new 0 0 91.9 96.1;" xml:space="preserve">
<style type="text/css">
	.st7t87g80{fill:none;stroke:#000000;stroke-miterlimit:10;}
</style>
<g>
	<path class="st7t87g80" d="M38.8,34.8"/>
	<path class="st7t87g80" d="M49.2,29.2"/>
	<line class="st7t87g80" x1="31" y1="48.9" x2="27.3" y2="41.5"/>
	<path class="st7t87g80" d="M26,41.5c-8.6,0-15.5-6.9-15.5-15.5S17.4,10.5,26,10.5S41.5,17.5,41.5,26c0,3.2-1,6.2-2.7,8.7"/>
	<path class="st7t87g80" d="M25.5,49.5c-13.3,0-24-10.7-24-24s10.7-24,24-24s24,10.7,24,24c0,1.3-0.1,2.5-0.3,3.7"/>
</g>
<path id="Path-9" class="st7t87g80" d="M88.8,61.9c5,9.6-2.3,25.2-9.3,28.8c-7,3.6-11.2,5.7-23.6,1.5c-12.4-4.2-29.2-11.6-33.3-13.3
	c-4-1.7-2-10.3,3.8-8.6s13.1,6.9,15.2,4.5c2.1-2.4-1-5.8-3.6-11.4C35.4,57.7,23,33,21.3,29.2c-1.7-3.8-0.4-6.7,1.5-7.4
	s5.3-0.3,6.9,3.5S41,47.9,42.1,49.6c1.1,1.7,3.8,1,2.5-1.7c-1.4-2.7-2.8-5.5-3.8-7.8c-1-2.3,5.3-8.2,7.3-4.1c2,4.1,4.8,9.2,6.4,11.4
	c1.6,2.2,3.4,0.5,2.3-1.4c-1.1-1.9-2.9-5.4-4.1-8s4.8-7.5,7.5-4.5s5.6,9.5,6.7,11.3s3.9,0.7,2.4-1.5c-1.5-2.2-3.6-5.9,0-7.9
	c3.6-1.9,6.2-0.7,7.4,2.4C77.7,40.9,83.8,52.3,88.8,61.9z"/>
</svg>
