<?xml version="1.0" encoding="utf-8"?>
<!-- Generator: Adobe Illustrator 21.1.0, SVG Export Plug-In . SVG Version: 6.00 Build 0)  -->
<svg version="1.1" id="Слой_1" xmlns="http://www.w3.org/2000/svg" xmlns:xlink="http://www.w3.org/1999/xlink" x="0px" y="0px"
	 viewBox="0 0 17.8 16.2" style="enable-background:new 0 0 17.8 16.2;" xml:space="preserve">
<style type="text/css">
	.st0{fill:#B5B5B5;}
</style>
<title>heart_full</title>
<path class="st0" d="M8.9,1.4c0.5-0.3,1-0.6,1.6-0.9c1.6-0.8,3.5-0.6,5,0.3c1.3,0.8,2.2,2.2,2.3,3.7c0.2,1.8-0.5,3.6-1.9,4.9
	c-2.2,2.2-4.3,4.4-6.5,6.5c-0.2,0.3-0.6,0.3-0.8,0.1l-0.1-0.1L1.8,9.4C0.8,8.4,0.1,7,0,5.6c-0.4-2.6,1.4-5,4-5.5
	c1.7-0.3,3.4,0.1,4.7,1.2L8.9,1.4L8.9,1.4L8.9,1.4z"/>
</svg>
