<?xml version="1.0" encoding="utf-8"?>
<!-- Generator: Adobe Illustrator 21.1.0, SVG Export Plug-In . SVG Version: 6.00 Build 0)  -->
<svg version="1.1" id="Слой_1" xmlns="http://www.w3.org/2000/svg" xmlns:xlink="http://www.w3.org/1999/xlink" x="0px" y="0px"
	 viewBox="0 0 17.8 16.2" style="enable-background:new 0 0 17.8 16.2;" xml:space="preserve">
<style type="text/css">
	.st0{fill:#515251;}
</style>
<title>heart_empty</title>
<path class="st0" d="M8.9,16c-0.3,0-0.7-0.1-0.9-0.4L2.1,9.8C1,8.7,0.4,7.4,0.3,6C0,3.1,1.7,0.7,4.4,0.2c1.6-0.3,3.1,0,4.4,1
	c0,0,0,0,0,0C9.2,1,9.6,0.8,10,0.6c1.9-0.8,3.6-0.7,5.2,0.3c1.4,0.9,2.2,2.2,2.4,3.9c0.2,1.9-0.4,3.5-1.9,5
	c-1.4,1.5-2.9,2.9-4.4,4.4l-1.5,1.5C9.5,15.9,9.2,16,8.9,16z M5.5,1.6c-0.3,0-0.5,0-0.8,0.1c-2,0.4-3.2,2-3,4.1
	c0.1,1.1,0.6,2.1,1.4,2.9l5.7,5.7l1.3-1.3c1.5-1.5,2.9-2.9,4.4-4.4C15.7,7.6,16.1,6.4,16,5c-0.1-1.2-0.7-2.1-1.7-2.7
	c-1.2-0.7-2.4-0.8-3.8-0.2C10.3,2.1,10,2.3,9.7,2.5c-0.1,0-0.1,0.1-0.2,0.1c0,0,0,0,0,0C9.2,2.9,8.9,3,8.6,2.8
	c-0.1,0-0.1-0.1-0.2-0.1h0c0,0-0.1-0.1-0.1-0.1C7.4,2,6.5,1.6,5.5,1.6z"/>
</svg>
