<svg xmlns="http://www.w3.org/2000/svg" viewBox="0 0 15.13 15.13"><defs><style>.cls-1{fill:#fff;}.cls-2{fill:#040706;}.cls-3{fill:#e9e9e9;}</style></defs><title>info-fill</title><g id="Слой_2" data-name="Слой 2"><g id="Layer_1" data-name="Layer 1"><path class="cls-1" d="M8.45,2.52a1,1,0,0,0-.74.31,1,1,0,0,0-.3.74,1,1,0,1,0,1.78-.74A1,1,0,0,0,8.45,2.52ZM8.89,5.8l0,.09h0Zm0,.09c-.94.14-1.88.2-2.82.33L6,6.64h.26a.54.54,0,0,1,.37.12A.36.36,0,0,1,6.72,7a2.08,2.08,0,0,1-.14.57L5.59,11a2.45,2.45,0,0,0-.12.67.89.89,0,0,0,.27.66,2.11,2.11,0,0,0,1.07.26,3.43,3.43,0,0,0,2.86-1.68l-.58-.34A3.43,3.43,0,0,1,8,11.54a1,1,0,0,1-.49.12.19.19,0,0,1-.14-.06.22.22,0,0,1-.06-.15,2.8,2.8,0,0,1,.12-.57Z"/><path class="cls-2" d="M7.57,0a7.57,7.57,0,1,0,7.57,7.57A7.57,7.57,0,0,0,7.57,0Z"/><path class="cls-3" d="M8.45,2.52a1,1,0,0,0-.74.31,1,1,0,0,0-.3.74,1,1,0,1,0,1.78-.74A1,1,0,0,0,8.45,2.52ZM8.89,5.8l0,.09h0Zm0,.09c-.94.14-1.88.2-2.82.33L6,6.64h.26a.54.54,0,0,1,.37.12A.36.36,0,0,1,6.72,7a2.08,2.08,0,0,1-.14.57L5.59,11a2.45,2.45,0,0,0-.12.67.89.89,0,0,0,.27.66,2.11,2.11,0,0,0,1.07.26,3.43,3.43,0,0,0,2.86-1.68l-.58-.34A3.43,3.43,0,0,1,8,11.54a1,1,0,0,1-.49.12.19.19,0,0,1-.14-.06.22.22,0,0,1-.06-.15,2.8,2.8,0,0,1,.12-.57Z"/></g></g></svg>