<?xml version="1.0" encoding="UTF-8"?>
<svg width="20px" height="20px" viewBox="0 0 20 20" version="1.1" xmlns="http://www.w3.org/2000/svg" xmlns:xlink="http://www.w3.org/1999/xlink">
    <!-- Generator: Sketch 49 (51002) - http://www.bohemiancoding.com/sketch -->
    <title>ICN Price</title>
    <desc>Created with Sketch.</desc>
    <defs></defs>
    <g id="Page-1" stroke="none" stroke-width="1" fill="none" fill-rule="evenodd">
        <g id="Product-page-1(sold_out)" transform="translate(-720.000000, -780.000000)" fill="#090909" fill-rule="nonzero">
            <g id="About" transform="translate(720.000000, 260.000000)">
                <g id="Info" transform="translate(0.000000, 520.000000)">
                    <path d="M10,19.4487321 C15.209778,19.4487321 19.4487321,15.209778 19.4487321,10 C19.4487321,4.79022201 15.209778,0.551267916 10,0.551267916 C4.79022201,0.551267916 0.551267916,4.79022201 0.551267916,10 C0.551267916,15.209778 4.79022201,19.4487321 10,19.4487321 Z M10,20 C4.48576514,20 0,15.5142349 0,10 C0,4.48576514 4.48576514,0 10,0 C15.5142349,0 20,4.48576514 20,10 C20,15.5142349 15.5142349,20 10,20 Z M10,0.3969129 C15.2954289,0.3969129 19.6030871,4.70457112 19.6030871,10 C19.6030871,15.2954289 15.2954289,19.6030871 10,19.6030871 C4.70457112,19.6030871 0.3969129,15.2954289 0.3969129,10 C0.3969129,4.70457112 4.70457112,0.3969129 10,0.3969129 Z M10,0.948180816 C5.00902798,0.948180816 0.948180816,5.00902798 0.948180816,10 C0.948180816,14.990972 5.00902798,19.0518192 10,19.0518192 C14.990972,19.0518192 19.0518192,14.990972 19.0518192,10 C19.0518192,5.00902798 14.990972,0.948180816 10,0.948180816 Z M7.599922,10.1968814 L8.04993662,10.1968814 L8.04993662,6.14674977 C8.33119576,6.07174733 8.64995612,6.03424611 8.96871648,6.0154955 C9.30622745,5.99674489 9.62498781,5.97799428 9.94374817,5.97799428 C10.3000098,5.97799428 10.6375207,6.0154955 10.9750317,6.07174733 C11.3125427,6.14674977 11.6125524,6.25925343 11.8750609,6.44675952 C12.1375695,6.63426561 12.3438262,6.87802354 12.5125817,7.17803329 C12.6625865,7.49679365 12.7563396,7.89055644 12.7563396,8.37807229 C12.7563396,8.84683752 12.6813371,9.24060032 12.5313323,9.55936068 C12.3813274,9.87812104 12.1563201,10.1406296 11.8750609,10.3468863 C11.5938018,10.553143 11.2562908,10.7031479 10.8812786,10.7781503 C10.4875158,10.8719033 10.0750024,10.9094046 9.6062372,10.9094046 L8.98746709,10.9094046 L8.98746709,11.7156808 L10.5250171,11.7156808 C10.7125232,11.7156808 10.8812786,11.8656856 10.8812786,12.0719423 C10.8812786,12.2594484 10.7312738,12.4282039 10.5250171,12.4282039 L8.98746709,12.4282039 L8.98746709,13.5532405 C8.98746709,13.815749 8.78121039,14.0220057 8.51870186,14.0220057 C8.25619333,14.0220057 8.04993662,13.815749 8.04993662,13.5532405 L8.04993662,12.4282039 L7.599922,12.4282039 C7.4124159,12.4282039 7.24366042,12.278199 7.24366042,12.0719423 C7.24366042,11.8844362 7.39366529,11.7156808 7.599922,11.7156808 L8.04993662,11.7156808 L8.04993662,10.9094046 L7.599922,10.9094046 C7.39366529,10.9094046 7.24366042,10.7406491 7.24366042,10.553143 C7.24366042,10.3656369 7.39366529,10.1968814 7.599922,10.1968814 Z M9.98124939,6.76551988 C9.77499269,6.76551988 9.58748659,6.76551988 9.41873111,6.78427049 C9.23122501,6.8030211 9.09997075,6.82177171 8.98746709,6.84052232 L8.98746709,10.121879 L9.84999512,10.121879 C10.0750024,10.121879 10.3000098,10.1031284 10.5250171,10.0468765 C10.7500244,10.0093753 10.9562811,9.91562226 11.1437872,9.78436799 C11.3312933,9.65311373 11.4812981,9.48435824 11.5938018,9.25935093 C11.7063055,9.03434362 11.7625573,8.73433387 11.7625573,8.37807229 C11.7625573,8.05931193 11.7063055,7.81555401 11.6125524,7.59054669 C11.5187994,7.38428999 11.3875451,7.2155345 11.2375402,7.08428024 C11.0687847,6.95302597 10.8812786,6.87802354 10.6750219,6.82177171 C10.4500146,6.78427049 10.2250073,6.76551988 9.98124939,6.76551988 Z" id="ICN-Price"></path>
                </g>
            </g>
        </g>
    </g>
</svg>