<?xml version="1.0" encoding="utf-8"?>
<!-- Generator: Adobe Illustrator 21.1.0, SVG Export Plug-In . SVG Version: 6.00 Build 0)  -->
<svg version="1.1" id="Слой_1" xmlns="http://www.w3.org/2000/svg" xmlns:xlink="http://www.w3.org/1999/xlink" x="0px" y="0px"
	 viewBox="0 0 19.6 13.5" style="enable-background:new 0 0 19.6 13.5;" xml:space="preserve">
<style type="text/css">
	.st0{fill:#010101;}
</style>
<title>payment_system</title>
<rect x="5.4" y="2.2" class="st0" width="2.3" height="0.6"/>
<rect x="5.4" y="4" class="st0" width="9.5" height="0.6"/>
<rect x="9.3" y="2.2" class="st0" width="5.6" height="0.7"/>
<path class="st0" d="M19.6,7.1H6.7c0,0.1,0,0.7,0,1.1c0,0.1,0,0.1,0.1,0.1c0.3,0,0.5,0.2,0.4,0.5c0,0.1,0,0.2,0,0.4h12.3V7.1z"/>
<path class="st0" d="M18,0H4.9C4.1,0,3.4,0.6,3.4,1.4c0,0,0,0,0,0.1c0,0.3,0,0.6,0,0.9v1.3h0.2h0.3l0.3,0v-1c0-0.1,0-0.3,0-0.4
	c0-0.3,0-0.5,0-0.8c0-0.4,0.3-0.7,0.7-0.6c0,0,0,0,0.1,0H18c0.5,0,0.8,0.2,0.8,0.8v8.3c0,0.6-0.2,0.8-0.8,0.8H7.9v0.8H18
	c0.8,0.1,1.5-0.5,1.6-1.3c0-0.1,0-0.2,0-0.3V1.6c0.1-0.8-0.5-1.5-1.3-1.6C18.2,0,18.1,0,18,0z"/>
<path class="st0" d="M6.7,10.4c0-0.4,0-0.9,0-1.3c0-0.3-0.2-0.5-0.4-0.5c-0.1,0-0.1,0-0.1-0.1c0-0.4,0-0.8,0-1.2
	c0-0.4-0.2-0.8-0.4-1.1C5.4,5.5,4.7,5,4,4.9H3.7c-0.1,0-0.2,0-0.2,0H3.3C3.1,4.9,2.9,4.9,2.7,5c-1,0.3-1.7,1-2,2
	C0.6,7.3,0.5,7.7,0.5,8v0.6H0.4C0.1,8.6,0,8.9,0,9.1v2.6c0,0.4,0,0.8,0,1.2s0.1,0.5,0.4,0.6h6c0.2-0.1,0.3-0.2,0.3-0.4
	c0-0.1,0-0.3,0-0.4V10.4z M3.9,11.3c-0.1,0.1-0.1,0.2-0.1,0.3c0,0.3,0,0.5,0,0.8c0,0.2-0.1,0.4-0.3,0.4c-0.2,0.1-0.4,0-0.5-0.1
	c-0.1-0.1-0.1-0.1-0.1-0.2c0-0.2,0-0.4,0-0.5l0,0v-0.1c0-0.2-0.1-0.5-0.2-0.6c-0.3-0.3-0.4-0.8-0.2-1.1c0.2-0.4,0.6-0.5,1-0.5
	c0.4,0.1,0.7,0.4,0.8,0.8C4.4,10.6,4.2,11,3.9,11.3z M5,8.6H1.8c-0.1,0-0.1,0-0.1-0.1c0-0.3,0-0.7,0-1c0-0.5,0.3-1,0.7-1.3
	c0.8-0.6,1.9-0.4,2.4,0.4c0,0,0.1,0.1,0.1,0.1C5,7,5.1,7.3,5.1,7.6c0,0.3,0,0.6,0,0.9C5.1,8.6,5.1,8.6,5,8.6z"/>
</svg>
