<?xml version="1.0" encoding="UTF-8" standalone="no"?>
<svg width="109px" height="109px" viewBox="0 0 109 109" version="1.1" xmlns="http://www.w3.org/2000/svg" xmlns:xlink="http://www.w3.org/1999/xlink">
    <!-- Generator: Sketch 45.2 (43514) - http://www.bohemiancoding.com/sketch -->
    <title>people-in-white-circle</title>
    <desc>Created with Sketch.</desc>
    <defs>
        <path d="M45,90 C69.8528137,90 90,69.8528137 90,45 C90,20.1471863 69.8528137,0 45,0 C20.1471863,0 0,20.1471863 0,45 C0,69.8528137 20.1471863,90 45,90 Z" id="path-1"></path>
    </defs>
    <g id="Page-1" stroke="none" stroke-width="1" fill="none" fill-rule="evenodd">
        <g id="Inviting-Page" transform="translate(-459.000000, -515.000000)">
            <g id="people-in-white-circle" transform="translate(459.000000, 515.000000)">
                <g id="Group-5" fill="#FFFFFF">
                    <circle id="Oval" cx="54.5" cy="54.5" r="54.5"></circle>
                </g>
                <g id="noun_749185_cc" transform="translate(9.000000, 10.000000)">
                    <mask id="mask-2" fill="white">
                        <use xlink:href="#path-1"></use>
                    </mask>
                    <use id="Mask" fill="#FFFFFF" xlink:href="#path-1"></use>
                    <g mask="url(#mask-2)" id="Shape" fill-rule="nonzero" fill="#000000">
                        <g transform="translate(9.000000, 20.000000)">
                            <path d="M47.8276054,49.4817717 L0.529906094,49.4817717 L0.529906094,42.8149802 C0.526237793,41.4143633 1.14869909,40.0853953 2.22703777,39.1915683 C6.51520466,35.7374297 11.1632164,32.7555957 16.0905269,30.297739 C16.2391809,30.226263 16.3337937,30.0759955 16.3339973,29.9110507 L16.3339973,25.4211707 C15.6643533,24.2867251 15.208081,23.0392572 14.9877494,21.7404716 C14.4721651,21.6975063 13.7990411,20.9742561 13.06863,18.4034954 C12.130553,15.0880019 13.0113429,14.4291997 13.8634892,14.4363606 C13.4123529,12.5029195 12.2594491,5.77167989 17.2720743,2.71397851 C16.6697788,2.20389506 16.321623,1.4552293 16.3196755,0.665963064 C16.3196755,0.665963064 22.04839,1.31044345 24.798173,0.744732888 C27.547956,0.179022329 30.5268875,2.34877296 31.0066674,4.43259286 C31.0066674,4.43259286 36.6136467,4.43259286 34.4367352,14.4578433 C35.3103642,14.4220388 36.262763,15.0235538 35.3032033,18.4249781 C34.587114,21.0028996 33.8710246,21.7261498 33.3840839,21.7619543 C33.1637523,23.0607398 32.70748,24.3082078 32.037836,25.4426534 L32.037836,29.9325334 C32.0380395,30.0974782 32.1326524,30.2477456 32.2813064,30.3192216 C37.2051508,32.7707498 41.8507039,35.7453443 46.1376346,39.1915683 C47.2159733,40.0853953 47.8384346,41.4143633 47.8347663,42.8149802 L47.8276054,49.4817717 Z M45.7581073,31.0711154 L45.7581073,33.7349677 C45.7568215,34.020527 45.6775894,34.3003153 45.5289587,34.5441486 C46.4097486,35.1957899 47.2976993,35.8832356 48.1784892,36.6064858 C50.0094609,38.1312939 51.0605969,40.3964919 51.0428464,42.7791757 L51.0428464,49.4101628 L71.0790255,49.4101628 L71.0790255,43.1443813 C70.9069995,41.3823219 69.8182187,39.841697 68.2146682,39.0913157 C66.8722861,38.4306536 65.4694474,37.9006923 64.0255457,37.5087584 C63.9467759,37.465793 59.4927004,36.2985674 57.3802369,35.1743072 L57.1940537,35.0883765 C56.7472244,34.7991554 56.4775944,34.3030362 56.4779643,33.7707721 L56.4779643,31.6941131 L56.4779643,31.6941131 L56.4779643,30.9780238 C56.4779643,30.9780238 62.600528,31.164207 65.5006897,28.1995973 C65.5006897,28.1995973 61.2757628,27.0037281 62.0348174,19.305768 C62.7938721,11.6078078 61.0895795,4.85508556 54.8739243,5.42795701 C54.8739243,5.42795701 52.1957502,2.20555509 46.8608848,4.23208786 C45.0276962,4.94817717 40.1153235,6.68827421 40.3659547,17.3508441 C40.616586,28.013414 36.5778423,28.0921839 36.5778423,28.0921839 C36.5778423,28.0921839 38.6688231,31.1355635 45.7581073,31.0711154 Z"></path>
                        </g>
                    </g>
                    <path d="M9.54736438,68.7410369 C9.34884343,71.4971454 8.82808364,73.6233826 7.98508504,75.1197486 C7.14208643,76.6161146 13.5622221,82.3006338 27.2454919,92.1733062 L63.1325129,93.1909911 C59.2100838,85.7443503 57.1116009,77.8684379 56.8370642,69.5632541 C56.5625275,61.2580702 48.26141,58.7978476 31.9337119,62.1825861 L9.54736438,68.7410369 Z" id="Path-2" fill="#000000" mask="url(#mask-2)"></path>
                    <path d="M60.0705175,68.9084397 C59.8945676,75.0085717 61.4552515,81.0132382 64.7525694,86.9224393 C68.0498872,92.8316404 72.7177599,90.7261299 78.7561874,80.6059077 L82.0042986,74.5973501 C80.7382689,72.117888 80.0964393,70.3949874 80.0788097,69.4286482 C80.0611801,68.462309 79.620306,68.0154003 78.7561874,68.087922 L60.0705175,68.9084397 Z" id="Path-3" fill="#000000" mask="url(#mask-2)"></path>
                </g>
            </g>
        </g>
    </g>
</svg>