<svg xmlns="http://www.w3.org/2000/svg" viewBox="0 0 17.4 14.74"><defs><style>.cls-1{fill:#040706;stroke-miterlimit:10;stroke-width:0.7px;}.cls-1,.cls-2{stroke:#040706;}.cls-2{fill:#1e1e1e;stroke-linecap:round;stroke-linejoin:round;stroke-width:1.2px;}</style></defs><title>person-plus</title><g id="Слой_2" data-name="Слой 2"><g id="Layer_1" data-name="Layer 1"><path class="cls-1" d="M10.31.35A3.65,3.65,0,1,0,14,4,3.66,3.66,0,0,0,10.31.35Zm0,6.74A3.09,3.09,0,1,1,13.4,4,3.09,3.09,0,0,1,10.31,7.09Z"/><path class="cls-1" d="M10.31,9c-5.53,0-6.74,2.75-6.74,3.81a1.62,1.62,0,0,0,1.65,1.62H15.4a1.62,1.62,0,0,0,1.65-1.62C17.05,11.71,15.84,9,10.31,9Zm5.09,4.87H5.22a1,1,0,0,1-1.08-1.06c0-.84,1.13-3.24,6.17-3.24s6.17,2.4,6.17,3.24A1,1,0,0,1,15.4,13.82Z"/><line class="cls-2" x1="2.62" y1="4.23" x2="2.62" y2="8.28"/><line class="cls-2" x1="4.65" y1="6.25" x2="0.6" y2="6.25"/></g></g></svg>