<?xml version="1.0" encoding="utf-8"?>
<!-- Generator: Adobe Illustrator 21.1.0, SVG Export Plug-In . SVG Version: 6.00 Build 0)  -->
<svg version="1.1" id="Слой_1" xmlns="http://www.w3.org/2000/svg" xmlns:xlink="http://www.w3.org/1999/xlink" x="0px" y="0px"
	 viewBox="0 0 18.4 19.2" style="enable-background:new 0 0 18.4 19.2;" xml:space="preserve">
<title>profile</title>
<path d="M9.2,0C9.2,0,9.2,0,9.2,0C6.4,0,4,2.3,4,5.1c0,1.4,0.5,2.7,1.5,3.7s2.3,1.5,3.6,1.5c0,0,0,0,0,0c1.4,0,2.7-0.5,3.6-1.5
	c1-1,1.5-2.3,1.5-3.7C14.3,2.3,12,0,9.2,0z M9.2,9.2C7,9.2,5.2,7.4,5.2,5.2c0-2.2,1.8-4.1,4.1-4.1c2.2,0,4.1,1.8,4.1,4.1
	C13.3,7.4,11.5,9.2,9.2,9.2z"/>
<path d="M9.2,11.3c-7.6,0-9.2,3.9-9.2,5.3c0,1.4,1.1,2.5,2.5,2.5h13.4c0,0,0,0,0,0c1.3,0,2.5-1.1,2.5-2.5
	C18.4,15.2,16.8,11.3,9.2,11.3z M15.9,17.7H2.5c-0.3,0-0.5-0.1-0.7-0.3c-0.2-0.2-0.3-0.4-0.3-0.8c0-1,1.4-3.9,7.8-3.9
	c6.3,0,7.8,2.9,7.8,3.9C17,17.3,16.5,17.7,15.9,17.7z"/>
</svg>
