<?xml version="1.0" encoding="UTF-8"?>
<svg width="63px" height="64px" viewBox="0 0 63 64" version="1.1" xmlns="http://www.w3.org/2000/svg" xmlns:xlink="http://www.w3.org/1999/xlink">
    <!-- Generator: Sketch 46.2 (44496) - http://www.bohemiancoding.com/sketch -->
    <title>s3-1</title>
    <desc>Created with Sketch.</desc>
    <defs></defs>
    <g id="Welcome-Page" stroke="none" stroke-width="1" fill="none" fill-rule="evenodd">
        <g id="Buy-Page" transform="translate(-120.000000, -2717.000000)" stroke="#CFA788">
            <g id="s3-1" transform="translate(121.000000, 2718.000000)">
                <ellipse id="Oval-2-Copy-15" stroke-width="1.19999993" cx="30.5244687" cy="31" rx="30.5244687" ry="31"></ellipse>
                <g id="noun_1075220_cc" transform="translate(15.000000, 13.000000)" stroke-width="0.4" fill="#CFA788" fill-rule="nonzero">
                    <g id="Group">
                        <path d="M9.88512816,31.0932213 C8.89302075,31.0932213 8.08783213,31.8984099 8.08783213,32.8905173 C8.08783213,33.8826247 8.89302075,34.6878134 9.88512816,34.6878134 C10.8772356,34.6878134 11.6824242,33.8826247 11.6824242,32.8905173 C11.6824242,31.8984099 10.8772356,31.0932213 9.88512816,31.0932213 Z M9.88512816,33.9688949 C9.28842588,33.9688949 8.80675054,33.4872196 8.80675054,32.8905173 C8.80675054,32.2974096 9.28842588,31.8121397 9.88512816,31.8121397 C10.4782358,31.8121397 10.9635058,32.2974096 10.9635058,32.8905173 C10.9635058,33.4872196 10.4782358,33.9688949 9.88512816,33.9688949 Z" id="Shape"></path>
                        <path d="M33.7891653,9.30280425 L19.7702563,9.30280425 L19.7702563,1.79729603 C19.7702563,0.805188621 18.9650677,0 17.9729603,0 L1.79729603,0 C0.805188621,0 0,0.805188621 0,1.79729603 L0,34.1486245 C0,35.140732 0.805188621,35.9459206 1.79729603,35.9459206 L17.9729603,35.9459206 C18.9650677,35.9459206 19.7702563,35.140732 19.7702563,34.1486245 L19.7702563,27.9946829 L33.7891653,27.9946829 C34.9789753,27.9946829 35.9459206,27.0277377 35.9459206,25.8379277 L35.9459206,11.4595595 C35.9459206,10.2697495 34.9789753,9.30280425 33.7891653,9.30280425 Z M33.7891653,10.0217227 C34.5799756,10.0217227 35.2270022,10.6687492 35.2270022,11.4595595 L35.2270022,12.8973963 L8.98648014,12.8973963 L8.98648014,11.4595595 C8.98648014,10.6687492 9.62991212,10.0217227 10.424317,10.0217227 L33.7891653,10.0217227 Z M17.2540419,9.30280425 L10.424317,9.30280425 C9.234507,9.30280425 8.26756173,10.2697495 8.26756173,11.4595595 L8.26756173,25.8379277 C8.26756173,27.0277377 9.234507,27.9946829 10.424317,27.9946829 L17.2540419,27.9946829 L17.2540419,29.8351141 L2.51621444,29.8351141 L2.51621444,4.31351047 L17.2540419,4.31351047 L17.2540419,9.30280425 Z M8.98648014,13.6163147 L35.2270022,13.6163147 L35.2270022,16.4919884 L8.98648014,16.4919884 L8.98648014,13.6163147 Z M19.0513379,34.1486245 C19.0513379,34.7453268 18.566068,35.2270022 17.9729603,35.2270022 L1.79729603,35.2270022 C1.20059375,35.2270022 0.718918412,34.7453268 0.718918412,34.1486245 L0.718918412,1.79729603 C0.718918412,1.20418834 1.20059375,0.718918412 1.79729603,0.718918412 L17.9729603,0.718918412 C18.566068,0.718918412 19.0513379,1.20418834 19.0513379,1.79729603 L19.0513379,9.30280425 L17.9729603,9.30280425 L17.9729603,3.59459206 L1.79729603,3.59459206 L1.79729603,30.5540325 L17.9729603,30.5540325 L17.9729603,27.9946829 L19.0513379,27.9946829 L19.0513379,34.1486245 Z M33.7891653,27.2757645 L10.424317,27.2757645 C9.62991212,27.2757645 8.98648014,26.6323326 8.98648014,25.8379277 L8.98648014,17.2109068 L35.2270022,17.2109068 L35.2270022,25.8379277 C35.2270022,26.6323326 34.5799756,27.2757645 33.7891653,27.2757645 Z" id="Shape"></path>
                        <path d="M31.2729509,21.164958 C30.8164377,21.164958 30.3778975,21.3087417 30.0148437,21.5711469 C29.6481953,21.3087417 29.2132497,21.164958 28.7567365,21.164958 C27.5669265,21.164958 26.5999812,22.1319033 26.5999812,23.3217133 C26.5999812,24.5115232 27.5669265,25.4784685 28.7567365,25.4784685 C29.2132497,25.4784685 29.6481953,25.3382794 30.0148437,25.0758742 C30.3778975,25.3382794 30.8164377,25.4784685 31.2729509,25.4784685 C32.4627609,25.4784685 33.4297061,24.5115232 33.4297061,23.3217133 C33.4297061,22.1319033 32.4627609,21.164958 31.2729509,21.164958 Z M31.2729509,24.7595501 C30.8955187,24.7595501 30.5360595,24.6121718 30.2664651,24.3497666 L30.0148437,24.1017397 L29.7632222,24.3497666 C29.4900332,24.6121718 29.1341686,24.7595501 28.7567365,24.7595501 C27.9623316,24.7595501 27.3188996,24.1161181 27.3188996,23.3217133 C27.3188996,22.530903 27.9623316,21.8838764 28.7567365,21.8838764 C29.1341686,21.8838764 29.4900332,22.0312547 29.7632222,22.2972545 L30.0148437,22.5416868 L30.2664651,22.2972545 C30.5360595,22.0312547 30.8955187,21.8838764 31.2729509,21.8838764 C32.0637612,21.8838764 32.7107877,22.530903 32.7107877,23.3217133 C32.7107877,24.1161181 32.0637612,24.7595501 31.2729509,24.7595501 Z" id="Shape"></path>
                    </g>
                </g>
            </g>
        </g>
    </g>
</svg>