<?xml version="1.0" encoding="UTF-8"?>
<svg width="63px" height="64px" viewBox="0 0 63 64" version="1.1" xmlns="http://www.w3.org/2000/svg" xmlns:xlink="http://www.w3.org/1999/xlink">
    <!-- Generator: Sketch 46.2 (44496) - http://www.bohemiancoding.com/sketch -->
    <title>s3-2</title>
    <desc>Created with Sketch.</desc>
    <defs></defs>
    <g id="Welcome-Page" stroke="none" stroke-width="1" fill="none" fill-rule="evenodd">
        <g id="Buy-Page" transform="translate(-360.000000, -2717.000000)">
            <g id="s3-2" transform="translate(361.000000, 2718.000000)">
                <ellipse id="Oval-2-Copy-16" stroke="#CFA788" stroke-width="1.19999993" fill="#FAFAFA" cx="30.5244687" cy="31" rx="30.5244687" ry="31"></ellipse>
                <g id="noun_1141240_cc" transform="translate(13.000000, 10.000000)" fill-rule="nonzero" fill="#CFA788">
                    <path d="M31.7756452,30.4283621 L31.7756452,17.3189655 C31.7756452,10.4592414 26.8962867,4.71782759 20.4235094,3.36624138 L20.4235094,2.79082759 C20.4235094,1.25191379 19.1111156,0 17.5,0 C15.8874687,0 14.5757827,1.25191379 14.5757827,2.79012069 L14.5757827,3.36553448 C8.10229755,4.71782759 3.22435483,10.4592414 3.22435483,17.3189655 L3.22435483,30.4283621 C1.42211391,30.5902414 0,32.0902759 0,33.9310345 C0,35.8799483 1.58775584,37.4655172 3.53935766,37.4655172 L14.5757827,37.4655172 L14.5757827,38.2098793 C14.5757827,39.7480862 15.8874687,41 17.5,41 C19.1111156,41 20.4235094,39.7480862 20.4235094,38.2098793 L20.4235094,37.4655172 L31.4606423,37.4655172 C33.412952,37.4655172 35,35.8799483 35,33.9310345 C35,32.0902759 33.5771782,30.5895345 31.7756452,30.4283621 Z M15.9915258,2.79012069 C15.9915258,2.03162069 16.668251,1.4137931 17.5,1.4137931 C18.331749,1.4137931 19.0077664,2.03162069 19.0077664,2.79012069 L19.0077664,3.14427586 C18.5115484,3.09196552 18.0096675,3.06298276 17.4992921,3.06298276 C16.9903325,3.06298276 16.4870358,3.09196552 15.9915258,3.14427586 L15.9915258,2.79012069 Z M4.64009789,17.3189655 C4.64009789,10.2372759 10.408543,4.47677586 17.4992921,4.47677586 C24.5907491,4.47677586 30.3599021,10.2372759 30.3599021,17.3189655 L30.3599021,30.3965517 L4.64009789,30.3965517 L4.64009789,17.3189655 Z M19.0077664,38.2098793 C19.0077664,38.9683793 18.331749,39.5862069 17.5,39.5862069 C16.668251,39.5862069 15.9915258,38.9683793 15.9915258,38.2098793 L15.9915258,37.4655172 L19.0077664,37.4655172 L19.0077664,38.2098793 Z M31.4606423,36.0517241 L3.53935766,36.0517241 C2.36853814,36.0517241 1.41574306,35.1002414 1.41574306,33.9310345 C1.41574306,32.7618276 2.36853814,31.8103448 3.53935766,31.8103448 L31.4606423,31.8103448 C32.6314619,31.8103448 33.5842569,32.7618276 33.5842569,33.9310345 C33.5842569,35.1002414 32.6314619,36.0517241 31.4606423,36.0517241 Z" id="Shape"></path>
                </g>
            </g>
        </g>
    </g>
</svg>