<?xml version="1.0" encoding="UTF-8"?>
<svg width="63px" height="64px" viewBox="0 0 63 64" version="1.1" xmlns="http://www.w3.org/2000/svg" xmlns:xlink="http://www.w3.org/1999/xlink">
    <!-- Generator: Sketch 46.2 (44496) - http://www.bohemiancoding.com/sketch -->
    <title>s3-4</title>
    <desc>Created with Sketch.</desc>
    <defs></defs>
    <g id="Welcome-Page" stroke="none" stroke-width="1" fill="none" fill-rule="evenodd">
        <g id="Buy-Page" transform="translate(-840.000000, -2717.000000)" stroke="#CFA788">
            <g id="s3-4" transform="translate(841.000000, 2718.000000)">
                <ellipse id="Oval-2-Copy-18" stroke-width="1.19999993" fill="#FAFAFA" cx="30.5244687" cy="31" rx="30.5244687" ry="31"></ellipse>
                <path d="M47.7696456,21.6485893 C45.8363679,21.6485893 44.2803151,23.2046421 44.2803151,25.1379199 C44.2803151,26.1752884 44.7518462,27.0711976 45.459143,27.7313412 L38.0561038,31.6922029 L31.7847394,22.3087329 C33.1993329,21.7428955 34.1895483,20.3754552 34.1895483,18.7722493 C34.1895483,16.6975122 32.4920362,15 30.4172991,15 C28.342562,15 26.6450498,16.6975122 26.6450498,18.7722493 C26.6450498,20.3754552 27.6352652,21.7428955 29.0498587,22.2615798 L22.4012694,31.6450498 L15.6583739,27.8256475 C16.4599768,27.2126569 16.9786611,26.2224415 16.9786611,25.0907667 C16.9786611,23.157489 15.4226083,21.6014362 13.4893306,21.6014362 C11.5560528,21.6014362 10,23.157489 10,25.0907667 C10,26.7882789 11.225981,28.2028724 12.8291869,28.4857911 L14.903924,43.9048599 C15.0925365,45.1308409 16.129905,46.0267501 17.355886,46.0267501 L43.4787121,46.0267501 C44.7046931,46.0267501 45.7892148,45.1308409 45.9306741,43.8577068 L48.0054112,28.4857911 C49.7972296,28.3443317 51.2118231,26.835432 51.2118231,25.0436136 C51.2589762,23.2046421 49.7029234,21.6485893 47.7696456,21.6485893 Z" id="Shape" stroke-width="1.4" fill-rule="nonzero"></path>
                <path d="M19.5,39.7 L41.5227155,39.7" id="Line-2" stroke-width="1.4" stroke-linecap="round"></path>
            </g>
        </g>
    </g>
</svg>