<?xml version="1.0" encoding="UTF-8"?>
<svg width="63px" height="64px" viewBox="0 0 63 64" version="1.1" xmlns="http://www.w3.org/2000/svg" xmlns:xlink="http://www.w3.org/1999/xlink">
    <!-- Generator: Sketch 46.2 (44496) - http://www.bohemiancoding.com/sketch -->
    <title>s3-5</title>
    <desc>Created with Sketch.</desc>
    <defs></defs>
    <g id="Welcome-Page" stroke="none" stroke-width="1" fill="none" fill-rule="evenodd">
        <g id="Buy-Page" transform="translate(-120.000000, -2977.000000)" stroke="#CFA788">
            <g id="s3-5" transform="translate(121.000000, 2978.000000)">
                <ellipse id="Oval-2-Copy-19" stroke-width="1.19999993" fill="#FAFAFA" cx="30.5244687" cy="31" rx="30.5244687" ry="31"></ellipse>
                <g id="Group-4" transform="translate(9.000000, 14.000000)" stroke-width="1.4" fill-rule="nonzero">
                    <path d="M16.7385843,31.5137018 L15.6717932,36.1850499 C15.5767326,36.5990916 15.7393918,37.0307371 16.063302,37.2771905 C16.252719,37.4201334 16.4872018,37.5025193 16.7273179,37.5025193 L17.037145,37.4799864 L21.4704895,35.1710702 L25.5982317,37.6349 L25.9066506,37.7785471 L26.1460624,37.7785471 C26.7445921,37.7785471 27.2269366,37.2940901 27.2269366,36.6990812 L26.4087113,31.7953628 L30.0062267,28.6541383 C30.3322494,28.3802229 30.4618134,27.937311 30.3456283,27.5324233 C30.2287389,27.1345771 29.8879291,26.8324956 29.4696625,26.7641928 L24.7278992,26.0551112 L22.8456994,21.650637 C22.6816319,21.272507 22.3105435,21.0154914 21.8549568,21 C21.4444358,21 21.071235,21.2288496 20.886747,21.5964172 L18.7524606,25.8840021 L13.9888686,26.312831 C13.5706019,26.3480387 13.2079634,26.6261789 13.0593872,27.037404 C12.9234857,27.429617 13.0248837,27.8577417 13.3220361,28.1584149 L16.7385843,31.5137018 Z" id="Shape"></path>
                    <path d="M13.0343867,17.1520087 L13.3435097,17.2956558 L13.5836257,17.2956558 C14.1807471,17.2956558 14.6652041,16.8111988 14.6652041,16.2161899 L13.8497954,11.3124715 L17.4451983,8.17124696 C17.7719251,7.89733162 17.9028975,7.45441966 17.785304,7.04953194 C17.6655981,6.65168575 17.3269007,6.3496043 16.903705,6.28130151 L12.1703915,5.57221988 L10.2853752,1.16774565 C10.1198993,0.789615727 9.74529015,0.532600044 9.27421209,0.517108688 C8.88129496,0.528375129 8.50809411,0.759337167 8.3271269,1.1135259 L6.18861559,5.40111081 L1.42361525,5.82993972 C1.00957354,5.86514735 0.644118368,6.14328761 0.493429721,6.5545127 C0.360344888,6.94672567 0.460334551,7.37485042 0.758895234,7.67552357 L4.17473928,11.0308105 L3.11146892,15.7007502 C3.01711248,16.1162002 3.17343435,16.5478458 3.5036819,16.7942992 C3.69239478,16.9372421 3.92476512,17.019628 4.16769775,17.019628 L4.47541242,16.9970951 L8.91086937,14.6881789 L13.0343867,17.1520087 Z" id="Shape"></path>
                    <path d="M29.5344798,11.0308105 L28.4683929,15.7007502 C28.3747406,16.1162002 28.5324708,16.5478458 28.8634225,16.7942992 C29.050727,16.9372421 29.2852098,17.019628 29.5225093,17.019628 L29.8330405,16.9970951 L34.2692016,14.6881789 L38.3913107,17.1520087 L38.7025461,17.2956558 L38.9412538,17.2956558 C39.5376711,17.2956558 40.022128,16.8111988 40.022128,16.2161899 L39.2067193,11.3124715 L42.8035306,8.17124696 C43.1295532,7.89733162 43.2598215,7.45441966 43.142228,7.04953194 C43.0253387,6.65168575 42.6838247,6.3496043 42.2620373,6.28130151 L37.5216823,5.57221988 L35.6458199,1.16774565 C35.4782316,0.789615727 35.1043266,0.532600044 34.6529648,0.517108688 C34.2382189,0.517108688 33.8706513,0.745958269 33.684755,1.1135259 L31.5490603,5.40111081 L26.7861724,5.82993972 C26.3650892,5.86514735 26.0045631,6.14328761 25.8524661,6.5545127 C25.7200855,6.94672567 25.8207793,7.37485042 26.1165233,7.67552357 L29.5344798,11.0308105 Z" id="Shape"></path>
                </g>
            </g>
        </g>
    </g>
</svg>