<?xml version="1.0" encoding="UTF-8"?>
<svg width="63px" height="64px" viewBox="0 0 63 64" version="1.1" xmlns="http://www.w3.org/2000/svg" xmlns:xlink="http://www.w3.org/1999/xlink">
    <!-- Generator: Sketch 46.2 (44496) - http://www.bohemiancoding.com/sketch -->
    <title>s3-6</title>
    <desc>Created with Sketch.</desc>
    <defs></defs>
    <g id="Welcome-Page" stroke="none" stroke-width="1" fill="none" fill-rule="evenodd">
        <g id="Buy-Page" transform="translate(-360.000000, -2977.000000)">
            <g id="s3-6" transform="translate(361.000000, 2978.000000)">
                <ellipse id="Oval-2-Copy-20" stroke="#CFA788" stroke-width="1.19999993" fill="#FAFAFA" cx="30.5244687" cy="31" rx="30.5244687" ry="31"></ellipse>
                <g id="noun_1165614_cc" transform="translate(13.000000, 14.000000)" fill-rule="nonzero" fill="#CFA788">
                    <path d="M33.7605936,7.59350386 L27.8431757,7.59350386 C28.7442238,6.31125258 28.8554774,4.63369947 28.131651,3.24368821 C27.4078246,1.85367695 25.969612,0.982983827 24.4024341,0.986022232 C20.867364,0.986022232 18.8280733,3.85180964 17.7949525,5.98992062 C16.7618316,3.85180964 14.7225409,0.986022232 11.1874708,0.986022232 C9.62029288,0.982983827 8.18208036,1.85367695 7.45825396,3.24368821 C6.73442757,4.63369947 6.84568115,6.31125258 7.74672921,7.59350386 L1.82931132,7.59350386 L1.82931132,7.59350386 C1.27702657,7.59350386 0.829311324,8.04121911 0.829311324,8.59350386 L0.829311324,16.0982157 L0.829311324,16.0982157 C0.829311324,16.6505005 1.27702657,17.0982157 1.82931132,17.0982157 L3.03030792,17.0982157 L3.03030792,32.6146739 L3.03030792,32.6146739 C3.03030792,33.1669586 3.47802317,33.6146739 4.03030792,33.6146739 L31.559597,33.6146739 L31.559597,33.6146739 C32.1118817,33.6146739 32.559597,33.1669586 32.559597,32.6146739 L32.559597,17.0982157 L33.7605936,17.0982157 L33.7605936,17.0982157 C34.3128783,17.0982157 34.7605936,16.6505005 34.7605936,16.0982157 L34.7605936,8.59350386 L34.7605936,8.59350386 C34.7605936,8.04121911 34.3128783,7.59350386 33.7605936,7.59350386 Z M24.4024341,2.78275415 C25.7308859,2.78275415 26.8078089,3.85967715 26.8078089,5.18812901 C26.8078089,6.51658086 25.7308859,7.59350386 24.4024341,7.59350386 L19.0526648,7.59350386 C19.7399148,5.87313305 21.3884163,2.78275415 24.4024341,2.78275415 Z M8.78434189,5.1724076 C8.78681382,3.84622139 9.86128462,2.77175059 11.1874708,2.76927866 C14.1790295,2.76927866 15.8410065,5.85965756 16.5327483,7.58002837 L11.1874708,7.58002837 C9.8595331,7.57755087 8.78433958,6.50034764 8.78434189,5.1724076 Z M2.62604324,15.3014838 L2.62604324,9.39023578 L16.8965865,9.39023578 L16.8965865,15.3014838 L2.62604324,15.3014838 Z M4.82703984,31.8179419 L4.82703984,17.0982157 L16.8965865,17.0982157 L16.8965865,31.8179419 L4.82703984,31.8179419 Z M30.7628651,31.8179419 L18.6933184,31.8179419 L18.6933184,17.0982157 L30.7628651,17.0982157 L30.7628651,31.8179419 Z M32.9638617,15.3014838 L18.6933184,15.3014838 L18.6933184,9.39023578 L32.9638617,9.39023578 L32.9638617,15.3014838 Z" id="Shape"></path>
                </g>
            </g>
        </g>
    </g>
</svg>