<?xml version="1.0" encoding="UTF-8"?>
<svg width="90px" height="72px" viewBox="0 0 90 72" version="1.1" xmlns="http://www.w3.org/2000/svg" xmlns:xlink="http://www.w3.org/1999/xlink">
    <!-- Generator: Sketch 46.2 (44496) - http://www.bohemiancoding.com/sketch -->
    <title>photo</title>
    <desc>Created with Sketch.</desc>
    <defs></defs>
    <g id="Welcome-Page" stroke="none" stroke-width="1" fill="none" fill-rule="evenodd">
        <g id="Sell-Page" transform="translate(-467.000000, -1750.000000)" fill-rule="nonzero" fill="#CFA788">
            <g id="photo" transform="translate(467.000000, 1749.000000)">
                <g id="Group" transform="translate(0.000000, 0.637820)">
                    <path d="M33,0.36235 C32.5366,0.37435 32.2232,0.65815 32.125,0.83115 L25.4062,12.36235 L10,12.36235 C4.4773005,12.36235 4.99999999e-07,16.83965 4.99999999e-07,22.36235 L4.99999999e-07,62.3624 C4.99999999e-07,67.8851 4.4773005,72.3624 10,72.3624 L80,72.3624 C85.5227,72.3624 90,67.8851 90,62.3624 L90,22.36235 C90,16.83965 85.5227,12.36235 80,12.36235 L64.5938,12.36235 L57.875,0.83115 C57.6912,0.53765 57.346101,0.35285 57,0.36235 L33,0.36235 Z M33.5938,2.36235 L56.4062,2.36235 L63.125,13.86235 C63.301,14.16725 63.648,14.36545 64,14.36235 L80,14.36235 C84.449299,14.36235 88,17.91305 88,22.36235 L88,62.3624 C88,66.8117 84.449299,70.3624 80,70.3624 L10,70.3624 C5.5507,70.3624 2.0000005,66.8117 2.0000005,62.3624 L2.0000005,22.36235 C2.0000005,17.91305 5.5507,14.36235 10,14.36235 L26,14.36235 C26.352,14.36235 26.699,14.16725 26.875,13.86235 L33.5938,2.36235 Z M45,20.36235 C32.8617,20.36235 23,30.22396 23,42.3624 C23,54.5008 32.8617,64.3624 45,64.3624 C57.1385,64.3624 67,54.5008 67,42.3624 C67,30.22396 57.1385,20.36235 45,20.36235 Z M76,21.36235 C73.8027,21.36235 72,23.16505 72,25.36236 C72,27.55966 73.8027,29.36236 76,29.36236 C78.197299,29.36236 80,27.55966 80,25.36236 C80,23.16505 78.197299,21.36235 76,21.36235 Z M45,22.36235 C56.0577,22.36235 65,31.30486 65,42.3624 C65,53.4199 56.0577,62.3624 45,62.3624 C33.942501,62.3624 25,53.4199 25,42.3624 C25,31.30486 33.942501,22.36235 45,22.36235 Z M76,23.36235 C77.116299,23.36235 78,24.24595 78,25.36236 C78,26.47876 77.116299,27.36236 76,27.36236 C74.8837,27.36236 74,26.47876 74,25.36236 C74,24.24595 74.8837,23.36235 76,23.36235 Z M45,28.36236 C37.2799,28.36236 31,34.6423 31,42.3624 C31,50.0825 37.2799,56.3624 45,56.3624 C52.7201,56.3624 59,50.0825 59,42.3624 C59,34.6423 52.7201,28.36236 45,28.36236 Z M45,30.36236 C51.6392,30.36236 57,35.7232 57,42.3624 C57,49.0016 51.6392,54.3624 45,54.3624 C38.3608,54.3624 33,49.0016 33,42.3624 C33,35.7232 38.3608,30.36236 45,30.36236 Z" id="Shape"></path>
                </g>
            </g>
        </g>
    </g>
</svg>