<?xml version="1.0" encoding="UTF-8"?>
<svg width="63px" height="64px" viewBox="0 0 63 64" version="1.1" xmlns="http://www.w3.org/2000/svg" xmlns:xlink="http://www.w3.org/1999/xlink">
    <!-- Generator: Sketch 46.2 (44496) - http://www.bohemiancoding.com/sketch -->
    <title>Group 13</title>
    <desc>Created with Sketch.</desc>
    <defs></defs>
    <g id="Welcome-Page" stroke="none" stroke-width="1" fill="none" fill-rule="evenodd">
        <g id="Sell-Page" transform="translate(-799.000000, -2570.000000)">
            <g id="Group-13" transform="translate(800.000000, 2571.000000)">
                <ellipse id="Oval-2-Copy-21" stroke="#CFA788" stroke-width="1.19999993" fill="#FAFAFA" cx="30.5244687" cy="31" rx="30.5244687" ry="31"></ellipse>
                <g id="noun_30376_cc" transform="translate(14.000000, 11.000000)" fill-rule="nonzero" fill="#CFA788">
                    <path d="M35,4.84583726 L35,32.9777981 C35,34.4570661 33.8024799,35.6611761 32.3318753,35.6611761 L9.05619741,35.6611761 C7.58520324,35.6611761 6.3876831,34.457458 6.3876831,32.9777981 L6.3876831,4.84583726 C6.3876831,3.3665693 7.58481368,2.16245929 9.05619741,2.16245929 L11.7254909,2.16245929 L11.3016451,3.05260702 L11.6974422,3.55823915 L9.05658697,3.55823915 C8.34991764,3.55823915 7.7757001,4.13599246 7.7757001,4.84583726 L7.7757001,32.9777981 C7.7757001,33.6876429 8.34991764,34.2653962 9.05658697,34.2653962 L32.3322648,34.2653962 C33.0385446,34.2653962 33.6127621,33.6872509 33.6127621,32.9777981 L33.6127621,4.84583726 C33.6127621,4.13599246 33.0385446,3.55823915 32.3322648,3.55823915 L29.38716,3.55823915 L29.797371,3.05260702 L29.4342972,2.16245929 L32.3318753,2.16245929 C33.8024799,2.16245929 35,3.3665693 35,4.84583726 Z M29.6006411,3.31679001 L28.2480744,0 L13.1423356,0 L11.5642113,3.31679001 L17.6523196,11.0874544 L20.1946151,7.12157382 L13.2833578,2.02723209 L28.3883175,2.02723209 L21.038411,7.28698217 L23.2881439,11.0878464 L29.6006411,3.31679001 Z M20.4789969,12.2480565 C19.7458372,12.2480565 19.1533102,12.8485437 19.1533102,13.5893535 C19.1533102,14.3325152 19.7458372,14.9326104 20.4789969,14.9326104 C21.2090401,14.9326104 21.8019567,14.3325152 21.8019567,13.5893535 C21.8015672,12.8489356 21.2090401,12.2480565 20.4789969,12.2480565 Z M20.4789969,21.5818689 C19.7458372,21.5818689 19.1533102,22.1823561 19.1533102,22.9231659 C19.1533102,23.6659356 19.7458372,24.2664228 20.4789969,24.2664228 C21.2090401,24.2664228 21.8019567,23.6659356 21.8019567,22.9231659 C21.8015672,22.1823561 21.2090401,21.5818689 20.4789969,21.5818689 Z M20.4766595,29.651601 C19.7434998,29.651601 19.1509728,30.2520881 19.1509728,30.992898 C19.1509728,31.7360597 19.7434998,32.3361548 20.4766595,32.3361548 C21.2067027,32.3361548 21.7996193,31.7360597 21.7996193,30.992898 C21.7992298,30.2520881 21.2067027,29.651601 20.4766595,29.651601 Z M30.374705,35.7156589 L30.374705,36.1472101 C30.374705,36.8570549 29.8000979,37.4344162 29.0938182,37.4344162 L5.81814033,37.4344162 C5.11186056,37.4344162 4.53764303,36.8566629 4.53764303,36.1472101 L4.53764303,8.01524922 C4.53764303,7.30540442 5.11186056,6.72765112 5.81814033,6.72765112 L6.36547794,6.72765112 L6.36547794,5.33187125 L5.81814033,5.33187125 C4.3467566,5.33187125 3.15001558,6.53598126 3.15001558,8.01524922 L3.15001558,36.1472101 C3.15001558,37.626478 4.34636704,38.830588 5.81814033,38.830588 L29.0938182,38.830588 C30.5652019,38.830588 31.7619429,37.62687 31.7619429,36.1472101 L31.7619429,35.7156589 L30.374705,35.7156589 Z M27.2246895,39.316622 C27.2246895,40.0264668 26.6504719,40.6038282 25.9438026,40.6038282 L2.66812475,40.6038282 C1.96184498,40.6038282 1.38762744,40.0260749 1.38762744,39.316622 L1.38762744,11.1842692 C1.38762744,10.4744244 1.96184498,9.89667112 2.66812475,9.89667112 L3.11690263,9.89667112 L3.11690263,8.50128321 L2.66812475,8.50128321 C1.19674102,8.50128321 0,9.70500126 0,11.1846612 L0,39.316622 C0,40.79589 1.19635145,42 2.66812475,42 L25.9438026,42 C27.4151863,42 28.6123169,40.796282 28.6123169,39.316622 L28.6123169,38.8799754 L27.2246895,38.8799754 L27.2246895,39.316622 Z M24.512544,40.6038282 L24.512544,42 L25.9001714,42 L25.9001714,40.6038282 L24.512544,40.6038282 Z" id="Shape"></path>
                </g>
            </g>
        </g>
    </g>
</svg>