<?xml version="1.0" encoding="utf-8"?>
<!-- Generator: Adobe Illustrator 21.1.0, SVG Export Plug-In . SVG Version: 6.00 Build 0)  -->
<svg version="1.1" id="Слой_1" xmlns="http://www.w3.org/2000/svg" xmlns:xlink="http://www.w3.org/1999/xlink" x="0px" y="0px"
	 viewBox="0 0 21.3 20.3" style="enable-background:new 0 0 21.3 20.3;" xml:space="preserve">
<style type="text/css">
	.st0{fill:#231F20;}
</style>
<title>star</title>
<path class="st0" d="M4.5,20.3c-0.1,0-0.3,0-0.4-0.1c-0.2-0.2-0.3-0.4-0.3-0.7L4.9,13L0.2,8.4C0,8.2,0,8,0,7.7
	c0.1-0.3,0.3-0.4,0.6-0.5l6.5-0.9L10,0.4C10.2,0.2,10.4,0,10.7,0h0c0.3,0,0.5,0.2,0.6,0.4l2.9,5.9l6.5,0.9c0.3,0,0.5,0.2,0.6,0.5
	c0.1,0.3,0,0.5-0.2,0.7L16.4,13l1.1,6.5c0,0.3-0.1,0.5-0.3,0.7s-0.5,0.2-0.7,0.1l-5.8-3.1l-5.8,3.1C4.7,20.3,4.6,20.3,4.5,20.3z
	 M2.2,8.4l4,3.9c0.2,0.2,0.2,0.4,0.2,0.6l-0.9,5.5l4.9-2.6c0.2-0.1,0.4-0.1,0.7,0l4.9,2.6l-0.9-5.5c0-0.2,0-0.5,0.2-0.6l4-3.9
	l-5.5-0.8c-0.2,0-0.4-0.2-0.5-0.4l-2.4-5l-2.5,5C8.1,7.4,7.9,7.6,7.7,7.6L2.2,8.4z"/>
</svg>
