<?xml version="1.0" encoding="UTF-8" standalone="no"?>
<svg width="107px" height="81px" viewBox="0 0 107 81" version="1.1" xmlns="http://www.w3.org/2000/svg" xmlns:xlink="http://www.w3.org/1999/xlink">
    <!-- Generator: Sketch 45.2 (43514) - http://www.bohemiancoding.com/sketch -->
    <title>Group 10</title>
    <desc>Created with Sketch.</desc>
    <defs></defs>
    <g id="Welcome-Page" stroke="none" stroke-width="1" fill="none" fill-rule="evenodd">
        <g id="Desktop" transform="translate(-124.000000, -897.000000)">
            <g id="Group-10" transform="translate(123.000000, 896.000000)">
                <g id="noun_774511_cc" transform="translate(28.970129, 2.970129)" fill-rule="nonzero" fill="#CFA788">
                    <g id="Group" transform="translate(-0.000000, 0.000000)">
                        <path d="M34.1372543,0.21596116 L0.21596116,0.21596116 L0.21596116,34.1372543 L44.7297771,78.6510702 L78.6510702,44.7297771 L34.1372543,0.21596116 Z M2.73799039,33.1284426 L2.73799039,2.86409185 L33.0023412,2.86409185 L74.9941279,44.8558785 L44.7297771,75.1202293 L2.73799039,33.1284426 Z" id="Shape"></path>
                        <path d="M17.8701658,11.5650927 C17.8701658,8.03425178 15.0959336,5.26001962 11.5650927,5.26001962 C8.03425178,5.26001962 5.26001962,8.03425178 5.26001962,11.5650927 C5.26001962,15.0959336 8.03425178,17.8701658 11.5650927,17.8701658 C15.0959336,17.8701658 17.8701658,15.0959336 17.8701658,11.5650927 Z M11.5650927,15.3481365 C9.42136785,15.3481365 7.78204885,13.7088175 7.78204885,11.5650927 C7.78204885,9.42136785 9.42136785,7.78204885 11.5650927,7.78204885 C13.7088175,7.78204885 15.3481365,9.42136785 15.3481365,11.5650927 C15.3481365,13.7088175 13.7088175,15.3481365 11.5650927,15.3481365 Z" id="Shape"></path>
                        <rect id="Rectangle-path" transform="translate(27.178181, 27.308621) rotate(-45.000000) translate(-27.178181, -27.308621) " x="12.046151" y="26.0476181" width="30.2640605" height="2.52200504"></rect>
                        <rect id="Rectangle-path" transform="translate(34.299042, 34.530590) rotate(-45.000000) translate(-34.299042, -34.530590) " x="19.1670122" y="33.2695875" width="30.2640605" height="2.52200504"></rect>
                        <rect id="Rectangle-path" transform="translate(41.420408, 41.575109) rotate(-45.000000) translate(-41.420408, -41.575109) " x="26.2883779" y="40.3141069" width="30.2640605" height="2.52200504"></rect>
                    </g>
                </g>
                <path d="M41.2614553,17.1502619 C36.5088735,-2.05499552 13.0186745,0.533335279 6.54546129,11.4229273 C-1.18856761,24.4335322 4.21187728,39.458238 20.6110907,42.6382627" id="Path-3" stroke="#CFA788" stroke-width="2.6" transform="translate(22.167405, 22.804175) rotate(-9.000000) translate(-22.167405, -22.804175) "></path>
            </g>
        </g>
    </g>
</svg>