<?xml version="1.0" encoding="utf-8"?>
<!-- Generator: Adobe Illustrator 21.1.0, SVG Export Plug-In . SVG Version: 6.00 Build 0)  -->
<svg version="1.1" id="Слой_1" xmlns="http://www.w3.org/2000/svg" xmlns:xlink="http://www.w3.org/1999/xlink" x="0px" y="0px"
	 viewBox="0 0 17 11.8" style="enable-background:new 0 0 17 11.8;" xml:space="preserve">
<style type="text/css">
	.st0{fill:#010101;}
</style>
<title>warranty</title>
<path class="st0" d="M13.4,9.7c0,0-0.1,0-0.1,0l-0.6-0.3l-0.6,0.3c-0.1,0.1-0.3,0-0.4-0.1c0,0,0,0,0,0L11.5,9l-0.6-0.1
	c-0.1,0-0.2-0.1-0.2-0.3c0,0,0,0,0,0L10.8,8l-0.4-0.4c-0.1-0.1-0.1-0.3,0-0.4c0,0,0,0,0,0l0.4-0.4l-0.1-0.6c0-0.1,0.1-0.3,0.2-0.3
	l0.6-0.1l0.3-0.6C11.9,5,12,5,12.2,5l0.6,0.3L13.3,5c0.1-0.1,0.3,0,0.4,0.1c0,0,0,0,0,0L14,5.7l0.6,0.1c0.1,0,0.2,0.1,0.2,0.3
	c0,0,0,0,0,0l-0.1,0.6l0.4,0.4c0.1,0.1,0.1,0.3,0,0.4c0,0,0,0,0,0L14.7,8l0.1,0.6c0,0.1-0.1,0.3-0.2,0.3L14,9l-0.3,0.6
	C13.6,9.7,13.5,9.7,13.4,9.7z M12.7,8.8c0,0,0.1,0,0.1,0l0.4,0.2l0.2-0.4c0-0.1,0.1-0.1,0.2-0.1l0.5-0.1l-0.1-0.5
	c0-0.1,0-0.2,0.1-0.2l0.4-0.4L14.2,7c-0.1-0.1-0.1-0.1-0.1-0.2l0.1-0.5l-0.5-0.1c-0.1,0-0.2-0.1-0.2-0.1l-0.2-0.4l-0.4,0.2
	c-0.1,0-0.2,0-0.2,0l-0.4-0.2L12,6c0,0.1-0.1,0.1-0.2,0.1l-0.5,0.1l0.1,0.5c0,0.1,0,0.2-0.1,0.2l-0.4,0.4l0.4,0.4
	c0.1,0.1,0.1,0.1,0.1,0.2l-0.1,0.5l0.5,0.1c0.1,0,0.2,0.1,0.2,0.1l0.2,0.4L12.7,8.8C12.7,8.9,12.7,8.8,12.7,8.8z"/>
<path class="st0" d="M16,11.8H1c-0.6,0-1-0.5-1-1V1c0-0.6,0.5-1,1-1c0,0,0,0,0,0h15c0.6,0,1,0.4,1,1l0,9.8
	C17,11.3,16.6,11.8,16,11.8L16,11.8z M1,1l0,9.8l15,0c0,0,0,0,0,0L16,1H1z"/>
<path class="st0" d="M14.9,3.1H2.4c-0.1,0-0.2-0.2-0.2-0.3c0-0.1,0.1-0.2,0.2-0.2h12.6c0.1,0,0.2,0.2,0.2,0.3
	C15.1,3,15,3.1,14.9,3.1z"/>
<path class="st0" d="M7.8,6.2H2.4C2.2,6.1,2.1,6,2.2,5.8c0-0.1,0.1-0.2,0.2-0.2h5.4C7.9,5.6,8,5.8,8,5.9C8,6,7.9,6.1,7.8,6.2z"/>
<path class="st0" d="M7.8,8.9H2.4c-0.1,0-0.2-0.2-0.2-0.3c0-0.1,0.1-0.2,0.2-0.2h5.4C7.9,8.4,8,8.6,8,8.7C8,8.8,7.9,8.9,7.8,8.9z"/>
</svg>
