<svg xmlns="http://www.w3.org/2000/svg" viewBox="0 0 180 70"><defs><style>.cls-1{fill:none;}.cls-2{fill:#303030;}</style></defs><title>apple-pay</title><g id="Слой_2" data-name="Слой 2"><g id="Layer_1" data-name="Layer 1"><rect class="cls-1" width="180" height="70"/><path class="cls-2" d="M55.63,18.41a6.71,6.71,0,0,1,5-2.75A6.89,6.89,0,0,1,59,20.71a5.3,5.3,0,0,1-4.69,2.17A5.68,5.68,0,0,1,55.63,18.41ZM49,23.33c-3.66,0-7.58,3.29-7.58,9.52s4.6,14.31,8.3,14.31C51,47.16,53,45.85,55,45.85s3.38,1.22,5.19,1.22c4,0,7-8.35,7-8.35a7,7,0,0,1-4.24-6.41,6.78,6.78,0,0,1,3.43-6,7.07,7.07,0,0,0-6.18-3.16c-2.57,0-4.56,1.44-5.6,1.44C53.29,24.68,51.44,23.33,49,23.33Z"/><path class="cls-2" d="M87,17.82a9,9,0,0,1,9.48,9.43c0,5.6-4,9.48-9.61,9.48H80.27v9.79H75.81V17.82ZM80.27,33h5.6C89.71,33,92,30.91,92,27.3s-2.21-5.73-6.09-5.73h-5.6Z"/><path class="cls-2" d="M97.38,40.34c0-3.79,2.93-6,8.26-6.32l5.82-.32V32c0-2.48-1.67-3.84-4.51-3.84-2.35,0-4.06,1.22-4.42,3.07h-4c.14-3.84,3.75-6.63,8.57-6.63,5.28,0,8.67,2.8,8.67,7v14.8h-4.11V42.87h-.09a7.55,7.55,0,0,1-6.81,3.84C100.36,46.75,97.38,44.18,97.38,40.34Zm14.08-1.94V36.73l-5.24.36c-2.93.18-4.47,1.26-4.47,3.2s1.62,3,4.11,3C109,43.28,111.46,41.24,111.46,38.4Z"/><path class="cls-2" d="M120.44,54.24V50.72a6.61,6.61,0,0,0,1.35.09c2,0,3.2-.86,3.93-3.16l.32-1.13-7.85-21.66h4.65l5.55,17.65h.09L134,24.86h4.51l-8.08,22.61c-1.85,5.19-3.88,6.86-8.3,6.86A11.21,11.21,0,0,1,120.44,54.24Z"/></g></g></svg>