<svg xmlns="http://www.w3.org/2000/svg" viewBox="0 0 53.09 56"><defs><style>.cls-1{fill:#989898;}</style></defs><title>bulb-idea</title><g id="Слой_2" data-name="Слой 2"><g id="Layer_1" data-name="Layer 1"><path class="cls-1" d="M26.55,12.14a14.18,14.18,0,0,0-13,8.06c-2.63,5.6-1.44,12.28,3.18,17.87a9.09,9.09,0,0,1,1.43,4.29c.38,2.29.85,5.14,3.94,5.14h9c3.09,0,3.56-2.85,3.94-5.14a9.09,9.09,0,0,1,1.43-4.29C41,32.49,42.22,25.81,39.58,20.2A14.18,14.18,0,0,0,26.55,12.14Zm8,24.41A11,11,0,0,0,32.62,42c-.43,2.62-.7,3.15-1.59,3.15h-9c-.89,0-1.16-.53-1.59-3.15a11,11,0,0,0-1.95-5.42c-4-4.85-5.09-10.59-2.86-15.33a11.67,11.67,0,0,1,10.88-6.7,11.67,11.67,0,0,1,10.88,6.7C39.66,26,38.59,31.69,34.57,36.55Z"/><path class="cls-1" d="M26.55,8.45a1.19,1.19,0,0,0,1.19-1.19V1.19a1.19,1.19,0,0,0-2.38,0V7.26A1.19,1.19,0,0,0,26.55,8.45Z"/><path class="cls-1" d="M15.87,10.44a1.19,1.19,0,0,0,2.06-1.19L14.9,4a1.19,1.19,0,1,0-2.06,1.19Z"/><path class="cls-1" d="M4,14.9l5.26,3a1.19,1.19,0,0,0,1.19-2.06l-5.26-3A1.19,1.19,0,1,0,4,14.9Z"/><path class="cls-1" d="M49.1,38.19l-5.26-3a1.19,1.19,0,0,0-1.19,2.06l5.26,3a1.19,1.19,0,0,0,1.19-2.06Z"/><path class="cls-1" d="M8.45,26.55a1.19,1.19,0,0,0-1.19-1.19H1.19a1.19,1.19,0,0,0,0,2.38H7.26A1.19,1.19,0,0,0,8.45,26.55Z"/><path class="cls-1" d="M51.9,25.36H45.83a1.19,1.19,0,0,0,0,2.38H51.9a1.19,1.19,0,1,0,0-2.38Z"/><path class="cls-1" d="M9.25,35.16,4,38.19a1.19,1.19,0,0,0,1.19,2.06l5.26-3a1.19,1.19,0,1,0-1.19-2.06Z"/><path class="cls-1" d="M43.25,18.1a1.19,1.19,0,0,0,.59-.16l5.26-3a1.19,1.19,0,0,0-1.19-2.06l-5.26,3a1.19,1.19,0,0,0,.6,2.22Z"/><path class="cls-1" d="M35.59,10.88a1.19,1.19,0,0,0,1.63-.44l3-5.26A1.19,1.19,0,1,0,38.19,4l-3,5.26A1.19,1.19,0,0,0,35.59,10.88Z"/><path class="cls-1" d="M31.93,49.37H21.16a1.19,1.19,0,1,0,0,2.38H31.93a1.19,1.19,0,1,0,0-2.38Z"/><path class="cls-1" d="M29.63,53.62H23.46a1.19,1.19,0,0,0,0,2.38h6.17a1.19,1.19,0,1,0,0-2.38Z"/></g></g></svg>