<?xml version="1.0" encoding="utf-8"?>
<!-- Generator: Adobe Illustrator 21.1.0, SVG Export Plug-In . SVG Version: 6.00 Build 0)  -->
<svg version="1.1" id="Слой_1" xmlns="http://www.w3.org/2000/svg" xmlns:xlink="http://www.w3.org/1999/xlink" x="0px" y="0px"
	 viewBox="0 0 270 59.8" style="enable-background:new 0 0 270 59.8;" xml:space="preserve">
<style type="text/css">
	.st0{fill:#FFFFFF;}
</style>
<title>logo</title>
<g id="Слой_2">
	<g id="Слой_1-2">
		<g id="L2">
			<path class="st0" d="M200.4,1.1v1.5h5v38.8h-5v1.5h31.9c0,0,0.6-6.1,0.8-9c0.1-1.1,0.4-4.2,0.4-4.2h-1.7c-0.6,2.9-1.9,5.7-3.8,8
				c-1.6,2-3.9,3.2-6.4,3.4c-2.4,0.2-7.5,0.2-7.5,0.2V2.6h5V1.1H200.4z"/>
		</g>
		<g id="L1">
			<path class="st0" d="M164.4,1.1v1.5h5v38.8h-5v1.5h31.9c0,0,0.5-6.1,0.8-9c0.1-1.1,0.4-4.2,0.4-4.2h-1.7c-0.6,2.9-1.9,5.7-3.8,8
				c-1.6,2-3.9,3.2-6.4,3.4c-2.4,0.2-7.5,0.2-7.5,0.2V2.6h5V1.1H164.4z"/>
		</g>
		<g id="O">
			<path class="st0" d="M16.8,41.8c-2.4-0.9-4.2-2.9-4.9-5.3c-0.8-2.4-1.2-4.9-1.2-7.4c-0.1-3.7-0.2-7.4-0.1-11.1
				c-0.1-3.3,0.3-6.7,1.2-9.9c1-3.1,2.9-5.4,6.2-6c2.1-0.5,4.3-0.4,6.4,0.3c2.9,1.1,4.3,3.4,5.1,6.2c0.6,2.3,0.9,4.8,1,7.2
				c0.1,2.1,0,5.2,0,6.3s-0.1,6.8-0.4,10.1c-0.1,2.1-0.7,4.2-1.8,6.1c-1.1,2.1-3.2,3.5-5.5,3.9c-0.8,0.1-1.6,0.2-2.5,0.2
				C19.1,42.4,17.9,42.2,16.8,41.8 M19,0.1C14.3,0.4,9.8,2.4,6.4,5.8c-1.6,1.7-3,3.6-4.1,5.8C-2.2,20.9-0.1,33,8,39.7
				c2.8,2.3,6.1,3.7,9.7,4.1c3.3,0.4,6.6,0.1,9.7-1c2.6-0.9,5-2.5,7-4.5c3.2-3.2,5.4-7.2,6.2-11.6c0.6-3,0.6-6,0.1-9
				C39,7.8,30.6,0,20.5,0C20,0,19.5,0,19,0.1"/>
		</g>
		<g id="S">
			<path class="st0" d="M55.9,0.4c-2.6,0.6-4.9,2.1-6.6,4.2C47,7.4,46,11.1,46.5,14.8c0.5,4.4,2.7,7.5,7,9c3.3,1.1,6.6,2.2,9.9,3.2
				c1.5,0.4,2.9,1.2,4,2.3c2.7,3,2.6,7.5-0.3,10.3c-2.9,2.9-6.4,3.4-10.1,2.2s-6.2-3.9-7.7-7.4c-0.4-1-0.7-2-1.1-3h-1.6V43h1.6
				c0,0,2-2.6,2-2.6l1.2,0.8c3.4,2.3,7.5,3.3,11.6,2.7c3.9-0.5,7.4-2.8,9.4-6.2c2.3-3.7,2.8-8.4,1.3-12.5c-0.9-3.3-3.4-5.9-6.7-7.1
				c-2.2-0.8-4.5-1.4-6.7-2.2c-2-0.6-3.9-1.2-5.8-2c-4.2-1.9-4.3-7.5-1-10.3c2.8-2.5,7.4-2.5,10.3-0.7c2.4,1.5,4.1,3.8,4.8,6.4
				c0.3,1,0.5,2,0.7,2.9H71V1.1h-1.6c0,0-1.4,1.5-1.8,1.9c-0.8-0.6-1.6-1.1-2.5-1.6c-1.4-0.7-3-1.2-4.7-1.4C60,0,59.6,0,59.2,0
				C58.1,0,57,0.1,55.9,0.4"/>
		</g>
		<g id="K1">
			<polygon class="st0" points="79,1.1 79,2.6 84,2.6 84,41.4 79,41.4 79,42.9 97.8,42.9 97.8,41.4 92.8,41.4 92.8,2.6 97.8,2.6 
				97.8,1.1 			"/>
		</g>
		<g id="K2">
			<path class="st0" d="M103.7,1.1v1.5c1.3,0,2.6,0,3.9,0c0.5,0,1,0.2,1.4,0.5c0.4,0.5-0.2,1-0.6,1.5c-3.8,4.1-7.6,8.3-11.4,12.4
				l-3.8,4.2l13.8,20.3h-4.9V43h18.5v-1.5h-3l-13.5-19.9l-3.7-5.4c1-1.1,8.5-9,11.3-11.9c0.8-0.9,1.9-1.4,3.1-1.5
				c0.9-0.1,1.9-0.1,2.8-0.1V1.1H103.7z"/>
		</g>
		<g id="E">
			<path class="st0" d="M123.8,1.1v1.6h5v38.8h-5v1.5h34.4l0.9-13.2h-1.6c-0.4,1.3-0.7,2.7-1.1,3.9c-1.5,4.6-4.5,7.5-9.6,7.6
				c-3,0.1-5.9,0.1-8.9,0.2c-0.1,0-0.2,0-0.2-0.1V22.4c1.3,0.1,2.5,0.1,3.8,0.2c2.6,0,4.9,2,5.1,4.6c0.2,1.1,0.3,2.2,0.5,3.3h1.6
				v-17H147c-0.1,0.7-0.1,1.4-0.2,2.1c-0.3,2.1-1.1,3.8-3.1,4.6c-1.6,0.6-3.3,0.8-5,0.6h-1V2.6c3.6,0.1,7.1,0,10.6,0.2
				c3,0.1,5.6,2.1,6.6,4.9c0.5,1.3,0.9,2.6,1.3,4h1.6l-0.9-10.6L123.8,1.1z"/>
		</g>
		<g id="Y">
			<path class="st0" d="M230.6,1.1v1.6h3.9l12.1,21v17.8H241V43h20v-1.6h-5.6V23.6c0,0,6-12,9-17.7c0.3-0.6,0.6-1.2,1-1.8
				c0.5-0.8,1.3-1.3,2.2-1.4c0.8-0.1,1.6-0.1,2.4-0.2V1.1h-12v1.5c1.1,0,4,0.1,4.5,0.1c0.4,0,0.7,0.3,0.8,0.7c0,0.1,0,0.2-0.1,0.3
				c-0.1,0.6-0.3,1.2-0.6,1.7c-2.4,5-7.7,15.5-7.7,15.5L244.6,2.6h5.3V1.1H230.6z"/>
		</g>
		<g id="logo_bottom">
			<polygon class="st0" points="1.3,52.6 2.2,52.6 2.2,58.9 5.3,58.9 5.3,59.7 1.3,59.7 			"/>
			<path class="st0" d="M16,52.6v4.2c0,1.6,0.7,2.3,1.7,2.3s1.7-0.7,1.7-2.3v-4.2h0.9v4.2c0,2.2-1.1,3.1-2.7,3.1s-2.6-0.8-2.6-3
				v-4.2L16,52.6z"/>
			<path class="st0" d="M34.9,59.7L34,58.1c-0.4-0.6-0.6-1-0.8-1.4l0,0c-0.2,0.4-0.4,0.8-0.8,1.4l-0.9,1.6h-1l2.2-3.6l-2.1-3.5h1.1
				l0.9,1.7c0.3,0.5,0.5,0.8,0.7,1.2l0,0c0.2-0.4,0.4-0.8,0.6-1.2l1-1.7H36L33.8,56l2.2,3.7H34.9z"/>
			<path class="st0" d="M47.1,52.6v4.2c0,1.6,0.7,2.3,1.7,2.3s1.7-0.7,1.7-2.3v-4.2h0.9v4.2c0,2.2-1.2,3.1-2.7,3.1s-2.6-0.8-2.6-3
				v-4.2L47.1,52.6z"/>
			<path class="st0" d="M62.2,52.7c0.6-0.1,1.2-0.2,1.8-0.2c0.7-0.1,1.5,0.1,2.1,0.6c0.4,0.3,0.6,0.8,0.6,1.3c0,0.8-0.5,1.6-1.3,1.8
				l0,0c0.6,0.3,0.9,0.8,1,1.4c0.1,0.7,0.3,1.4,0.6,2h-1c-0.2-0.6-0.3-1.1-0.4-1.7c-0.2-1-0.6-1.3-1.4-1.4h-0.9v3.1h-0.9L62.2,52.7z
				 M63.1,55.9H64c1,0,1.6-0.5,1.6-1.3S65,53.2,64,53.2c-0.3,0-0.6,0-0.9,0.1L63.1,55.9z"/>
			<path class="st0" d="M78.5,59.7v-3l-2.2-4.1h1l1,2c0.3,0.5,0.5,1,0.7,1.5l0,0c0.2-0.5,0.4-0.9,0.7-1.5l1-2h1l-2.4,4.1v3
				L78.5,59.7z"/>
			<path class="st0" d="M103.1,52.7c0.6-0.1,1.2-0.2,1.8-0.2c0.7-0.1,1.5,0.1,2.1,0.6c0.4,0.3,0.6,0.8,0.6,1.3
				c0,0.8-0.5,1.6-1.3,1.8l0,0c0.6,0.3,0.9,0.8,1,1.4c0.1,0.7,0.3,1.4,0.6,2h-1c-0.2-0.5-0.4-1.1-0.5-1.7c-0.2-1-0.6-1.3-1.4-1.4
				h-0.9v3.1H103L103.1,52.7z M104,55.9h1c1,0,1.6-0.5,1.6-1.3s-0.7-1.3-1.6-1.3c-0.3,0-0.6,0-0.9,0.1L104,55.9z"/>
			<polygon class="st0" points="121.6,56.3 118.9,56.3 118.9,58.9 122,58.9 122,59.7 118,59.7 118,52.6 121.8,52.6 121.8,53.3 
				118.9,53.3 118.9,55.6 121.6,55.6 			"/>
			<path class="st0" d="M132.2,58.6c0.5,0.3,1.1,0.5,1.6,0.5c0.9,0,1.5-0.5,1.5-1.2s-0.4-1-1.3-1.4c-1.2-0.4-1.9-1-1.9-2
				c0-1.1,0.9-2,2-2c0.1,0,0.2,0,0.3,0c0.5,0,1.1,0.1,1.6,0.3l-0.2,0.8c-0.4-0.2-0.9-0.3-1.4-0.3c-1,0-1.3,0.6-1.3,1.1
				c0,0.7,0.4,1,1.4,1.4c1.2,0.5,1.8,1,1.8,2.1s-0.8,2-2.5,2c-0.6,0-1.3-0.2-1.8-0.5L132.2,58.6z"/>
			<path class="st0" d="M147.8,57.5l-0.7,2.2h-1l2.4-7.1h1.1l2.4,7.1h-1l-0.8-2.2H147.8z M150.1,56.7l-0.7-2
				c-0.2-0.5-0.3-0.9-0.4-1.3l0,0c-0.1,0.4-0.2,0.9-0.4,1.3l-0.7,2.1L150.1,56.7z"/>
			<polygon class="st0" points="162.2,52.6 163.2,52.6 163.2,58.9 166.2,58.9 166.2,59.7 162.2,59.7 			"/>
			<polygon class="st0" points="180.1,56.3 177.3,56.3 177.3,58.9 180.4,58.9 180.4,59.7 176.4,59.7 176.4,52.6 180.2,52.6 
				180.2,53.3 177.3,53.3 177.3,55.6 180.1,55.6 			"/>
			<path class="st0" d="M202,58.6c0.5,0.3,1.1,0.5,1.6,0.5c0.9,0,1.5-0.5,1.5-1.2s-0.4-1-1.3-1.4c-1.2-0.4-1.9-1-1.9-2
				c0-1.1,0.9-2,2-2c0.1,0,0.2,0,0.3,0c0.5,0,1.1,0.1,1.6,0.3l-0.2,0.8c-0.4-0.2-0.9-0.3-1.4-0.3c-1,0-1.3,0.6-1.3,1.1
				c0,0.7,0.4,1,1.4,1.4c1.2,0.5,1.8,1,1.8,2.1s-0.8,2-2.5,2c-0.6,0-1.3-0.2-1.8-0.5L202,58.6z"/>
			<polygon class="st0" points="217.8,53.3 215.6,53.3 215.6,52.6 220.9,52.6 220.9,53.3 218.7,53.3 218.7,59.7 217.8,59.7 			"/>
			<path class="st0" d="M236.6,56c0,2.5-1.5,3.8-3.3,3.8s-3.2-1.5-3.2-3.6s1.4-3.7,3.3-3.7S236.6,53.9,236.6,56 M231.1,56.2
				c0,1.5,0.8,2.9,2.3,2.9s2.3-1.3,2.3-3c0-1.4-0.7-2.9-2.3-2.9S231.1,54.6,231.1,56.2"/>
			<path class="st0" d="M247,52.7c0.6-0.1,1.2-0.2,1.8-0.2c0.7-0.1,1.5,0.1,2.1,0.6c0.4,0.3,0.6,0.8,0.6,1.3c0,0.9-0.6,1.6-1.4,1.8
				l0,0c0.6,0.3,0.9,0.8,1,1.4c0.1,0.7,0.3,1.4,0.6,2h-1c-0.2-0.5-0.4-1.1-0.5-1.7c-0.2-1-0.6-1.3-1.4-1.4h-0.9v3.1H247V52.7z
				 M247.9,55.9h0.9c1,0,1.6-0.5,1.6-1.3s-0.7-1.3-1.6-1.3c-0.3,0-0.6,0-0.9,0.1V55.9z"/>
			<polygon class="st0" points="265.5,56.3 262.7,56.3 262.7,58.9 265.8,58.9 265.8,59.7 261.8,59.7 261.8,52.6 265.6,52.6 
				265.6,53.3 262.7,53.3 262.7,55.6 265.5,55.6 			"/>
		</g>
	</g>
</g>
</svg>
