<?xml version="1.0" encoding="UTF-8"?>
<svg width="69px" height="17px" viewBox="0 0 69 17" version="1.1" xmlns="http://www.w3.org/2000/svg" xmlns:xlink="http://www.w3.org/1999/xlink">
    <!-- Generator: Sketch 42 (36781) - http://www.bohemiancoding.com/sketch -->
    <title>social_apps</title>
    <desc>Created with Sketch.</desc>
    <defs>
        <rect id="path-1" x="18" y="7" width="7" height="1" rx="0.5"></rect>
        <mask id="mask-2" maskContentUnits="userSpaceOnUse" maskUnits="objectBoundingBox" x="0" y="0" width="7" height="1" fill="white">
            <use xlink:href="#path-1"></use>
        </mask>
        <rect id="path-3" x="45" y="7" width="7" height="1" rx="0.5"></rect>
        <mask id="mask-4" maskContentUnits="userSpaceOnUse" maskUnits="objectBoundingBox" x="0" y="0" width="7" height="1" fill="white">
            <use xlink:href="#path-3"></use>
        </mask>
    </defs>
    <g id="Page-1" stroke="none" stroke-width="1" fill="none" fill-rule="evenodd">
        <g id="social_apps" transform="translate(-1.000000, 0.000000)">
            <g id="Group" opacity="0.4" fill-rule="nonzero">
                <g id="telegram" transform="translate(54.000000, 0.000000)" fill="#040706">
                    <path d="M11.3153,4.0055 C11.2062623,3.93386624 11.0657451,3.93133685 10.9542,3.999 L2.4306,8.3174 C2.32092937,8.35296245 2.2515979,8.46098166 2.26494048,8.57549939 C2.27828306,8.69001712 2.37059116,8.77920354 2.4855,8.7886 L5.1735,9.4386 L6.6342,11.7217 C6.68828838,11.8132357 6.78534084,11.8708488 6.8916,11.8745 L6.8952,11.8745 C7.00033844,11.8723601 7.09726416,11.8171997 7.1528,11.7279 L8.2034,10.17 L10.1,10.6283 C10.1211748,10.6334797 10.1429009,10.6360654 10.1647,10.636 C10.2979336,10.6367153 10.4116786,10.5399301 10.4323,10.4083 L11.4303,4.3478 C11.4612602,4.22106703 11.4164984,4.08783259 11.3153,4.0055 L11.3153,4.0055 Z M2.85,8.507 L10.1058,4.831 L5.2376,9.0844 L2.85,8.507 Z M6.7462,9.557 L6.7449,9.559 L6.741,9.5648 L6.7326,9.5788 L6.7262,9.5897 L6.724,9.595 L6.7186,9.6099 L6.7139,9.6236 L6.7132,9.6258 L6.7127,9.629 L6.7106,9.643 L6.7087,9.6583 L6.7087,9.6656 L6.7087,9.6684 L6.7138,11.1784 L5.52,9.3141 L9.9933,5.4055 L6.7462,9.557 Z M7.072,11.2065 L7.0676,9.8957 L7.8316,10.0804 L7.072,11.2065 Z M10.0941,10.258 L7.2,9.5587 L11.011,4.6867 L10.0941,10.258 Z" id="Shape" stroke="#040706" stroke-width="0.3"></path>
                    <path d="M7.5931,15.1014 C4.53912693,15.1014 1.78586771,13.261731 0.617162814,10.4402278 C-0.551542084,7.61872458 0.0944637586,4.3710339 2.25394883,2.21154883 C4.4134339,0.0520637586 7.66112458,-0.593942084 10.4826278,0.574762814 C13.304131,1.74346771 15.1438,4.49672693 15.1438,7.5507 C15.1390607,11.7188718 11.7612718,15.0966607 7.5931,15.1014 Z M7.5931,0.963 C3.95481375,0.963 1.0054,3.91241375 1.0054,7.5507 C1.0054,11.1889862 3.95481375,14.1384 7.5931,14.1384 C11.2313862,14.1384 14.1808,11.1889862 14.1808,7.5507 C14.1766669,3.91412713 11.2296729,0.967133131 7.5931,0.963 L7.5931,0.963 Z" id="Shape"></path>
                </g>
                <g id="viber" transform="translate(27.000000, 0.000000)" fill="#000000">
                    <path d="M6.9377,0.1806 L8.7285,0.1806 C8.75211635,0.194214812 8.77767976,0.204129906 8.8043,0.21 C8.9562,0.2187 9.1086,0.2207 9.2604,0.2306 C9.4375,0.2421 9.6141,0.2599 9.791,0.2737 C9.8612092,0.274255409 9.9312007,0.281589446 10,0.2956 C10.1133547,0.31869439 10.2279946,0.334957026 10.3433,0.3443 C10.4381,0.3578 10.5325,0.3743 10.6269,0.3902 C10.7118,0.4048 10.7969,0.4197 10.8812,0.4368 C10.9876,0.4584 11.0936,0.4818 11.1995,0.5056 C11.2986,0.5279 11.3976,0.5508 11.4962,0.5756 C11.6187,0.6056 11.7425,0.6329 11.8628,0.6706 C12.0611,0.7327 12.2589,0.7972 12.4533,0.8706 C12.6121,0.9306 12.7669,1.0015 12.9212,1.0725 C13.0636,1.1381 13.2065,1.2039 13.3427,1.2812 C13.4903,1.365 13.6335,1.4575 13.7727,1.5548 C13.8963799,1.63832814 14.0138229,1.73073843 14.1241,1.8313 C14.2654,1.9646 14.3948,2.1108 14.5264,2.2542 C14.5700481,2.30489414 14.6103977,2.35833731 14.6472,2.4142 C14.7017,2.4917 14.7557,2.5697 14.8072,2.6494 C14.8535,2.7213 14.8999,2.7936 14.939,2.8694 C15.0321,3.05 15.1217,3.2323 15.2109,3.4148 C15.2458628,3.48454401 15.2771392,3.55607583 15.3046,3.6291 C15.3402,3.727 15.3694,3.8273 15.401,3.9266 C15.4293,4.0157 15.4584,4.1046 15.4849,4.1943 C15.5049,4.2626 15.5215,4.332 15.5399,4.4007 C15.5673,4.5028 15.5981,4.6042 15.6217,4.7072 C15.6427,4.7989 15.655,4.8925 15.6725,4.985 C15.6908,5.0818 15.7131,5.1779 15.729,5.275 C15.7436,5.3645 15.7511,5.455 15.7631,5.545 C15.7824,5.6897 15.8042,5.834 15.8223,5.9788 C15.8329,6.0638 15.8418,6.1488 15.8455,6.2348 C15.8555,6.454 15.8624,6.6733 15.8686,6.8926 C15.8713,6.9894 15.8678,7.0864 15.8704,7.1832 C15.8745199,7.20675838 15.8820312,7.22959559 15.8927,7.251 L15.8927,7.5068 C15.8822863,7.52793245 15.8747525,7.55036557 15.8703,7.5735 C15.8762716,7.82588792 15.8693627,8.07841615 15.8496,8.3301 C15.8288,8.462 15.832,8.5976 15.8227,8.7314 C15.8169,8.815 15.8079,8.8983 15.8008,8.9814 C15.7925,9.0786 15.7808,9.1757 15.7774,9.273 C15.780482,9.40426444 15.7664301,9.53537024 15.7356,9.663 C15.7178944,9.75126128 15.7084867,9.84098573 15.7075,9.931 C15.7007,9.9993 15.6922,10.0675 15.6845,10.1357 C15.6796,10.1794 15.6773,10.2236 15.6691,10.2666 C15.6561,10.3349 15.6391,10.4024 15.6236,10.4702 C15.6113,10.5232 15.5982,10.5761 15.5851,10.629 C15.5678,10.699 15.5498,10.7679 15.5326,10.8375 C15.5154,10.9071 15.5015,10.9808 15.4797,11.0505 C15.4547,11.1305 15.4225,11.208 15.3933,11.2866 C15.3333,11.4487 15.2801,11.614 15.2101,11.7717 C15.1469,11.914 15.0654,12.0482 14.9914,12.1857 C14.8563333,12.4299645 14.697318,12.6601966 14.5167,12.873 C14.413,12.9981 14.2875,13.105 14.1738,13.2219 C14.0148758,13.3842491 13.8384297,13.5284646 13.6477,13.6519 C13.5195,13.7356 13.3924,13.8226 13.2569,13.8931 C13.0663,13.9922 12.8695,14.0796 12.6733,14.1673 C12.5872,14.2058 12.4965,14.2341 12.407,14.2645 C12.3586,14.2809 12.3084,14.292 12.259,14.3057 C12.1286667,14.3416333 11.9983333,14.3776333 11.868,14.4137 C11.8263,14.4253 11.7846,14.4372 11.7432,14.4498 C11.6572,14.476 11.5723,14.5063 11.4853,14.5284 C11.4036,14.5491 11.3198,14.5612 11.237,14.5775 C11.1979,14.5852 11.1587,14.5929 11.1199,14.6019 C11.0618,14.6155 11.0043,14.6319 10.946,14.6442 C10.885,14.6569 10.823,14.6651 10.7617,14.6768 C10.6988,14.6888 10.6367,14.7057 10.5734,14.7146 C10.5072,14.7239 10.4398,14.7246 10.3734,14.7318 C10.3128,14.7382 10.2523,14.7457 10.1924,14.7565 C10.1092,14.7714 10.0273,14.7947 9.9437,14.8055 C9.8151,14.8222 9.6856,14.8314 9.5564,14.8435 C9.4712,14.8515 9.3864,14.8605 9.3008,14.8665 C9.1863,14.8746 9.0725,14.8665 8.9566,14.8858 C8.79626409,14.9037311 8.63486946,14.9104141 8.4736,14.9058 C8.12843339,14.9257633 7.78229528,14.9216533 7.4377,14.8935 C7.2416,14.871 7.0425,14.8758 6.8448,14.8658 C6.7806,14.8626 6.7169,14.849 6.6527,14.8458 C6.6306764,14.847868 6.61039924,14.8586729 6.5964,14.8758 C6.5348,14.9492 6.4786,15.0271 6.4164,15.0998 C6.3164,15.2162 6.2138,15.3298 6.1114,15.4444 C5.9624,15.6105333 5.81286667,15.7761667 5.6628,15.9413 C5.6213,15.9868 5.5728,16.0261 5.5321,16.0723 C5.4409,16.1756 5.3546,16.2834 5.2621,16.3857 C5.1908,16.4646 5.1143,16.539 5.0382,16.6134 C4.94438979,16.7175641 4.82726665,16.7980563 4.6964,16.8483 C4.67114072,16.8594758 4.64716735,16.8733569 4.6249,16.8897 L4.3226,16.8897 C4.30919691,16.8808139 4.29500359,16.8731816 4.2802,16.8669 C4.1868586,16.844004 4.10419315,16.7897879 4.046,16.7133 C3.99811357,16.6426333 3.95870927,16.566577 3.9286,16.4867 C3.89586782,16.4068651 3.8766389,16.322143 3.8717,16.236 C3.8663,15.7729 3.8691,15.3097 3.8691,14.8465 C3.8691,14.705 3.8678,14.5635 3.8699,14.4221 C3.87436003,14.3883138 3.85384034,14.3562254 3.8213,14.3461 C3.6974,14.3053 3.5713,14.2713 3.4487,14.2261 C3.2887,14.1671 3.1302,14.1039 2.9743,14.0351 C2.8682,13.9883 2.7678,13.9285 2.6643,13.8751 C2.44561649,13.7618131 2.2396498,13.6255077 2.0499,13.4685 C1.87381064,13.3291434 1.70887566,13.176245 1.5566,13.0112 C1.40892492,12.8500301 1.27066229,12.6804822 1.1425,12.5034 C1.05090854,12.3766024 0.968146578,12.2436554 0.8948,12.1055 C0.7776,11.8755 0.6731,11.638 0.5669,11.4021 C0.527610104,11.3123391 0.49286609,11.2206563 0.4628,11.1274 C0.4344,11.0424 0.4128,10.9551 0.3888,10.8686 C0.3508,10.7291333 0.313433333,10.5895333 0.2767,10.4498 C0.2667,10.4133 0.2605,10.3759 0.252,10.3391 C0.2387,10.2815 0.2235,10.2242 0.212,10.1663 C0.1983,10.0995 0.1869,10.0323 0.1754,9.9651 C0.1621,9.8874 0.1474,9.8098 0.1378,9.7316 C0.1292,9.6616 0.1296,9.5897 0.1207,9.5193 C0.1093,9.4293 0.0907,9.3401 0.0787,9.25 C0.0687,9.1706 0.061,9.0907 0.0555,9.0108 C0.0463,8.8771 0.0355,8.7433 0.033,8.6094 C0.029,8.4215 0.0319,8.2335 0.03,8.0455 C0.0260026178,8.02709692 0.0186828927,8.00957702 0.0084,7.9938 L0.0084,7.5638 C0.0186821269,7.54536243 0.026100281,7.52546829 0.0304,7.5048 C0.0453,7.1833 0.0083,6.8608 0.0524,6.5394 C0.0521663048,6.40905133 0.0598806181,6.27880968 0.0755,6.1494 C0.0904686593,6.06350944 0.098660572,5.97657485 0.1,5.8894 C0.1072,5.8118 0.1172,5.7344 0.1229,5.6566 C0.121821981,5.53668883 0.136377921,5.41714859 0.1662,5.301 C0.189639357,5.20675602 0.205193058,5.11072446 0.2127,5.0139 C0.2287,4.9132 0.2427,4.8121 0.264,4.7124 C0.288,4.5984 0.3186,4.4858 0.3463,4.3724 C0.3628,4.3049 0.3763,4.2364 0.3963,4.1703 C0.4221,4.088 0.454,4.0076 0.4834,3.9264 C0.541,3.7664 0.5916,3.6043 0.6582,3.4486 C0.7255,3.2911 0.8082,3.1402 0.8851,2.9868 C0.994716877,2.76423559 1.1291366,2.55477296 1.2858,2.3624 C1.3967,2.228 1.5087,2.0943 1.6258,1.9653 C1.69693393,1.88925601 1.77264125,1.81762293 1.8525,1.7508 C1.9242,1.689 1.9999,1.6314 2.0773,1.5769 C2.1566,1.5211 2.2387,1.469 2.322,1.4192 C2.4641,1.3344 2.6046,1.246 2.752,1.1714 C2.932,1.0803 3.1175,1.0005 3.302,0.9184 C3.3826,0.8825 3.4653,0.8506 3.5485,0.821 C3.653,0.7837 3.7591,0.751 3.8642,0.7155 C3.9393,0.69 4.0129,0.6596 4.0889,0.6372 C4.1699,0.6133 4.2527,0.5949 4.3353,0.5767 C4.449,0.5516 4.5636,0.5307 4.677,0.5045 C4.7986,0.4763 4.9187,0.4419 5.0404,0.4145 C5.1244,0.3953 5.2104,0.3822 5.2949,0.3675 C5.3874,0.3515 5.4796,0.3317 5.5728,0.3228 C5.68802521,0.314199391 5.80267383,0.299108774 5.9162,0.2776 C6.05171111,0.254040209 6.1887204,0.240105362 6.3262,0.2359 C6.4916,0.2252 6.6573,0.2208 6.8229,0.2133 C6.84806865,0.213220154 6.87317583,0.210809864 6.8979,0.2061 C6.91243981,0.199773405 6.92587573,0.191164961 6.9377,0.1806 L6.9377,0.1806 Z M4.2863,14.7884 C4.2863,15.2632 4.2858,15.7384 4.2874,16.2129 C4.28872768,16.2487755 4.29758609,16.2839706 4.3134,16.3162 C4.335,16.3627 4.4203,16.4126 4.4543,16.401 C4.5360437,16.3814664 4.61100814,16.3402533 4.6713,16.2817 C4.7389,16.205 4.812,16.1332 4.8813,16.0576 C4.9549,15.9769 5.0261,15.8939 5.099,15.8125 C5.1311,15.7767 5.1662,15.7434 5.1976,15.707 C5.3117,15.5747 5.4243,15.4411 5.5387,15.3091 C5.6116,15.225 5.6887,15.1445 5.7607,15.0591 C5.862,14.9391 5.9596,14.8163 6.0598,14.6955 C6.1418,14.5966 6.2255,14.4991 6.3078,14.4004 C6.4242,14.2608667 6.54023333,14.1210667 6.6559,13.981 C6.7281,13.8939 6.7995,13.8062 6.8732,13.7204 C6.88584246,13.709329 6.9023218,13.7036564 6.9191,13.7046 C6.9804,13.7068 7.0415,13.7154 7.1028,13.7161 C7.2733,13.718 7.4439,13.7198 7.6144,13.7169 C8.07136344,13.7309465 8.52875536,13.7192279 8.9844,13.6818 C9.0731,13.6703 9.1628,13.6663 9.252,13.6579 C9.32573333,13.6512333 9.39936667,13.6435 9.4729,13.6347 C9.6029,13.6197 9.7329,13.603 9.8629,13.5885 C9.946,13.5792 10.0293,13.5726 10.1129,13.5648 L10.1302,13.563 C10.2386,13.5405 10.3467,13.516 10.4556,13.4957 C10.5535,13.4775 10.6526,13.4657 10.7505,13.4475 C10.7962,13.4391 10.8405,13.4231 10.8856,13.4112 C10.9566667,13.3924667 11.0278,13.3740667 11.099,13.356 C11.1701,13.3379 11.2415,13.3205 11.3126,13.3025 C11.3634,13.2896 11.4137,13.2744 11.465,13.2635 C11.5337,13.249 11.605,13.2435 11.6719,13.2235 C11.7854,13.1905 11.8985,13.1542 12.0084,13.1108 C12.1684,13.0475 12.3272,12.9802 12.4834,12.9079 C12.6685726,12.8258254 12.8422397,12.7199308 13,12.5929 C13.1057,12.505 13.22,12.4273 13.3223,12.3355 C13.3983797,12.2619767 13.4696282,12.1836134 13.5356,12.1009 C13.6077668,12.0215375 13.6752797,11.9380646 13.7378,11.8509 C13.8505,11.6834 13.964,11.5153 14.0594,11.3378 C14.138548,11.1794292 14.2091493,11.0169294 14.2709,10.851 C14.3109,10.751 14.3452,10.6491 14.3777,10.5466 C14.3987,10.4802 14.4124,10.4115 14.4282,10.3435 C14.4457,10.2683 14.4613,10.1926 14.4782,10.1174 C14.4994,10.0248 14.5247,9.9329 14.5421,9.8396 C14.5611,9.7376 14.5752,9.6345 14.5879,9.5315 C14.6056,9.3885 14.6228,9.2453 14.6349,9.1015 C14.6466,8.9623 14.6516,8.8226 14.6595,8.6831 L14.6601,8.6715 C14.6855,8.523 14.6721,8.3721 14.7001,8.2215 C14.7211232,8.06691459 14.7278183,7.91071736 14.7201,7.7549 C14.7189,7.4849 14.7125,7.2141 14.7045,6.9438 C14.7164871,6.77500188 14.7068761,6.60536399 14.6759,6.439 C14.6658836,6.36232739 14.6633717,6.28486043 14.6684,6.2077 C14.6611,6.1093 14.6467,6.0114 14.6362,5.9131 C14.6272,5.8295 14.6237,5.7451 14.6101,5.6623 C14.5917,5.5511 14.5643,5.4415 14.5437,5.3307 C14.5258,5.2345 14.5126,5.1374 14.4956,5.0407 C14.4885751,5.00550799 14.4797637,4.9706963 14.4692,4.9364 C14.4478,4.8611 14.4248,4.7864 14.404,4.7107 C14.3832,4.635 14.3686,4.5607 14.3446,4.4877 C14.2978,4.3453 14.2507,4.2027 14.1957,4.0634 C14.1409971,3.91914868 14.0785736,3.77794464 14.0087,3.6404 C13.9303413,3.49220482 13.8435315,3.34863484 13.7487,3.2104 C13.6587794,3.07968256 13.5614188,2.95424231 13.4571,2.8347 C13.3921,2.7597 13.3059,2.7035 13.2362,2.632 C13.0870991,2.49461466 12.9194664,2.37882014 12.7382,2.288 C12.5730327,2.19615893 12.4027555,2.11382489 12.2282,2.0414 C12.0813,1.9781 11.9289,1.9274 11.7775,1.8753 C11.6319,1.8253 11.4846,1.7799 11.3375,1.7336 C11.3088,1.7246 11.2781,1.722 11.249,1.7136 C11.199,1.6995 11.149,1.6808 11.0984,1.6688 C11.0319,1.6532 10.9639,1.6442 10.8973,1.6288 C10.8054,1.6077 10.715,1.5799 10.6227,1.5614 C10.5208,1.5414 10.4173,1.5285 10.3148,1.5114 C10.1901,1.4904 10.066,1.4657 9.9411,1.4468 C9.8195,1.4284 9.6972,1.4142 9.5749,1.4002 C9.4881,1.3902 9.4009,1.3834 9.3138,1.3761 C9.2169,1.368 9.1201,1.3583 9.0231,1.3539 C8.8275,1.3451 8.632,1.3464 8.436,1.3353 C8.0921,1.3153 7.746,1.3265 7.4014,1.3314 C7.24785425,1.32249311 7.09380732,1.32842057 6.9414,1.3491 C6.8104355,1.36678703 6.67845275,1.37587316 6.5463,1.3763 C6.4763,1.3812 6.4076,1.3923 6.338,1.399 C6.247,1.4077 6.1557,1.4143 6.0646,1.4228 C5.9871,1.43 5.9091,1.4351 5.8324,1.4477 C5.7154,1.4668 5.5993,1.4915 5.4824,1.5137 C5.4363,1.5225 5.3903,1.531 5.344,1.539 C5.2918,1.5479 5.2387,1.5529 5.1873,1.5652 C5.105,1.5852 5.0241,1.6109 4.942,1.6314 C4.8558,1.6528 4.7685,1.6698 4.682,1.6908 C4.6512,1.6983 4.622,1.7136 4.592,1.7221 C4.5212,1.7421 4.4487,1.7562 4.3789,1.7789 C4.2889,1.8081 4.2015,1.8425 4.1134,1.876 C3.9834,1.926 3.8512,1.9723 3.7234,2.0279 C3.612,2.0763 3.5034,2.1319 3.397,2.1904 C3.2731,2.2584 3.1485,2.3268 3.0321,2.4064 C2.89519358,2.49801626 2.76423109,2.59821709 2.64,2.7064 C2.44663992,2.88008508 2.27737326,3.07884644 2.1367,3.2974 C2.0627,3.411 1.9886,3.5248 1.9216,3.6424 C1.80274626,3.85720743 1.70144976,4.08127033 1.6187,4.3124 C1.583,4.4083 1.5478,4.5048 1.5209,4.6034 C1.4845,4.7374 1.4565,4.8734 1.4244,5.0088 C1.4153,5.047 1.4044,5.0847 1.395,5.1229 C1.3813,5.1814 1.3664,5.2398 1.3563,5.299 C1.3452,5.364 1.3395,5.43 1.3303,5.4954 C1.3235,5.5441 1.3155,5.5927 1.3069,5.6412 C1.2927,5.7212 1.2721,5.8 1.264,5.8803 C1.2514,6.0039 1.2471,6.1283 1.2393,6.2524 L1.2384,6.2698 C1.2152,6.438 1.2154,6.6081 1.1984,6.7772 C1.1713,7.0532 1.1766,7.3328 1.1766,7.6108 C1.1766,7.8979 1.1872,8.185 1.1921,8.4721 C1.1938,8.5709 1.188,8.67 1.1937,8.7686 C1.1994,8.8672 1.2179,8.9642 1.2257,9.0623 C1.2335,9.1604 1.2349,9.2585 1.2393,9.3566 L1.242,9.3795 C1.2564,9.4647 1.272,9.5495 1.2852,9.6351 C1.2952,9.7007 1.2984,9.7676 1.3117,9.8325 C1.3304,9.9241 1.3567,10.0141 1.3779,10.1053 C1.4029,10.2126 1.42,10.3222 1.4514,10.4275 C1.49325577,10.5740153 1.54282489,10.7182164 1.5999,10.8595 C1.6837,11.0595 1.7723,11.2587 1.8729,11.4509 C1.94814017,11.5836028 2.03108196,11.7117886 2.1213,11.8348 C2.17899841,11.9267355 2.24425754,12.0137031 2.3164,12.0948 C2.50437895,12.309162 2.71709511,12.5004958 2.9501,12.6648 C3.0723,12.7427 3.1894,12.8297 3.3158,12.8997 C3.49935117,13.0068767 3.69377724,13.0942343 3.8958,13.1603 C4.003,13.1927 4.11,13.2262 4.2158,13.263 C4.26001945,13.2712135 4.29083418,13.3115795 4.2871,13.3564 C4.2848,13.8348 4.2863,14.3116 4.2863,14.7884 Z" id="Shape"></path>
                    <path d="M9.6972,8.9072 C9.71284425,8.91794362 9.73033735,8.92570703 9.7488,8.9301 C9.87840372,8.93677072 10.0033615,8.98054064 10.1088,9.0562 C10.3234,9.1986 10.5431,9.3337 10.7534,9.4822 C10.9113,9.5938 11.059,9.7202 11.209,9.8427 C11.3183502,9.92614149 11.4221064,10.0166694 11.5196,10.1137 C11.5652721,10.1772606 11.6001718,10.2479047 11.6229,10.3228 C11.6363471,10.3519961 11.6435995,10.3836616 11.6442,10.4158 C11.6357708,10.5758407 11.582358,10.7302559 11.4901,10.8613 C11.4064236,11.0015291 11.3070866,11.1317978 11.194,11.2496 C11.1185,11.3238 11.0579,11.414 10.9787,11.4833 C10.8519453,11.597798 10.7065072,11.6897284 10.5487,11.7551 C10.4559353,11.7987059 10.3544952,11.8207239 10.252,11.8195 C10.1682841,11.8221787 10.0848432,11.8085945 10.0063,11.7795 C9.89905216,11.7370919 9.78974872,11.700079 9.6788,11.6686 C9.6082,11.6431 9.5407,11.6086 9.4724,11.5772 C9.3392,11.5155 9.2049,11.4559 9.0738,11.3899 C8.8638,11.2843 8.6552,11.1768 8.4486,11.0653 C8.2857,10.9774 8.1243,10.8863 7.9667,10.7894 C7.7541,10.6586 7.5443,10.5231 7.3361,10.3852 C7.2282,10.3137 7.1249,10.2352 7.0224,10.1557 C6.8724,10.0398 6.725,9.9206 6.5767,9.8026 C6.5692,9.7966 6.5632,9.7887 6.5561,9.7826 C6.4678,9.7026 6.3784,9.6234 6.2913,9.5419 C6.2257,9.4805 6.1613,9.4177 6.0994,9.3519 C6.0031,9.2498 5.9073,9.1469 5.8156,9.0407 C5.7281,8.9393 5.6456,8.8333 5.5618,8.7291 C5.4966,8.6485 5.4295,8.5691 5.3675,8.4865 C5.3028,8.3999 5.2426,8.3098 5.1816,8.2205 C5.1094,8.1149 5.0359,8.0105 4.9674,7.9019 C4.895,7.7875 4.8259,7.6709 4.7589,7.5531 C4.6689,7.3953 4.5797,7.2372 4.496,7.0761 C4.356,6.8068 4.2179,6.5361 4.0846,6.2637 C4.0146,6.1207 3.954,5.9729 3.8941,5.8253 C3.84645886,5.72064493 3.80846798,5.61186047 3.7806,5.5003 C3.74976004,5.38822504 3.74554796,5.2704923 3.7683,5.1565 C3.7935861,5.04038454 3.83392718,4.92806827 3.8883,4.8224 C3.92736417,4.75239127 3.97300332,4.68625971 4.0246,4.6249 C4.09966306,4.53002957 4.18179755,4.44097532 4.2703,4.3585 C4.3903,4.2528 4.5203,4.1585 4.6503,4.0641 C4.72010392,4.0138466 4.79403422,3.96958877 4.8713,3.9318 C4.92029401,3.91303137 4.9710485,3.89922883 5.0228,3.8906 C5.05209374,3.87846984 5.08309924,3.87097994 5.1147,3.8684 C5.29703567,3.87542448 5.46505588,3.9690952 5.5669,4.1205 C5.6045,4.1756 5.6497,4.2256 5.6913,4.278 C5.8313,4.4549 5.9789,4.6267 6.1099,4.8102 C6.2319,4.981 6.3374,5.1637 6.4484,5.3421 C6.4865,5.4034 6.5184,5.4684 6.5551,5.5309 C6.62407664,5.65901372 6.64698659,5.80692228 6.62,5.9499 C6.59573543,6.10902082 6.50532584,6.25046516 6.3711,6.3393 C6.23865975,6.4388026 6.11344544,6.54757564 5.9964,6.6648 C5.93794214,6.72705149 5.90413838,6.80845064 5.9013,6.8938 C5.89054752,7.03209428 5.91761366,7.17070883 5.9796,7.2948 C6.0686,7.4821 6.1425,7.6775 6.2438,7.8577 C6.3438,8.0357 6.4711,8.1982 6.5838,8.3692 C6.7417318,8.58196256 6.92284598,8.77649261 7.1238,8.9492 C7.23668404,9.05247703 7.35990019,9.14385871 7.4915,9.2219 C7.64221812,9.31643563 7.79842746,9.40192 7.9593,9.4779 C8.0793,9.5343 8.2126,9.5614 8.3342,9.6149 C8.42840583,9.65249624 8.53025023,9.66696706 8.6312,9.6571 C8.7267513,9.65519624 8.817953,9.61680494 8.8861,9.5498 C8.9618,9.472 9.0234,9.3807 9.0951,9.2987 C9.17567013,9.19797871 9.26397107,9.10369296 9.3592,9.0167 C9.4250346,8.97678505 9.49780633,8.94964408 9.5737,8.9367 C9.6134833,8.92751209 9.6538947,8.92129495 9.6946,8.9181 L9.6972,8.9072 Z" id="Shape"></path>
                    <path d="M11.52,7.5614 C11.52,7.5114 11.5227,7.4605 11.5194,7.4103 C11.5134,7.3174 11.5064,7.2245 11.4953,7.1321 C11.4827,7.0274 11.4687,6.9227 11.4489,6.8192 C11.4327,6.7344 11.4065,6.6515 11.3861,6.5674 C11.3705,6.5031 11.3603,6.4374 11.3418,6.3741 C11.3160181,6.27843775 11.2850048,6.18426276 11.2489,6.092 C11.1873757,5.93642821 11.1178838,5.78412668 11.0407,5.6357 C10.9628323,5.49157035 10.8738636,5.35372064 10.7746,5.2234 C10.6671844,5.0828925 10.549887,4.95022277 10.4236,4.8264 C10.2513413,4.6538766 10.0588818,4.50278317 9.8504,4.3764 C9.6959,4.2853 9.5396,4.1964 9.3783,4.1182 C9.26858911,4.07023064 9.15604542,4.02902028 9.0413,3.9948 C8.9466,3.9625 8.8513,3.9315 8.7549,3.9048 C8.7008,3.8901 8.6434,3.8877 8.588,3.8771 C8.5202,3.8642 8.4529,3.8484 8.3854,3.8341 L8.3625,3.8314 C8.1841,3.8237 8.0056,3.8175 7.8273,3.808 C7.76956849,3.80923126 7.71386161,3.78671463 7.67320046,3.74571323 C7.63253932,3.70471183 7.61048769,3.64881925 7.6122,3.5911 C7.62389919,3.49709328 7.69871632,3.42347687 7.7929,3.4133 C7.8975,3.4124 8.0029,3.4072 8.1066,3.4148 C8.2059,3.4221 8.3041,3.4442 8.403,3.4582 C8.4707,3.4682 8.5392,3.472 8.6065,3.4834 C8.6886,3.4972 8.7707,3.5128 8.8514,3.5334 C8.9745,3.5647 9.0985,3.5947 9.2184,3.6362 C9.4222077,3.70326664 9.61870806,3.79077882 9.8049,3.8974 C10.0044811,4.01078421 10.197184,4.13586912 10.382,4.272 C10.5335567,4.39500171 10.6754408,4.52946394 10.8064,4.6742 C10.9206,4.7936 11.0233,4.9242 11.1282,5.0523 C11.2886786,5.26167897 11.4219428,5.49057341 11.5248,5.7335 C11.5901241,5.88624361 11.6462576,6.04275618 11.6929,6.2022 C11.7335,6.3275 11.7672,6.4551 11.799,6.583 C11.8131,6.6399 11.8131,6.7002 11.8228,6.7584 C11.8328,6.8213 11.8479,6.8835 11.8598,6.9461 C11.8640229,6.96860488 11.8668616,6.99134757 11.8683,7.0142 C11.8769,7.1459 11.8842,7.2777 11.8932,7.4094 C11.8992,7.4968 11.9098,7.584 11.9142,7.6715 C11.9314566,7.78262208 11.8616687,7.88873075 11.7528,7.9169 C11.6797053,7.92637788 11.6074035,7.89442791 11.5652,7.834 C11.5438502,7.78597458 11.5292452,7.73522714 11.5218,7.6832 C11.5179311,7.64271042 11.5174628,7.60196781 11.5204,7.5614 L11.52,7.5614 Z" id="Shape"></path>
                    <path d="M10.4858,7.1465 C10.4677,7.0106 10.4547,6.8739 10.43,6.7392 C10.4093423,6.60896078 10.3784125,6.48056013 10.3375,6.3552 C10.283916,6.202686 10.2119883,6.05725233 10.1233,5.9221 C10.0213699,5.75706213 9.89803086,5.60625091 9.7565,5.4736 C9.62916653,5.349048 9.48279775,5.2455839 9.3229,5.1671 C9.2188,5.1219 9.1204,5.0622 9.0142,5.0233 C8.8977127,4.98394877 8.77929182,4.95057197 8.6594,4.9233 C8.56086667,4.8983 8.46156667,4.87633333 8.3615,4.8574 C8.32296746,4.85339484 8.2841733,4.85252532 8.2455,4.8548 C8.15737453,4.866396 8.06925192,4.83341093 8.0104,4.7668 C7.97634459,4.72758089 7.95803206,4.67713239 7.959,4.6252 C7.9816,4.5394 8.029,4.4542 8.1403,4.4583 C8.2586,4.4626 8.3771,4.4696 8.4945,4.4841 C8.59995706,4.49533458 8.70430976,4.51523517 8.8065,4.5436 C8.95742095,4.58672452 9.10553594,4.63912416 9.25,4.7005 C9.40608442,4.76902085 9.55774525,4.84720583 9.7041,4.9346 C9.79256144,4.99505924 9.87648507,5.06190402 9.9552,5.1346 C10.0067091,5.17134666 10.0549544,5.21246557 10.0994,5.2575 C10.1906,5.3634 10.2724,5.4775 10.3623,5.5842 C10.4607898,5.70848479 10.5425538,5.84515024 10.6055,5.9907 C10.6532212,6.09502441 10.6952822,6.20184614 10.7315,6.3107 C10.7720431,6.45249734 10.8042647,6.59654291 10.828,6.7421 C10.8599367,6.92697961 10.8737356,7.11453706 10.8692,7.3021 C10.8664063,7.41008132 10.7816063,7.49804942 10.6738,7.5048 C10.5691808,7.49675064 10.4851388,7.41531391 10.4738,7.311 C10.4727,7.2568 10.4738,7.2025 10.4738,7.1482 L10.4858,7.1465 Z" id="Shape"></path>
                    <path d="M9.4642,6.91 C9.4442,6.8234 9.4178,6.7376 9.4056,6.65 C9.36870882,6.41587815 9.23381021,6.20856564 9.0347,6.08 C8.91489879,6.00721398 8.78075969,5.96122733 8.6415,5.9452 C8.5732,5.9401 8.5053,5.9307 8.4372,5.923 C8.34819764,5.90368458 8.28227557,5.82846685 8.2748,5.7377 C8.26292873,5.64565181 8.32014933,5.55875811 8.4094,5.5333 C8.46446663,5.52533917 8.52033416,5.52456603 8.5756,5.531 C8.59632469,5.53276278 8.61688448,5.53610584 8.6371,5.541 C8.69661422,5.54812484 8.755581,5.55925002 8.8136,5.5743 C8.9362828,5.61064586 9.05652618,5.65476851 9.1736,5.7064 C9.32758067,5.78422754 9.46040519,5.89821438 9.5607,6.0386 C9.6324881,6.14825916 9.69210698,6.26541799 9.7385,6.388 C9.79442923,6.51915464 9.82402392,6.66002674 9.8256,6.8026 C9.8276,6.8582 9.8519,6.9126 9.8545,6.9685 C9.84172435,7.05848548 9.77251097,7.13003961 9.683,7.1458 C9.5222,7.1468 9.4549,7.0787 9.4642,6.91 Z" id="Shape"></path>
                </g>
                <g id="whatsup" fill="#040706">
                    <path d="M8.55,15.1014 L8.5476,15.1014 C7.19524598,15.1015708 5.86772843,14.7380793 4.7041,14.049 L4.619,13.999 L1.3314,14.8611 L2.2099,11.6531 L2.1545,11.565 C0.32382668,8.64854999 0.698178249,4.86297498 3.06461731,2.36157304 C5.43105636,-0.139828901 9.19007375,-0.723357385 12.2034778,0.9429083 C15.2168819,2.60917398 16.7212626,6.10310527 15.8609032,9.4372959 C15.0005438,12.7714865 11.9934061,15.101259 8.55,15.1014 L8.55,15.1014 Z M4.7642,12.9649 L5.1955,13.2208 C6.21044403,13.8217148 7.36830437,14.1386473 8.5478,14.1384 L8.55,14.62 L8.55,14.1385 C11.5533853,14.138269 14.1762364,12.1062571 14.9268071,9.19817059 C15.6773778,6.29008409 14.365549,3.24253995 11.737423,1.78882834 C9.10929706,0.335116733 5.83057702,0.843462112 3.76603431,3.02474314 C1.7014916,5.20602416 1.37407392,8.5077234 2.97,11.052 L3.2508,11.4987 L2.7008,13.5061 L4.7642,12.9649 Z" id="Shape"></path>
                    <path d="M12.4279,9.3274 C12.2154,9.2211 11.1706,8.7074 10.9758,8.6362 C10.781,8.565 10.6394,8.5299 10.4977,8.7426 C10.356,8.9553 9.9488,9.4338 9.8248,9.5755 C9.7008,9.7172 9.5769,9.7355 9.3648,9.6287 C8.73805981,9.37923333 8.15960203,9.02242632 7.6554,8.5743 C7.19083072,8.14485814 6.79246995,7.64893756 6.4733,7.1027 C6.3493,6.89 6.4601,6.775 6.5665,6.6691 C6.6621,6.5739 6.779,6.421 6.8853,6.2969 C6.97270072,6.18952531 7.04426155,6.07017867 7.0978,5.9425 C7.15525796,5.82331606 7.14856067,5.68316211 7.08,5.57 C7.0269,5.4637 6.6019,4.418 6.4248,3.9927 C6.2523,3.5785 6.0771,3.6345 5.9467,3.628 C5.8229,3.6218 5.6811,3.6205 5.5394,3.6205 C5.32170119,3.62620482 5.11627382,3.72255668 4.9727,3.8863 C4.48683555,4.34648515 4.2169289,4.98980439 4.229,5.6589 C4.29814791,6.46027958 4.59971406,7.22404791 5.0967,7.8565 C6.00817799,9.22235166 7.25909232,10.327774 8.7267,11.0643 C9.12234367,11.2346806 9.52670638,11.3840551 9.9381,11.5118 C10.371664,11.6434949 10.8299617,11.6722904 11.2766,11.5959 C11.8746546,11.4739842 12.3946261,11.1078581 12.711,10.5859 C12.8500075,10.2685471 12.893112,9.91745369 12.835,9.5759 C12.7819,9.4873 12.6402,9.4341 12.4277,9.3278" id="Shape"></path>
                </g>
            </g>
            <use id="divider2" stroke="#979797" mask="url(#mask-2)" stroke-width="2" fill="#9B9C9C" xlink:href="#path-1"></use>
            <use id="divider1" stroke="#979797" mask="url(#mask-4)" stroke-width="2" fill="#D8D8D8" xlink:href="#path-3"></use>
        </g>
    </g>
</svg>