<?xml version='1.0' encoding='iso-8859-1'?>
<svg version="1.1" xmlns="http://www.w3.org/2000/svg" viewBox="0 0 280.16 280.16" xmlns:xlink="http://www.w3.org/1999/xlink" enable-background="new 0 0 280.16 280.16">
  <g>
    <g>
      <path d="m209.685,19.141h-26.467c-0.993-11.189-10.615-19.141-20.516-19.141h-46.983c-11.485,0-19.611,9.327-20.533,19.141h-24.71c-24.362,0-43.503,19.141-43.503,43.503v174.012c0,24.362 19.141,43.503 43.503,43.503h139.21c24.362,0 43.503-19.141 43.503-43.503v-174.012c-0.001-24.361-19.142-43.503-43.504-43.503zm-95.707,3.481c0-1.74 1.74-3.48 3.48-3.48h46.983c1.74,0 3.48,1.74 3.48,3.48v29.582c0,1.74-1.74,3.48-3.48,3.48h-46.983c-1.74,0-3.48-1.74-3.48-3.48v-29.582zm121.808,214.035c0,13.921-12.181,26.102-26.102,26.102h-139.209c-13.921,0-26.102-12.181-26.102-26.102v-174.013c0-13.921 12.181-26.102 26.102-26.102h24.362v13.921c0,12.181 10.441,20.882 20.882,20.882h46.983c12.181,0 20.882-8.701 20.882-20.882v-13.92h26.102c13.921,0 26.102,12.181 26.102,26.102l-.002,174.012v2.84217e-14z"/>
      <path d="m192.283,210.555h-104.407c-5.22,0-8.701,3.48-8.701,8.701s3.48,8.701 8.701,8.701h104.407c5.22,0 8.701-3.48 8.701-8.701s-3.48-8.701-8.701-8.701z"/>
      <path d="m192.283,158.351h-104.407c-5.22,0-8.701,3.48-8.701,8.701 0,5.22 3.48,8.701 8.701,8.701h104.407c5.22,0 8.701-3.48 8.701-8.701 0-5.22-3.48-8.701-8.701-8.701z"/>
      <path d="m192.283,106.147h-104.407c-5.22,0-8.701,3.48-8.701,8.701 0,5.22 3.48,8.701 8.701,8.701h104.407c5.22,0 8.701-3.48 8.701-8.701 0-5.22-3.48-8.701-8.701-8.701z"/>
    </g>
  </g>
</svg>
