<svg xmlns="http://www.w3.org/2000/svg" viewBox="0 0 180 70"><defs><style>.cls-1{fill:none}.cls-2{fill:#303030}</style></defs><title>apple-pay</title><g id="Слой_2" data-name="Слой 2"><g id="Layer_1" data-name="Layer 1"><path class="cls-1" d="M0 0h180v70H0z"/><path class="cls-2" d="M55.63 18.41a6.71 6.71 0 0 1 5-2.75A6.89 6.89 0 0 1 59 20.71a5.3 5.3 0 0 1-4.69 2.17 5.68 5.68 0 0 1 1.32-4.47zM49 23.33c-3.66 0-7.58 3.29-7.58 9.52s4.6 14.31 8.3 14.31c1.28 0 3.28-1.31 5.28-1.31s3.38 1.22 5.19 1.22c4 0 7-8.35 7-8.35a7 7 0 0 1-4.24-6.41 6.78 6.78 0 0 1 3.43-6 7.07 7.07 0 0 0-6.18-3.16c-2.57 0-4.56 1.44-5.6 1.44-1.31.09-3.16-1.26-5.6-1.26zm38-5.51a9 9 0 0 1 9.48 9.43c0 5.6-4 9.48-9.61 9.48h-6.6v9.79h-4.46v-28.7zM80.27 33h5.6c3.84 0 6.13-2.09 6.13-5.7s-2.21-5.73-6.09-5.73h-5.6zm17.11 7.34c0-3.79 2.93-6 8.26-6.32l5.82-.32V32c0-2.48-1.67-3.84-4.51-3.84-2.35 0-4.06 1.22-4.42 3.07h-4c.14-3.84 3.75-6.63 8.57-6.63 5.28 0 8.67 2.8 8.67 7v14.8h-4.11v-3.53h-.09a7.55 7.55 0 0 1-6.81 3.84c-4.4.04-7.38-2.53-7.38-6.37zm14.08-1.94v-1.67l-5.24.36c-2.93.18-4.47 1.26-4.47 3.2s1.62 3 4.11 3c3.14-.01 5.6-2.05 5.6-4.89zm8.98 15.84v-3.52a6.61 6.61 0 0 0 1.35.09c2 0 3.2-.86 3.93-3.16l.32-1.13-7.85-21.66h4.65l5.55 17.65h.09L134 24.86h4.51l-8.08 22.61c-1.85 5.19-3.88 6.86-8.3 6.86a11.21 11.21 0 0 1-1.69-.09z"/></g></g></svg>