<svg xmlns="http://www.w3.org/2000/svg" viewBox="0 0 180 70"><defs><style>.cls-1{fill:none}.cls-2{fill:#164193}</style></defs><title>samsung-pay</title><g id="Слой_2" data-name="Слой 2"><g id="Layer_1" data-name="Layer 1"><path class="cls-1" d="M0 0h180v70H0z"/><path class="cls-2" d="M63.7 57V34.66h3.6v1.64a4.37 4.37 0 0 1 2.22-1.63 7.51 7.51 0 0 1 2.35-.38 7.94 7.94 0 0 1 5.84 2.46 8.68 8.68 0 0 1 1.8 9.25 8.26 8.26 0 0 1-4.38 4.58 7.45 7.45 0 0 1-3.1.63 7.6 7.6 0 0 1-2.52-.41 4.53 4.53 0 0 1-2.28-1.57V57H63.7m8.05-19.52a4.52 4.52 0 0 0-3.39 1.37A5.5 5.5 0 0 0 67 42.68a5.8 5.8 0 0 0 1.3 4A4.44 4.44 0 0 0 71.78 48a4.58 4.58 0 0 0 3.33-1.41 5.28 5.28 0 0 0 1.43-3.77 5.69 5.69 0 0 0-1.41-4 4.56 4.56 0 0 0-3.38-1.41m33.05 19.57l3.03-7.04-6.96-15.28h3.79l4.95 11.47 4.56-11.47h3.81l-9.46 22.32h-3.72m-9.64-6.05v-1.69a4.52 4.52 0 0 1-2.28 1.57 7.65 7.65 0 0 1-2.52.41 7.48 7.48 0 0 1-3.1-.63 8 8 0 0 1-2.65-1.86A7.92 7.92 0 0 1 82.89 46a8.54 8.54 0 0 1-.63-3.21 8.44 8.44 0 0 1 2.44-6.06 8 8 0 0 1 5.84-2.46 7.43 7.43 0 0 1 2.35.38 4.34 4.34 0 0 1 2.22 1.62v-1.61h3.59v16.27h-3.54m-7.9-12.06a5.69 5.69 0 0 0-1.4 4 5.28 5.28 0 0 0 1.43 3.77A4.57 4.57 0 0 0 90.62 48a4.42 4.42 0 0 0 3.45-1.35 5.77 5.77 0 0 0 1.3-4A5.51 5.51 0 0 0 94 38.83a4.51 4.51 0 0 0-3.39-1.37 4.56 4.56 0 0 0-3.39 1.41m34.53-14.54l-.19-10.87h3.43v13.72h-4.93l-3.41-11.26h-.09l.19 11.26h-3.4V13.46h5.14l3.18 10.87h.08m-62.3-9.59L57.56 27.3h-3.74l2.56-13.84h6.17l2.56 13.84h-3.73l-1.85-12.56h-.08m16.14 9.31l1.72-10.59h5.64l.31 13.84h-3.47l-.09-12.44h-.07L77.31 27.3h-3.5l-2.33-12.44h-.07l-.09 12.44h-3.46l.31-13.84h5.65l1.71 10.59h.06m29.03 1.18a1.25 1.25 0 0 0 1.33-1 3.13 3.13 0 0 0 0-.53V13.46h3.51v10.83c-.24 2.59-2.29 3.42-4.84 3.42s-4.62-.82-4.82-3.41a9 9 0 0 1 0-.91v-9.93h3.5V23.7a2.64 2.64 0 0 0 0 .53 1.24 1.24 0 0 0 1.32 1M48 23.4a1.84 1.84 0 0 1 0 1 1.2 1.2 0 0 1-1.36.94 1.23 1.23 0 0 1-1.38-1.26v-1.33h-3.69v1.07c0 3.09 2.42 4 5 4s4.57-.85 4.9-3.16a6.84 6.84 0 0 0 0-2.27c-.58-2.91-5.84-3.76-6.23-5.38a1.67 1.67 0 0 1 0-.73 1.14 1.14 0 0 1 1.26-.94 1.18 1.18 0 0 1 1.29 1.25v.87h3.46v-1c0-3-2.71-3.49-4.68-3.49-2.46 0-4.47.82-4.84 3.08a5.07 5.07 0 0 0 0 1.86c.61 2.84 5.53 3.65 6.24 5.44m45.03.03a1.82 1.82 0 0 1 0 1 1.18 1.18 0 0 1-1.33.92 1.22 1.22 0 0 1-1.38-1.24v-1.33h-3.65v1.07c0 3.06 2.41 4 5 4s4.51-.84 4.84-3.13a6.64 6.64 0 0 0 0-2.26c-.58-2.86-5.78-3.71-6.16-5.33a1.84 1.84 0 0 1 0-.71 1.13 1.13 0 0 1 1.25-.92 1.16 1.16 0 0 1 1.28 1.23v.85h3.41v-1c0-3-2.68-3.45-4.61-3.45-2.44 0-4.44.8-4.79 3a4.37 4.37 0 0 0 0 1.84c.59 2.81 5.46 3.61 6.17 5.39m40.47 1.78a1.29 1.29 0 0 0 1.41-1 3.78 3.78 0 0 0 0-.53v-2h-1.41v-2h4.9v4.63c-.23 2.51-2.42 3.42-4.88 3.42s-4.63-.91-4.85-3.42a6.44 6.44 0 0 1-.05-.91v-5.86a7.41 7.41 0 0 1 .06-.91c.3-2.6 2.39-3.42 4.84-3.42s4.62.81 4.86 3.42a6.23 6.23 0 0 1 0 .91v.45h-3.49v-.77a2.88 2.88 0 0 0 0-.53 1.27 1.27 0 0 0-1.39-1 1.29 1.29 0 0 0-1.37 1 3.17 3.17 0 0 0-.05.66v6.86a1.3 1.3 0 0 0 1.42 1"/></g></g></svg>