<svg xmlns="http://www.w3.org/2000/svg" viewBox="0 0 180 70"><defs><style>.cls-1{fill:none}.cls-2{fill:#ffb600}.cls-3{fill:#101974}.cls-4{fill:#ff5f00}.cls-5{fill:#ff0015}.cls-6{fill:#ff9e00}</style></defs><title>visa-mastercard</title><g id="Слой_2" data-name="Слой 2"><g id="Layer_1" data-name="Layer 1"><path class="cls-1" d="M0 0h180v70H0z"/><path class="cls-2" d="M87.83 51.73h75.39v6.76H87.83z"/><path class="cls-3" d="M87.83 11.56h75.39v6.76H87.83zM118 25.77l-7.79 18.57h-5.09l-3.82-14.85a2 2 0 0 0-1.13-1.62 19.31 19.31 0 0 0-4.75-1.57l.1-.54h8.18a2.24 2.24 0 0 1 2.2 1.91l2 10.73 5-12.64zm19.94 12.49c0-4.9-6.76-5.19-6.71-7.35 0-.69.64-1.37 2.06-1.57a9.16 9.16 0 0 1 4.75.83l.83-3.92a12.53 12.53 0 0 0-4.51-.83c-4.75 0-8.08 2.55-8.13 6.12 0 2.69 2.4 4.16 4.21 5s2.5 1.52 2.5 2.3c0 1.22-1.52 1.81-2.89 1.81a9.86 9.86 0 0 1-4.95-1.18l-.88 4.07a13.65 13.65 0 0 0 5.34 1c5 0 8.33-2.45 8.38-6.32m12.54 6.07h4.46l-3.87-18.57H147a2.19 2.19 0 0 0-2.06 1.37l-7.25 17.19h5l1-2.79h6.17zm-5.39-6.56l2.55-7 1.47 7zm-20.23-12l-4 18.57h-4.8l4-18.57z"/><path id="_Compound_Path_" data-name="Compound Path" d="M25.77 56.72v-2.93a1.71 1.71 0 0 0-1.55-1.86H24a1.93 1.93 0 0 0-1.67.83 1.71 1.71 0 0 0-1.57-.83 1.67 1.67 0 0 0-1.42.69V52h-.93v4.7h.93V54a1.1 1.1 0 0 1 1-1.22h.22c.69 0 1.08.44 1.08 1.22v2.69h.93V54a1.1 1.1 0 0 1 1-1.22h.22c.69 0 1.08.44 1.08 1.22v2.69zm15.28-4.65h-1.71v-1.42h-.93v1.42h-1v.83h1v2.2c0 1.08.39 1.71 1.57 1.71a2.74 2.74 0 0 0 1.27-.34l-.25-.82a1.61 1.61 0 0 1-.88.24.69.69 0 0 1-.73-.78v-2.25h1.71zm8.72-.15a1.47 1.47 0 0 0-1.27.69V52h-.93v4.7h.93v-2.62c0-.78.39-1.27 1-1.27a2.87 2.87 0 0 1 .64.1l.29-.88a3.31 3.31 0 0 0-.66-.11zm-13.18.49a3.36 3.36 0 0 0-1.91-.49c-1.18 0-1.91.54-1.91 1.47s.54 1.22 1.57 1.37h.49c.54.1.88.29.88.54s-.39.59-1.13.59a2.58 2.58 0 0 1-1.58-.44l-.49.73a3.55 3.55 0 0 0 2 .59c1.37 0 2.11-.64 2.11-1.52S36.06 54 35 53.88h-.49c-.44 0-.83-.2-.83-.49s.39-.59.93-.59a3.53 3.53 0 0 1 1.47.39zm14.25 2A2.31 2.31 0 0 0 53 56.82h.28a2.45 2.45 0 0 0 1.72-.54l-.49-.73a2 2 0 0 1-1.22.44 1.57 1.57 0 0 1 0-3.14 2 2 0 0 1 1.22.44l.49-.73a2.45 2.45 0 0 0-1.7-.56 2.19 2.19 0 0 0-2.45 2.35zm-6.61-2.45a2.25 2.25 0 0 0-2.3 2.45 2.3 2.3 0 0 0 2.15 2.45h.25a3 3 0 0 0 1.91-.64l-.49-.69a2.34 2.34 0 0 1-1.37.49A1.38 1.38 0 0 1 43 54.77h3.48v-.39a2.21 2.21 0 0 0-2.24-2.46zm0 .88a1.17 1.17 0 0 1 1.22 1.12v.06h-2.54a1.26 1.26 0 0 1 1.33-1.21zm-12.68 1.53V52h-.93v.59a1.8 1.8 0 0 0-1.52-.69 2.45 2.45 0 1 0 0 4.9 1.8 1.8 0 0 0 1.52-.69v.59h.93zm-3.82 0a1.47 1.47 0 1 1 1.47 1.57 1.44 1.44 0 0 1-1.47-1.57zm36.2-2.45a1.47 1.47 0 0 0-1.27.69V52h-.93v4.7h.93v-2.62c0-.78.39-1.27 1-1.27a2.87 2.87 0 0 1 .64.1l.29-.88a3.31 3.31 0 0 0-.66-.11zM71.47 56a.29.29 0 0 1 .2 0s.1 0 .15.1.1.1.1.15v.2a.29.29 0 0 1 0 .2s0 .1-.1.15-.1.1-.15.1h-.2a.29.29 0 0 1-.2 0s-.1 0-.15-.1-.1-.1-.1-.15v-.2a.29.29 0 0 1 0-.2s0-.1.1-.15.1-.1.15-.1h.2zm0 .83a.18.18 0 0 0 .15 0 .11.11 0 0 0 .1-.1l.1-.1v-.15a.18.18 0 0 0 0-.15.11.11 0 0 0-.1-.1l-.1-.1h-.15a.18.18 0 0 0-.15 0 .11.11 0 0 0-.1.1l-.1.1v.15a.18.18 0 0 0 0 .15.11.11 0 0 0 .1.1l.1.1a.18.18 0 0 0 .15.04zm0-.54a.18.18 0 0 1 .15 0v.2a.17.17 0 0 1-.1 0l.15.15h-.15l-.15-.15v.15h-.1v-.44zm-.1 0v.1h.15v-.1zm-11.12-2V52h-.93v.59a1.8 1.8 0 0 0-1.52-.69 2.45 2.45 0 1 0 0 4.9 1.8 1.8 0 0 0 1.52-.69v.59h.93zm-3.77 0A1.47 1.47 0 1 1 58 55.94a1.42 1.42 0 0 1-1.47-1.57zm13.27 0v-4.13h-.93v2.45a1.8 1.8 0 0 0-1.52-.69 2.45 2.45 0 1 0 0 4.9 1.8 1.8 0 0 0 1.52-.69v.59h.93zm-3.82 0a1.47 1.47 0 1 1 1.47 1.57 1.44 1.44 0 0 1-1.4-1.49z"/><g id="_Group_" data-name="Group"><path class="cls-4" d="M35.52 16.36h17v27.73h-17z"/><path id="_Path_" data-name="Path" class="cls-5" d="M37.28 30.22A17.68 17.68 0 0 1 44 16.36a17.63 17.63 0 1 0 0 27.73 17.68 17.68 0 0 1-6.72-13.87z"/><path class="cls-6" d="M70.84 41.15v-.59h.24v-.1h-.59v.1h.24v.59zm1.18 0v-.69h-.2l-.2.49-.2-.49h-.2v.69h.15v-.54l.2.44h.15l.2-.44v.54zm.53-10.93A17.63 17.63 0 0 1 44 44.09a17.67 17.67 0 0 0 0-27.73 17.63 17.63 0 0 1 28.55 13.86z"/></g></g></g></svg>