<svg xmlns="http://www.w3.org/2000/svg" viewBox="0 0 180 70"><defs><style>.cls-1{fill:none}.cls-2{clip-path:url(#clip-path)}.cls-3{fill:red}</style><clipPath id="clip-path"><path id="SVGID" class="cls-1" d="M12.59 17.8h154.82v34.4H12.59z"/></clipPath></defs><title>yandex-money</title><g id="Слой_2" data-name="Слой 2"><g id="Layer_1" data-name="Layer 1"><path class="cls-1" d="M0 0h180v70H0z"/><g class="cls-2"><path class="cls-3" d="M22 35.83l-4.19 9.42H14.7l4.6-10.08c-2.17-1.1-3.61-3.09-3.61-6.77 0-5.16 3.27-7.74 7.15-7.74h4v24.58h-2.69v-9.41H22m2.2-12.93h-1.46c-2.13 0-4.19 1.41-4.19 5.5s1.89 5.23 4.19 5.23h1.41z"/><path d="M39.56 27.92v17.32h-2.65v-7.76h-4v7.77h-2.67V27.92h2.68v7.36h4v-7.36h2.65m13.77 20.73h-2.4v-3.4h-7.43v3.4H41.1V43h1.07c1.58-3.68 1.75-9 1.75-13.65v-1.43h8V43h1.37zm-4-18.56h-3v.31c0 3.64-.17 9-1.62 12.65h4.61zm11.41 15.4c-3.58 0-5.78-2.85-5.78-8.18 0-5.57 1.55-9.63 5.23-9.63 2.89 0 4.78 2.17 4.78 8v1.52h-7.24c0 3.92 1.1 6 3.23 6a6 6 0 0 0 3.41-1.2l.62 2.07a6.82 6.82 0 0 1-4.27 1.41zM57.78 35h4.43c0-3-.48-5.12-2-5.12s-2.26 2.03-2.43 5.12zm12.62 1.62v8.63h-2.69V27.92h2.68v8l4.16-8h2.72L73 36.07l4.92 9.18H75zm7.84 0c0-5.43 2.1-8.9 6.15-8.9a5.46 5.46 0 0 1 3.2.89l-.38 2.54a4.59 4.59 0 0 0-2.85-1.2c-1.93 0-3.3 2.17-3.3 6.53s1 6.81 3.2 6.81a4.38 4.38 0 0 0 2.92-1.07l.62 2a5.25 5.25 0 0 1-3.61 1.31c-3.72-.05-5.96-3.04-5.96-8.95zM106 45.24H95.5l-.24 4.09h-1.34v-5.5h.72c1.2-1 1.79-3.75 2.13-7.25s.45-9.08.55-15.92h8.59v23.18h1.69v5.5h-1.34l-.26-4.1m-1.8-23.17h-5.33c-.1 6.22-.28 11-.55 14.51s-.86 6.12-1.79 7.25h7.67zm10.52 22.11a4.42 4.42 0 0 0 3.51-1.86l.52 1.31a5 5 0 0 1-4.06 2c-3.68 0-5.36-3.33-5.36-9s2.13-9 5.05-9 4.92 3.13 4.37 9.28h-7.84c.07 4.74 1.31 7.32 3.82 7.32m-3.78-8.59h6.29c.27-4.61-1.1-6.67-2.85-6.67s-3.31 2.28-3.45 6.61zm18.39 1.25h-5.92v8.35h-1.61V27.92h1.61v7.66h5.92v-7.66h1.61v17.32h-1.61v-8.35m5.43-8.97h1.61v6.43h1.27c3.3 0 5.43 1.79 5.43 5.4s-2.27 5.5-5.53 5.5h-2.78V27.92m1.61 7.7V44h1c2.44 0 4.09-1.2 4.09-4.19s-1.44-4.16-3.92-4.16zm11.08-6.36v15.98h-1.58V27.92h7.32v1.34h-5.74m16.3 3.92a23.53 23.53 0 0 1 .14-2.37h-.1a15.37 15.37 0 0 1-.93 2.23l-5.64 12.2h-1.38V27.92h1.51V40c0 .93-.07 1.68-.14 2.44h.1a18.89 18.89 0 0 1 .93-2.3l5.64-12.17h1.41v17.27h-1.55V33.18"/></g></g></g></svg>