<svg id="Слой_1" xmlns="http://www.w3.org/2000/svg" viewBox="0 0 270 59.8"><style>.st0{fill:#fff}</style><title>logo</title><g id="Слой_2"><g id="Слой_1-2"><g id="L2"><path class="st0" d="M200.4 1.1v1.5h5v38.8h-5v1.5h31.9s.6-6.1.8-9c.1-1.1.4-4.2.4-4.2h-1.7c-.6 2.9-1.9 5.7-3.8 8-1.6 2-3.9 3.2-6.4 3.4-2.4.2-7.5.2-7.5.2V2.6h5V1.1h-18.7z"/></g><g id="L1"><path class="st0" d="M164.4 1.1v1.5h5v38.8h-5v1.5h31.9s.5-6.1.8-9c.1-1.1.4-4.2.4-4.2h-1.7c-.6 2.9-1.9 5.7-3.8 8-1.6 2-3.9 3.2-6.4 3.4-2.4.2-7.5.2-7.5.2V2.6h5V1.1h-18.7z"/></g><g id="O"><path class="st0" d="M16.8 41.8c-2.4-.9-4.2-2.9-4.9-5.3-.8-2.4-1.2-4.9-1.2-7.4-.1-3.7-.2-7.4-.1-11.1-.1-3.3.3-6.7 1.2-9.9 1-3.1 2.9-5.4 6.2-6 2.1-.5 4.3-.4 6.4.3 2.9 1.1 4.3 3.4 5.1 6.2.6 2.3.9 4.8 1 7.2.1 2.1 0 5.2 0 6.3s-.1 6.8-.4 10.1c-.1 2.1-.7 4.2-1.8 6.1-1.1 2.1-3.2 3.5-5.5 3.9-.8.1-1.6.2-2.5.2-1.2 0-2.4-.2-3.5-.6M19 .1C14.3.4 9.8 2.4 6.4 5.8c-1.6 1.7-3 3.6-4.1 5.8C-2.2 20.9-.1 33 8 39.7c2.8 2.3 6.1 3.7 9.7 4.1 3.3.4 6.6.1 9.7-1 2.6-.9 5-2.5 7-4.5 3.2-3.2 5.4-7.2 6.2-11.6.6-3 .6-6 .1-9C39 7.8 30.6 0 20.5 0c-.5 0-1 0-1.5.1"/></g><g id="S"><path class="st0" d="M55.9.4c-2.6.6-4.9 2.1-6.6 4.2-2.3 2.8-3.3 6.5-2.8 10.2.5 4.4 2.7 7.5 7 9 3.3 1.1 6.6 2.2 9.9 3.2 1.5.4 2.9 1.2 4 2.3 2.7 3 2.6 7.5-.3 10.3-2.9 2.9-6.4 3.4-10.1 2.2s-6.2-3.9-7.7-7.4c-.4-1-.7-2-1.1-3h-1.6V43h1.6l2-2.6 1.2.8c3.4 2.3 7.5 3.3 11.6 2.7 3.9-.5 7.4-2.8 9.4-6.2 2.3-3.7 2.8-8.4 1.3-12.5-.9-3.3-3.4-5.9-6.7-7.1-2.2-.8-4.5-1.4-6.7-2.2-2-.6-3.9-1.2-5.8-2-4.2-1.9-4.3-7.5-1-10.3 2.8-2.5 7.4-2.5 10.3-.7 2.4 1.5 4.1 3.8 4.8 6.4.3 1 .5 2 .7 2.9H71V1.1h-1.6S68 2.6 67.6 3c-.8-.6-1.6-1.1-2.5-1.6-1.4-.7-3-1.2-4.7-1.4h-1.2c-1.1 0-2.2.1-3.3.4"/></g><g id="K1"><path class="st0" d="M79 1.1v1.5h5v38.8h-5v1.5h18.8v-1.5h-5V2.6h5V1.1z"/></g><g id="K2"><path class="st0" d="M103.7 1.1v1.5h3.9c.5 0 1 .2 1.4.5.4.5-.2 1-.6 1.5-3.8 4.1-7.6 8.3-11.4 12.4l-3.8 4.2L107 41.5h-4.9V43h18.5v-1.5h-3l-13.5-19.9-3.7-5.4c1-1.1 8.5-9 11.3-11.9.8-.9 1.9-1.4 3.1-1.5.9-.1 1.9-.1 2.8-.1V1.1h-13.9z"/></g><g id="E"><path class="st0" d="M123.8 1.1v1.6h5v38.8h-5V43h34.4l.9-13.2h-1.6c-.4 1.3-.7 2.7-1.1 3.9-1.5 4.6-4.5 7.5-9.6 7.6-3 .1-5.9.1-8.9.2-.1 0-.2 0-.2-.1v-19c1.3.1 2.5.1 3.8.2 2.6 0 4.9 2 5.1 4.6.2 1.1.3 2.2.5 3.3h1.6v-17H147c-.1.7-.1 1.4-.2 2.1-.3 2.1-1.1 3.8-3.1 4.6-1.6.6-3.3.8-5 .6h-1V2.6c3.6.1 7.1 0 10.6.2 3 .1 5.6 2.1 6.6 4.9.5 1.3.9 2.6 1.3 4h1.6l-.9-10.6h-33.1z"/></g><g id="Y"><path class="st0" d="M230.6 1.1v1.6h3.9l12.1 21v17.8H241V43h20v-1.6h-5.6V23.6s6-12 9-17.7c.3-.6.6-1.2 1-1.8.5-.8 1.3-1.3 2.2-1.4.8-.1 1.6-.1 2.4-.2V1.1h-12v1.5c1.1 0 4 .1 4.5.1.4 0 .7.3.8.7 0 .1 0 .2-.1.3-.1.6-.3 1.2-.6 1.7-2.4 5-7.7 15.5-7.7 15.5L244.6 2.6h5.3V1.1h-19.3z"/></g><g id="logo_bottom"><path class="st0" d="M1.3 52.6h.9v6.3h3.1v.8h-4zm14.7 0v4.2c0 1.6.7 2.3 1.7 2.3s1.7-.7 1.7-2.3v-4.2h.9v4.2c0 2.2-1.1 3.1-2.7 3.1s-2.6-.8-2.6-3v-4.2l1-.1zm18.9 7.1l-.9-1.6c-.4-.6-.6-1-.8-1.4-.2.4-.4.8-.8 1.4l-.9 1.6h-1l2.2-3.6-2.1-3.5h1.1l.9 1.7c.3.5.5.8.7 1.2l.6-1.2 1-1.7H36L33.8 56l2.2 3.7h-1.1zm12.2-7.1v4.2c0 1.6.7 2.3 1.7 2.3s1.7-.7 1.7-2.3v-4.2h.9v4.2c0 2.2-1.2 3.1-2.7 3.1s-2.6-.8-2.6-3v-4.2l1-.1zm15.1.1c.6-.1 1.2-.2 1.8-.2.7-.1 1.5.1 2.1.6.4.3.6.8.6 1.3 0 .8-.5 1.6-1.3 1.8.6.3.9.8 1 1.4.1.7.3 1.4.6 2h-1c-.2-.6-.3-1.1-.4-1.7-.2-1-.6-1.3-1.4-1.4h-.9v3.1h-.9l-.2-6.9zm.9 3.2h.9c1 0 1.6-.5 1.6-1.3s-.6-1.4-1.6-1.4c-.3 0-.6 0-.9.1v2.6zm15.4 3.8v-3l-2.2-4.1h1l1 2c.3.5.5 1 .7 1.5.2-.5.4-.9.7-1.5l1-2h1l-2.4 4.1v3h-.8zm24.6-7c.6-.1 1.2-.2 1.8-.2.7-.1 1.5.1 2.1.6.4.3.6.8.6 1.3 0 .8-.5 1.6-1.3 1.8.6.3.9.8 1 1.4.1.7.3 1.4.6 2h-1c-.2-.5-.4-1.1-.5-1.7-.2-1-.6-1.3-1.4-1.4h-.9v3.1H103l.1-6.9zm.9 3.2h1c1 0 1.6-.5 1.6-1.3s-.7-1.3-1.6-1.3c-.3 0-.6 0-.9.1l-.1 2.5zm17.6.4h-2.7v2.6h3.1v.8h-4v-7.1h3.8v.7h-2.9v2.3h2.7zm10.6 2.3c.5.3 1.1.5 1.6.5.9 0 1.5-.5 1.5-1.2s-.4-1-1.3-1.4c-1.2-.4-1.9-1-1.9-2 0-1.1.9-2 2-2h.3c.5 0 1.1.1 1.6.3l-.2.8c-.4-.2-.9-.3-1.4-.3-1 0-1.3.6-1.3 1.1 0 .7.4 1 1.4 1.4 1.2.5 1.8 1 1.8 2.1s-.8 2-2.5 2c-.6 0-1.3-.2-1.8-.5l.2-.8zm15.6-1.1l-.7 2.2h-1l2.4-7.1h1.1l2.4 7.1h-1l-.8-2.2h-2.4zm2.3-.8l-.7-2c-.2-.5-.3-.9-.4-1.3-.1.4-.2.9-.4 1.3l-.7 2.1 2.2-.1zm12.1-4.1h1v6.3h3v.8h-4zm17.9 3.7h-2.8v2.6h3.1v.8h-4v-7.1h3.8v.7h-2.9v2.3h2.8zm21.9 2.3c.5.3 1.1.5 1.6.5.9 0 1.5-.5 1.5-1.2s-.4-1-1.3-1.4c-1.2-.4-1.9-1-1.9-2 0-1.1.9-2 2-2h.3c.5 0 1.1.1 1.6.3l-.2.8c-.4-.2-.9-.3-1.4-.3-1 0-1.3.6-1.3 1.1 0 .7.4 1 1.4 1.4 1.2.5 1.8 1 1.8 2.1s-.8 2-2.5 2c-.6 0-1.3-.2-1.8-.5l.2-.8zm15.8-5.3h-2.2v-.7h5.3v.7h-2.2v6.4h-.9zm18.8 2.7c0 2.5-1.5 3.8-3.3 3.8s-3.2-1.5-3.2-3.6 1.4-3.7 3.3-3.7 3.2 1.4 3.2 3.5m-5.5.2c0 1.5.8 2.9 2.3 2.9s2.3-1.3 2.3-3c0-1.4-.7-2.9-2.3-2.9s-2.3 1.4-2.3 3m15.9-3.5c.6-.1 1.2-.2 1.8-.2.7-.1 1.5.1 2.1.6.4.3.6.8.6 1.3 0 .9-.6 1.6-1.4 1.8.6.3.9.8 1 1.4.1.7.3 1.4.6 2h-1c-.2-.5-.4-1.1-.5-1.7-.2-1-.6-1.3-1.4-1.4h-.9v3.1h-.9v-6.9zm.9 3.2h.9c1 0 1.6-.5 1.6-1.3s-.7-1.3-1.6-1.3c-.3 0-.6 0-.9.1v2.5zm17.6.4h-2.8v2.6h3.1v.8h-4v-7.1h3.8v.7h-2.9v2.3h2.8z"/></g></g></g></svg>