<?xml version="1.0" encoding="UTF-8"?>
<svg width="68px" height="82px" viewBox="0 0 68 82" version="1.1" xmlns="http://www.w3.org/2000/svg">
    <!-- Generator: Sketch 46.2 (44496) - http://www.bohemiancoding.com/sketch -->
    <title>2</title>
    <desc>Created with Sketch.</desc>
    <defs></defs>
    <g id="Welcome-Page" stroke="none" stroke-width="1" fill="none" fill-rule="evenodd">
        <g id="Desktop" transform="translate(-285.000000, -731.000000)" fill="#CFA788">
            <path d="M320.697632,731 C301.429872,731 291.123862,739.812386 285,750.118397 L287.539162,751.761384 C292.916211,744.069217 299.338798,739.812386 308.001821,739.812386 C317.336976,739.812386 322.340619,744.591985 322.340619,755.420765 C322.340619,779.692168 296.724954,797.466302 285.149362,809.265938 L285.149362,812.253188 L329.659381,812.253188 C338.845173,812.253188 349.673953,812.40255 352.437158,813 C351.989071,807.174863 351.839709,800.752277 351.839709,787.160291 L348.703097,787.160291 C347.956284,792.313297 346.836066,794.030965 338.471767,794.030965 L305.313297,794.030965 C317.56102,781.111111 346.313297,770.132969 346.313297,750.417122 C346.313297,738.020036 336.455373,731 320.697632,731 Z" id="2"></path>
        </g>
    </g>
</svg>