<?xml version="1.0" encoding="UTF-8"?>
<svg width="51px" height="82px" viewBox="0 0 51 82" version="1.1" xmlns="http://www.w3.org/2000/svg">
    <!-- Generator: Sketch 46.2 (44496) - http://www.bohemiancoding.com/sketch -->
    <title>3</title>
    <desc>Created with Sketch.</desc>
    <defs></defs>
    <g id="Welcome-Page" stroke="none" stroke-width="1" fill="none" fill-rule="evenodd">
        <g id="Desktop" transform="translate(-681.000000, -752.000000)" fill="#CFA788">
            <path d="M707.06156,752 C693.091625,752 686.106657,759.219757 681.821761,767.026485 L683.93486,768.141732 C687.691482,761.919828 693.326414,758.691482 699.665712,758.691482 C706.2398,758.691482 710.348604,762.037223 710.348604,769.315676 C710.348604,774.950608 707.824624,780.702935 701.074445,785.398712 C699.489621,785.281317 698.198282,784.987831 696.848246,784.987831 C694.793844,784.987831 693.032928,785.750895 693.032928,787.570508 C693.032928,788.861847 693.854689,789.331424 695.204724,789.331424 C697.083035,789.331424 699.020043,788.450966 701.426628,787.394417 C709.233357,787.981389 714.046528,794.731568 714.046528,804.064424 C714.046528,821.849678 696.026485,831.123837 681,831.652112 L681,834 C704.713672,834 731.949177,822.43665 731.949177,804.005727 C731.949177,792.14889 720.620616,785.6335 705.418039,785.6335 C704.713672,785.6335 704.009306,785.692198 703.246242,785.692198 C718.272727,782.757337 727.605583,774.891911 727.605583,765.852541 C727.605583,757.165354 718.859699,752 707.06156,752 Z" id="3"></path>
        </g>
    </g>
</svg>