<?xml version="1.0" encoding="UTF-8"?>
<svg width="61px" height="61px" viewBox="0 0 61 61" version="1.1" xmlns="http://www.w3.org/2000/svg">
    <!-- Generator: Sketch 46.2 (44496) - http://www.bohemiancoding.com/sketch -->
    <title>noun_1158240_cc copy</title>
    <desc>Created with Sketch.</desc>
    <defs></defs>
    <g id="Welcome-Page" stroke="none" stroke-width="1" fill="none" fill-rule="evenodd">
        <g id="Buy-Page" transform="translate(-123.000000, -1140.000000)" fill-rule="nonzero" fill="#CFA788">
            <g id="noun_1158240_cc-copy" transform="translate(123.000000, 1140.000000)">
                <path d="M30.5,0 C13.6628423,0 0,13.662841 0,30.5 C0,47.337159 13.662841,61 30.5,61 C47.337159,61 61,47.337159 61,30.5 C61,13.662841 47.337159,-2.54166667e-07 30.5,0 Z M30.5,1.27083333 C46.6503498,1.27083308 59.7291667,14.3496502 59.7291667,30.5 C59.7291667,46.6503498 46.6503498,59.7291667 30.5,59.7291667 C14.3496514,59.7291667 1.27083333,46.6503498 1.27083333,30.5 C1.27083333,14.3496514 14.3496514,1.27083333 30.5,1.27083333 Z" id="Shape"></path>
                <g id="noun_1069491_cc-copy" transform="translate(18.000000, 12.000000)" stroke="#CFA788" stroke-width="0.4">
                    <g id="Group">
                        <path d="M24.5272867,11.8998375 C24.5272867,5.45588217 19.1162036,0.171838809 12.4188793,0.171838809 C5.72155513,0.171838809 0.310471984,5.45588217 0.310471984,11.8998375 C0.310471984,15.3366137 1.8628319,18.4297122 4.30225463,20.5776973 L3.7256638,36.773505 C3.7256638,37.1171827 3.90307637,37.3749409 4.21354835,37.50382 C4.52402033,37.6326991 4.83449232,37.5897394 5.10061116,37.3749409 L12.4188793,32.6064139 L12.4188793,32.6064139 L19.7815007,37.4179006 C19.9145601,37.5467797 20.1363258,37.5897394 20.3137384,37.5897394 C20.4467978,37.5897394 20.5355041,37.5467797 20.6685635,37.50382 C20.9790355,37.3749409 21.156448,37.074223 21.156448,36.7305453 L20.5355041,20.620657 C23.0192799,18.4726719 24.5272867,15.3795734 24.5272867,11.8998375 Z M1.19753479,11.8998375 C1.19753479,5.9284389 6.20943967,1.03103285 12.4188793,1.03103285 C18.628319,1.03103285 23.6402239,5.9284389 23.6402239,11.8998375 C23.6402239,17.8712361 18.628319,22.8116018 12.4188793,22.8116018 C6.20943967,22.8116018 1.19753479,17.9141958 1.19753479,11.8998375 Z M20.2693852,36.7305453 L12.951117,31.9190587 C12.640645,31.6613005 12.1971136,31.6613005 11.8866417,31.9190587 L4.61272661,36.7305453 L5.1449643,21.3080123 C7.18520876,22.7686421 9.71333777,23.6707959 12.4188793,23.6707959 C15.1244209,23.6707959 17.6525499,22.8116018 19.6927944,21.3080123 L20.2693852,36.7305453 Z" id="Shape"></path>
                        <polygon id="Shape" points="17.3420779 9.10745686 16.721134 8.50602103 11.3100508 13.7471047 8.11662471 10.6540061 7.49568075 11.255442 11.3100508 14.9499763"></polygon>
                    </g>
                </g>
            </g>
        </g>
    </g>
</svg>