<?xml version="1.0" encoding="UTF-8"?>
<svg width="61px" height="61px" viewBox="0 0 61 61" version="1.1" xmlns="http://www.w3.org/2000/svg">
    <!-- Generator: Sketch 46.2 (44496) - http://www.bohemiancoding.com/sketch -->
    <title>noun_1158240_cc</title>
    <desc>Created with Sketch.</desc>
    <defs></defs>
    <g id="Welcome-Page" stroke="none" stroke-width="1" fill="none" fill-rule="evenodd">
        <g id="Buy-Page" transform="translate(-123.000000, -1050.000000)" fill-rule="nonzero" fill="#CFA788">
            <g id="noun_1158240_cc" transform="translate(123.000000, 1050.000000)">
                <path d="M30.5,0 C13.6628423,0 0,13.662841 0,30.5 C0,47.337159 13.662841,61 30.5,61 C47.337159,61 61,47.337159 61,30.5 C61,13.662841 47.337159,-2.54166667e-07 30.5,0 Z M30.5,1.27083333 C46.6503498,1.27083308 59.7291667,14.3496502 59.7291667,30.5 C59.7291667,46.6503498 46.6503498,59.7291667 30.5,59.7291667 C14.3496514,59.7291667 1.27083333,46.6503498 1.27083333,30.5 C1.27083333,14.3496514 14.3496514,1.27083333 30.5,1.27083333 Z M19.6979167,19.0625 C17.9467083,19.0625 16.5208333,20.488375 16.5208333,22.2395833 L16.5208333,38.7604167 C16.5208333,40.5128958 17.9467083,41.9375 19.6979167,41.9375 L41.3020833,41.9375 C43.0532917,41.9375 44.4791667,40.5128958 44.4791667,38.7604167 L44.4791667,27.3229167 C44.4791667,25.5717083 43.0532917,24.1458333 41.3020833,24.1458333 L40.6666667,24.1458333 L40.6666667,22.2395833 C40.6666667,20.488375 39.2407917,19.0625 37.4895833,19.0625 L19.6979167,19.0625 Z M19.6979167,20.3333333 L37.4895833,20.3333333 C38.5405625,20.3333333 39.3958333,21.1886042 39.3958333,22.2395833 L39.3958333,24.1458333 L27.9583333,24.1458333 L19.6979167,24.1458333 C18.6469375,24.1458333 17.7916667,23.2905625 17.7916667,22.2395833 C17.7916667,21.1886042 18.6469375,20.3333333 19.6979167,20.3333333 Z M17.7916667,24.7638752 C18.3241458,25.1680002 18.9798958,25.4166667 19.6979167,25.4166667 L27.9583333,25.4166667 L39.9766436,25.4166667 L40.03125,25.4166667 L41.3020833,25.4166667 C42.3530625,25.4166667 43.2083333,26.2719375 43.2083333,27.3229167 L43.2083333,27.3402915 C42.6758529,26.936169 42.0201042,26.6875 41.3020833,26.6875 L19.6979167,26.6875 C18.6469375,26.6875 17.7916667,25.8322292 17.7916667,24.78125 L17.7916667,24.7638752 Z M17.7916667,27.3055418 C18.3241458,27.7096668 18.9798958,27.9583333 19.6979167,27.9583333 L41.3020833,27.9583333 C42.3530625,27.9583333 43.2083333,28.8136042 43.2083333,29.8645833 L43.2083333,30.5 L38.7728276,30.5 C37.0216193,30.5 35.5957443,31.9246042 35.5957443,33.6770833 C35.5957443,35.4295625 37.0216193,36.8541667 38.7728276,36.8541667 L43.0916746,36.8541667 C42.8286121,37.5925208 42.1293958,38.125 41.3020833,38.125 L19.6979167,38.125 C18.6469375,38.125 17.7916667,37.2697292 17.7916667,36.21875 L17.7916667,27.3055418 Z M38.7728276,31.7708333 L43.2083333,31.7708333 L43.2083333,35.5833333 L38.7728276,35.5833333 C37.7218485,35.5833333 36.8665776,34.7280625 36.8665776,33.6770833 C36.8665776,32.6261042 37.7218485,31.7708333 38.7728276,31.7708333 Z M38.7604167,33.0416667 C38.4094857,33.0416667 38.125,33.3261524 38.125,33.6770833 C38.125,34.0280143 38.4094857,34.3125 38.7604167,34.3125 C39.1113476,34.3125 39.3958333,34.0280143 39.3958333,33.6770833 C39.3958333,33.3261524 39.1113476,33.0416667 38.7604167,33.0416667 Z M17.7916667,38.7430418 C18.3241458,39.1471668 18.9798958,39.3958333 19.6979167,39.3958333 L41.3020833,39.3958333 C42.0201042,39.3958333 42.6758542,39.1471668 43.2083333,38.7430418 L43.2083333,38.7604167 C43.2083333,39.8113958 42.3530625,40.6666667 41.3020833,40.6666667 L19.6979167,40.6666667 C18.6469375,40.6666667 17.7916667,39.8113958 17.7916667,38.7604167 L17.7916667,38.7430418 Z" id="Shape"></path>
            </g>
        </g>
    </g>
</svg>