<?xml version="1.0" encoding="UTF-8"?>
<svg width="61px" height="61px" viewBox="0 0 61 61" version="1.1" xmlns="http://www.w3.org/2000/svg">
    <!-- Generator: Sketch 46.2 (44496) - http://www.bohemiancoding.com/sketch -->
    <title>noun_1158249_cc</title>
    <desc>Created with Sketch.</desc>
    <defs></defs>
    <g id="Welcome-Page" stroke="none" stroke-width="1" fill="none" fill-rule="evenodd">
        <g id="Buy-Page" transform="translate(-123.000000, -958.000000)" fill-rule="nonzero" fill="#CFA788">
            <g id="noun_1158249_cc" transform="translate(123.000000, 958.000000)">
                <path d="M30.5,0 C13.6628423,0 9.02981399e-15,13.662841 0,30.5 C0,47.337159 13.662841,61 30.5,61 C47.337159,61 61,47.337159 61,30.5 C61,13.662841 47.337159,0 30.5,0 Z M30.5,1.27083333 C46.6503498,1.27083333 59.7291667,14.3496502 59.7291667,30.5 C59.7291667,46.6503498 46.6503498,59.7291667 30.5,59.7291667 C14.3496514,59.7291667 1.27083333,46.6503498 1.27083333,30.5 C1.27083333,14.3496514 14.3496514,1.27083333 30.5,1.27083333 Z M35.5758875,13.9841305 C32.8601167,13.9841305 30.3091768,15.0411462 28.3902184,16.9626462 C24.8878018,20.4650628 24.4849082,25.9072681 27.1739903,29.8621014 L25.2454015,31.7906901 L24.7961429,31.3389483 C24.5483304,31.0911358 24.1454368,31.0911358 23.8976243,31.3389483 L14.909953,40.3266196 C14.3088488,40.926453 13.9791667,41.724 13.9791667,42.5729167 C13.9791667,43.4205625 14.3101196,44.2181095 14.909953,44.8192137 C15.5097863,45.4203179 16.3086042,45.75 17.15625,45.75 C18.0051667,45.75 18.8027137,45.419047 19.402547,44.8192137 L28.3902184,35.8340255 C28.6380309,35.586213 28.6380309,35.1833182 28.3902184,34.9355057 L27.9384766,34.4862471 L29.8670653,32.5576584 C31.5839611,33.7255542 33.5781375,34.3125 35.5758875,34.3125 C38.179825,34.3125 40.7852913,33.3214483 42.7665205,31.3389483 C44.6880205,29.4187191 45.7450361,26.8677791 45.7450361,24.1532791 C45.7450361,21.4362375 44.6880205,18.8816045 42.7665205,16.9626462 C40.8462913,15.0411462 38.2916584,13.9841305 35.5758875,13.9841305 Z M35.5758875,15.2549639 C37.9523459,15.2549639 40.1879603,16.1811231 41.8680007,17.861166 C43.5480436,19.5412064 44.4742028,21.7768208 44.4742028,24.1532791 C44.4742028,26.5284666 43.5493144,28.760388 41.8680007,30.4404297 C38.4011673,33.907263 32.7568411,33.9085339 29.288737,30.4404297 C25.8206328,26.9723255 25.8206328,21.3292689 29.288737,17.861166 C30.9687786,16.1811231 33.2007,15.2549639 35.5758875,15.2549639 Z M35.5783695,16.5257972 C34.9145179,16.5257972 34.2513221,16.611731 33.6051021,16.7839352 C32.3139367,17.1296019 31.1327555,17.8141846 30.1872555,18.7596846 C29.939443,19.0074971 29.939443,19.4103906 30.1872555,19.6582031 C30.3117972,19.7827448 30.4738488,19.8443599 30.6365155,19.8443599 C30.7991821,19.8443599 30.9637156,19.781479 31.0882573,19.6582031 C31.876174,18.8702865 32.8600964,18.3035342 33.9352214,18.015055 C35.0103464,17.7240342 36.1488745,17.7240342 37.2239995,18.015055 C37.5696662,18.09893 37.9118774,17.9026244 38.0033774,17.5633132 C38.0923358,17.2252715 37.889676,16.8754352 37.5516356,16.7839352 C36.9060522,16.6117373 36.242221,16.5257972 35.5783695,16.5257972 Z M39.4777424,17.7991125 C39.3169819,17.8270708 39.1654732,17.9179748 39.065714,18.0622156 C38.8636515,18.349424 38.9348779,18.7450496 39.2220863,18.9458413 C39.3733154,19.0525913 39.521567,19.1652189 39.6639004,19.2834064 C39.8036908,19.4028648 39.9400677,19.5273073 40.0709635,19.6582031 C40.1955052,19.7827448 40.3575568,19.8443599 40.5202235,19.8443599 C40.6828901,19.8443599 40.8449404,19.781479 40.9694821,19.6582031 C41.2172946,19.4103906 41.2172946,19.0074971 40.9694821,18.7596846 C40.8118988,18.6021012 40.6483196,18.4515469 40.4780267,18.3079427 C40.307735,18.1668802 40.1335521,18.0316559 39.9518229,17.9058434 C39.8088542,17.8048122 39.6385028,17.7711478 39.4777424,17.7991125 Z M27.9384766,30.8921715 L28.8369951,31.7906901 L27.039958,33.5877285 L26.1414382,32.6892087 L27.9384766,30.8921715 Z M24.346883,32.6867267 L24.7961429,33.1359866 L26.59318,34.9330238 L27.0424399,35.3847656 L18.5040285,43.9206951 C17.7860076,44.6399868 16.529034,44.6425285 15.8084715,43.9206951 C15.4488257,43.5610493 15.2524819,43.0825208 15.2524819,42.5729167 C15.2524819,42.0633125 15.4488257,41.5860549 15.8084715,41.2251382 L24.346883,32.6867267 Z" id="Shape"></path>
            </g>
        </g>
    </g>
</svg>