<?xml version="1.0" encoding="UTF-8"?>
<svg width="61px" height="61px" viewBox="0 0 61 61" version="1.1" xmlns="http://www.w3.org/2000/svg">
    <!-- Generator: Sketch 46.2 (44496) - http://www.bohemiancoding.com/sketch -->
    <title>Certificate Icon</title>
    <desc>Created with Sketch.</desc>
    <defs></defs>
    <g id="Welcome-Page" stroke="none" stroke-width="1" fill="none" fill-rule="evenodd">
        <g id="Giftcard-Page" transform="translate(-207.000000, -1197.000000)" fill="#CFA788">
            <g id="Certificate-Icon" transform="translate(207.000000, 1197.000000)">
                <g id="Page-1" transform="translate(12.000000, 17.000000)" stroke="#CFA788" stroke-width="0.5">
                    <path d="M30.0316667,18.6057143 C30.0316667,17.3485714 28.9833333,16.28 27.75,16.28 C26.5166667,16.28 25.4683333,17.3485714 25.4683333,18.6057143 C25.4683333,19.8628571 26.5166667,20.9314286 27.75,20.9314286 C28.9833333,20.9314286 30.0316667,19.8628571 30.0316667,18.6057143 M30.8333333,18.6057143 C30.8333333,20.3028571 29.4766667,21.7485714 27.75,21.7485714 C26.0233333,21.7485714 24.6666667,20.3657143 24.6666667,18.6057143 C24.6666667,16.8457143 26.0233333,15.4628571 27.75,15.4628571 C29.4766667,15.4628571 30.8333333,16.8457143 30.8333333,18.6057143 M19.1166667,21.56 L4.13166667,21.56 C3.885,21.56 3.76166667,21.7485714 3.76166667,21.9371429 C3.76166667,22.1885714 3.94666667,22.3142857 4.13166667,22.3142857 L19.1166667,22.3142857 C19.3633333,22.3142857 19.48605,22.1257143 19.48605,21.9371429 C19.5483333,21.7485714 19.3633333,21.56 19.1166667,21.56 M19.1166667,17.16 L4.13166667,17.16 C3.885,17.16 3.76166667,17.3485714 3.76166667,17.5371429 C3.76166667,17.7885714 3.94666667,17.9142857 4.13166667,17.9142857 L19.1166667,17.9142857 C19.3633333,17.9142857 19.48605,17.7257143 19.48605,17.5371429 C19.5483333,17.3485714 19.3633333,17.16 19.1166667,17.16 M30.9566667,24.3885714 C30.71,24.3885714 30.58605,24.5771429 30.58605,24.7657143 L30.58605,31.8057143 L28.1193833,29.9828571 C27.9966667,29.8571429 27.81105,29.8571429 27.6883333,29.9828571 L25.2216667,31.8057143 L25.2216667,24.7657143 C25.2216667,24.5142857 25.03605,24.3885714 24.8516667,24.3885714 C24.605,24.3885714 24.4816667,24.5771429 24.4816667,24.7657143 L24.4816667,32.56 C24.4816667,32.6857143 24.5433333,32.8742857 24.6666667,32.9371429 C24.79,33 24.975,33 25.0983333,32.9371429 L27.9966667,30.8628571 L30.8943833,32.9371429 C30.9566667,33 31.0183333,33 31.1416667,33 C31.2027167,33 31.265,33 31.3266667,32.9371429 C31.45,32.8742857 31.51105,32.7485714 31.51105,32.56 L31.51105,24.7657143 C31.3266667,24.5771429 31.1416667,24.3885714 30.9566667,24.3885714 M32.0666667,19.9885714 C32.1277167,19.7371429 32.3133333,19.4857143 32.4983333,19.2342857 C32.6833333,18.9828571 32.8683333,18.7314286 32.8683333,18.5428571 C32.8683333,18.3542857 32.6833333,18.1028571 32.4983333,17.8514286 C32.3133333,17.6 32.19,17.4114286 32.0666667,17.0971429 C32.005,16.7828571 32.005,16.5314286 32.005,16.2171429 C32.005,15.9028571 32.005,15.6514286 31.8816667,15.4628571 C31.7583333,15.3371429 31.51105,15.2114286 31.2027167,15.1485714 C30.9566667,15.0857143 30.6483333,14.96 30.4016667,14.7714286 C30.155,14.5828571 29.9693833,14.3314286 29.8466667,14.1428571 C29.66105,13.8914286 29.4766667,13.64 29.2916667,13.5771429 C29.1066667,13.5142857 28.86,13.64 28.5516667,13.7028571 C28.3666667,13.8285714 28.0583333,13.9542857 27.75,13.9542857 C27.4416667,13.9542857 27.1333333,13.8285714 26.88605,13.7657143 C26.5777167,13.64 26.3316667,13.5771429 26.1466667,13.64 C25.96105,13.7028571 25.7766667,13.9542857 25.5916667,14.2057143 C25.4066667,14.4571429 25.2833333,14.7085714 25.03605,14.8342857 C24.79,15.0228571 24.5433333,15.0857143 24.235,15.2114286 C23.9266667,15.2742857 23.68,15.4 23.5566667,15.5257143 C23.4333333,15.6514286 23.4333333,15.9657143 23.4333333,16.28 C23.4333333,16.5942857 23.4333333,16.8457143 23.3716667,17.16 C23.31,17.4114286 23.125,17.6628571 22.94,17.9142857 C22.755,18.1657143 22.5693833,18.4171429 22.5693833,18.6057143 C22.5693833,18.7942857 22.755,19.0457143 22.94,19.2971429 C23.125,19.5485714 23.31,19.7371429 23.3716667,20.0514286 C23.4333333,20.3657143 23.4333333,20.6171429 23.4333333,20.9314286 C23.4333333,21.2457143 23.4333333,21.4971429 23.5566667,21.6857143 C23.68,21.8114286 23.9266667,21.9371429 24.235,22 C24.4816667,22.0628571 24.79,22.1885714 25.03605,22.3771429 C25.2833333,22.5657143 25.4683333,22.8171429 25.5916667,23.0057143 C25.7766667,23.2571429 25.96105,23.5085714 26.1466667,23.5714286 C26.3316667,23.6342857 26.5777167,23.5085714 26.88605,23.4457143 C27.1333333,23.3828571 27.4416667,23.2571429 27.75,23.2571429 C28.0583333,23.2571429 28.3666667,23.3828571 28.6133333,23.4457143 C28.9216667,23.5714286 29.1683333,23.6342857 29.3527167,23.5714286 C29.5383333,23.5085714 29.7233333,23.2571429 29.9083333,23.0057143 C30.0933333,22.7542857 30.2166667,22.5028571 30.4633333,22.3771429 C30.71,22.1885714 30.9566667,22.1257143 31.265,22 C31.5733333,21.9371429 31.8193833,21.8114286 31.9433333,21.6857143 C32.0666667,21.56 32.0666667,21.2457143 32.0666667,20.9314286 C32.005,20.6171429 32.005,20.3028571 32.0666667,19.9885714 M31.45,22.7542857 C31.2027167,22.8171429 31.0183333,22.88 30.8943833,23.0057143 C30.7716667,23.1314286 30.6483333,23.2571429 30.525,23.5085714 C30.2777167,23.8228571 30.0316667,24.2 29.6,24.3257143 C29.4766667,24.3885714 29.3527167,24.3885714 29.23,24.3885714 C28.9216667,24.3885714 28.675,24.3257143 28.3666667,24.2 C28.1193833,24.1371429 27.935,24.0742857 27.75,24.0742857 C27.565,24.0742857 27.38,24.1371429 27.1333333,24.2 C26.88605,24.2628571 26.5777167,24.3885714 26.2693833,24.3885714 C26.1466667,24.3885714 26.0233333,24.3885714 25.9,24.3257143 C25.4683333,24.2 25.2216667,23.8228571 24.975,23.5085714 C24.8516667,23.32 24.7277167,23.1314286 24.605,23.0057143 C24.4816667,22.88 24.235,22.8171429 24.05,22.7542857 C23.68,22.6285714 23.2483333,22.5028571 23.0016667,22.1257143 C22.755,21.7485714 22.755,21.3085714 22.755,20.9314286 C22.755,20.68 22.755,20.4914286 22.6933333,20.3028571 C22.6316667,20.1771429 22.5083333,19.9885714 22.385,19.8 C22.1383333,19.4857143 21.8916667,19.1085714 21.8916667,18.6057143 C21.8916667,18.1657143 22.1383333,17.7885714 22.385,17.4114286 C22.5083333,17.2228571 22.6316667,17.0342857 22.6933333,16.9085714 C22.755,16.72 22.755,16.5314286 22.755,16.28 C22.755,15.9028571 22.755,15.4 23.0016667,15.0857143 C23.2483333,14.7085714 23.68,14.5828571 24.05,14.4571429 C24.2966667,14.3942857 24.4816667,14.3314286 24.605,14.2057143 C24.7277167,14.08 24.8516667,13.9542857 24.975,13.7028571 C25.2216667,13.3885714 25.4683333,13.0114286 25.9,12.8857143 C26.0233333,12.8228571 26.1466667,12.8228571 26.2693833,12.8228571 C26.5777167,12.8228571 26.825,12.8857143 27.1333333,13.0114286 C27.38,13.0742857 27.565,13.1371429 27.75,13.1371429 C27.935,13.1371429 28.1193833,13.0742857 28.3666667,13.0114286 C28.6133333,12.9485714 28.9216667,12.8228571 29.23,12.8228571 C29.3527167,12.8228571 29.4766667,12.8228571 29.6,12.8857143 C30.0316667,13.0114286 30.2777167,13.3885714 30.525,13.7028571 C30.6483333,13.8914286 30.7716667,14.08 30.8943833,14.2057143 C31.0183333,14.3314286 31.265,14.3942857 31.45,14.4571429 C31.8193833,14.5828571 32.2516667,14.7085714 32.4983333,15.0857143 C32.7443833,15.4628571 32.7443833,15.9028571 32.7443833,16.28 C32.7443833,16.5314286 32.7443833,16.72 32.8066667,16.9085714 C32.8683333,17.0342857 32.9916667,17.2228571 33.115,17.4114286 C33.36105,17.7257143 33.6083333,18.1028571 33.6083333,18.6057143 C33.6083333,19.0457143 33.36105,19.4228571 33.115,19.8 C32.9916667,19.9885714 32.8683333,20.1771429 32.8066667,20.3028571 C32.7443833,20.4914286 32.7443833,20.68 32.7443833,20.9314286 C32.7443833,21.3085714 32.7443833,21.8114286 32.4983333,22.1257143 C32.2516667,22.5028571 31.8193833,22.6285714 31.45,22.7542857 M36.63,0 L0.37,0 C0.123333333,0 0,0.188571429 0,0.377142857 L0,27.28 C0,27.5314286 0.185,27.6571429 0.37,27.6571429 L22.94,27.6571429 C23.18605,27.6571429 23.31,27.4685714 23.31,27.28 C23.31,27.0914286 23.125,26.9028571 22.94,26.9028571 L0.74,26.9028571 L0.74,0.754285714 L36.1983333,0.754285714 L36.1983333,26.9028571 L32.56,26.9028571 C32.3133333,26.9028571 32.19,27.0914286 32.19,27.28 C32.19,27.4685714 32.375,27.6571429 32.56,27.6571429 L36.63,27.6571429 C36.8766667,27.6571429 37,27.4685714 37,27.28 L37,0.377142857 C37,0.125714286 36.815,0 36.63,0 M19.1166667,12.8228571 L4.13166667,12.8228571 C3.885,12.8228571 3.76166667,13.0114286 3.76166667,13.2 C3.76166667,13.4514286 3.94666667,13.5771429 4.13166667,13.5771429 L19.1166667,13.5771429 C19.3633333,13.5771429 19.48605,13.3885714 19.48605,13.2 C19.5483333,13.0114286 19.3633333,12.8228571 19.1166667,12.8228571 M29.66105,5.97142857 L7.33833333,5.97142857 C7.09166667,5.97142857 6.96833333,5.78285714 6.96833333,5.59428571 C6.96833333,5.34285714 7.15333333,5.21714286 7.33833333,5.21714286 L29.66105,5.21714286 C29.9083333,5.21714286 30.0316667,5.40571429 30.0316667,5.59428571 C30.0316667,5.78285714 29.9083333,5.97142857 29.66105,5.97142857" id="Fill-1"></path>
                </g>
                <path d="M30.5,0 C13.6628423,0 9.02981399e-15,13.662841 0,30.5 C0,47.337159 13.662841,61 30.5,61 C47.337159,61 61,47.337159 61,30.5 C61,13.662841 47.337159,0 30.5,0 Z M30.5,1.27083333 C46.6503498,1.27083333 59.7291667,14.3496502 59.7291667,30.5 C59.7291667,46.6503498 46.6503498,59.7291667 30.5,59.7291667 C14.3496514,59.7291667 1.27083333,46.6503498 1.27083333,30.5 C1.27083333,14.3496514 14.3496514,1.27083333 30.5,1.27083333 Z" id="Shape" fill-rule="nonzero"></path>
            </g>
        </g>
    </g>
</svg>