<?xml version="1.0" encoding="UTF-8"?>
<svg width="70px" height="70px" viewBox="0 0 70 70" version="1.1" xmlns="http://www.w3.org/2000/svg" xmlns:xlink="http://www.w3.org/1999/xlink">
    <!-- Generator: Sketch 49 (51002) - http://www.bohemiancoding.com/sketch -->
    <title>1</title>
    <desc>Created with Sketch.</desc>
    <defs></defs>
    <g id="Page-1" stroke="none" stroke-width="1" fill="none" fill-rule="evenodd">
        <g id="Product-page-1(sold_out)" transform="translate(-750.000000, -1370.000000)">
            <g id="About-Product" transform="translate(720.000000, 940.000000)">
                <g id="Наши-привилегии" transform="translate(30.000000, 430.000000)">
                    <g id="Доставка">
                        <g id="1">
                            <circle id="Oval-4" stroke="#B5B5B5" cx="35" cy="35" r="34.5"></circle>
                            <g id="ICN-Delivery" transform="translate(16.000000, 23.000000)" fill="#000000" fill-rule="nonzero">
                                <path d="M23.1284263,21.892952 C23.1260455,21.892973 23.1236623,21.8929836 23.1212766,21.8929836 L12.9824624,21.8929836 C12.6091809,23.9515695 10.8069607,25.5126557 8.64010638,25.5126557 C6.47325203,25.5126557 4.67103184,23.9515695 4.29775034,21.8929836 L1,21.8929836 C0.562590506,21.8929836 0.208000051,21.5383931 0.208000051,21.1009836 L0.208000051,1 C0.208000051,0.562590506 0.562590506,0.208000051 1,0.208000051 L23.1212766,0.208000051 C23.5586861,0.208000051 23.9132765,0.562590506 23.9132765,1 L23.9132765,4.22898366 L33.5757447,4.22898366 C33.8674275,4.22898366 34.1355027,4.38930825 34.2735002,4.64628216 L38.6977555,12.8849707 C38.7596217,13.0001757 38.7919999,13.1289066 38.7919999,13.2596721 L38.7919999,18.8386885 C38.7919999,18.9289495 38.7765707,19.0185464 38.7463789,19.1036082 L37.9434002,21.3659032 C37.8312515,21.6818685 37.5322993,21.8929836 37.1970213,21.8929836 L36.3082071,21.8929836 C35.9349256,23.9515695 34.1327054,25.5126557 31.9658511,25.5126557 C29.7989967,25.5126557 27.9967765,23.9515695 27.623495,21.8929836 L23.135576,21.8929836 C23.1331903,21.8929836 23.130807,21.892973 23.1284263,21.892952 Z M27.623495,20.3089837 C27.9967765,18.2503977 29.7989967,16.6893115 31.9658511,16.6893115 C34.1327054,16.6893115 35.9349256,18.2503977 36.3082071,20.3089837 L36.6377242,20.3089837 L37.2080001,18.7023006 L37.2080001,13.458875 L33.1020825,5.81298356 L23.9275759,5.81298356 L23.9275759,20.3089837 L27.623495,20.3089837 Z M29.1374321,21.171297 C29.1747732,22.7004132 30.4267277,23.9286558 31.9658511,23.9286558 C33.528496,23.9286558 34.7951277,22.6625852 34.7951277,21.1009836 C34.7951277,19.539382 33.528496,18.2733114 31.9658511,18.2733114 C30.4267277,18.2733114 29.1747732,19.501554 29.1374321,21.0306702 C29.13947,21.0538362 29.1405106,21.0772884 29.1405106,21.1009836 C29.1405106,21.1246789 29.13947,21.1481311 29.1374321,21.171297 Z M4.29775034,20.3089837 C4.67103184,18.2503977 6.47325203,16.6893115 8.64010638,16.6893115 C10.8069607,16.6893115 12.6091809,18.2503977 12.9824624,20.3089837 L22.3292766,20.3089837 L22.3292766,1.79199995 L1.79199995,1.79199995 L1.79199995,20.3089837 L4.29775034,20.3089837 Z M5.81168739,21.171297 C5.84902853,22.7004132 7.10098306,23.9286558 8.64010638,23.9286558 C10.2027513,23.9286558 11.469383,22.6625852 11.469383,21.1009836 C11.469383,19.539382 10.2027513,18.2733114 8.64010638,18.2733114 C7.10098306,18.2733114 5.84902853,19.501554 5.81168739,21.0306702 C5.81372533,21.0538362 5.81476591,21.0772884 5.81476591,21.1009836 C5.81476591,21.1246789 5.81372533,21.1481311 5.81168739,21.171297 Z M34.0205319,12.2457704 L27.3841489,12.2457704 C26.9467394,12.2457704 26.592149,11.89118 26.592149,11.4537705 L26.592149,7.83409836 C26.592149,7.39668887 26.9467394,7.04209841 27.3841489,7.04209841 L32.0681915,7.04209841 C32.3593545,7.04209841 32.6270396,7.20185738 32.7652602,7.45812081 L34.7176006,11.0777929 C35.0022101,11.6054637 34.6200642,12.2457704 34.0205319,12.2457704 Z M31.5955125,8.62609831 L28.1761489,8.62609831 L28.1761489,10.6617705 L32.6934919,10.6617705 L31.5955125,8.62609831 Z" id="ICN-Deliver"></path>
                            </g>
                        </g>
                    </g>
                </g>
            </g>
        </g>
    </g>
</svg>