<svg id="Слой_1" data-name="Слой 1" xmlns="http://www.w3.org/2000/svg" xmlns:xlink="http://www.w3.org/1999/xlink" viewBox="0 0 78 80"><defs><style>.cls-1,.cls-2,.cls-5{fill:none;}.cls-2,.cls-4{clip-path:url(#clip-path);}.cls-2{clip-rule:evenodd;}.cls-3{clip-path:url(#clip-path-2);}.cls-5{stroke:#cfa687;stroke-miterlimit:10;}</style><clipPath id="clip-path"><rect class="cls-1" x="1.5" y="0.74" width="74.5" height="78.26"/></clipPath><clipPath id="clip-path-2"><path class="cls-2" d="M38.75,78.29c20.2,0,36.58-17.2,36.58-38.42S59,1.45,38.75,1.45,2.17,18.65,2.17,39.87,18.55,78.29,38.75,78.29Z"/></clipPath></defs><title>Монтажная область 1</title><g class="cls-3"><rect class="cls-1" x="-1.18" y="-2.08" width="79.87" height="83.9"/></g><g class="cls-4"><path class="cls-5" d="M38.75,78.29c20.2,0,36.58-17.2,36.58-38.42S59,1.45,38.75,1.45,2.17,18.65,2.17,39.87,18.55,78.29,38.75,78.29Zm1.93-47.82V28H39.8V25.49h3a.57.57,0,0,0,0-1.13h-8a.57.57,0,0,0,0,1.13h3V28h-.88v2.52c-8.23,1-14.62,8.38-14.62,17.33H55.3c0-8.94-6.39-16.32-14.62-17.33ZM59,51.67a3,3,0,0,0-2.86-3H21.38a3,3,0,0,0-2.86,3c0,1.67-3,3-1.4,3H60.39c1.58,0-1.4-1.35-1.4-3Zm-31.24-7Q28.27,37.32,34,35t-6.23,9.7Z"/></g></svg>