<svg version="1.1" id="Слой_1" xmlns="http://www.w3.org/2000/svg" xmlns:xlink="http://www.w3.org/1999/xlink" x="0px" y="0px"
	 viewBox="0 0 85 88.1" style="enable-background:new 0 0 85 88.1;" xml:space="preserve">
<style type="text/css">
	.sth5e6h0{fill:none;stroke:#000000;stroke-miterlimit:10;}
</style>
<path id="Path-9" class="sth5e6h0" d="M81.8,53.9c5,9.6-2.3,25.2-9.3,28.8c-7,3.6-11.2,5.7-23.6,1.5c-12.4-4.2-29.2-11.6-33.3-13.3
	s-2-10.3,3.8-8.6s13.1,6.9,15.2,4.5c2.1-2.4-1-5.8-3.6-11.4C28.4,49.7,16,25,14.3,21.2s-0.4-6.7,1.5-7.4c1.9-0.7,5.3-0.3,6.9,3.5
	S34,39.9,35.1,41.6c1.1,1.7,3.8,1,2.5-1.7c-1.4-2.7-2.8-5.5-3.8-7.8c-1-2.3,5.3-8.2,7.3-4.1c2,4.1,4.8,9.2,6.4,11.4
	c1.6,2.2,3.4,0.5,2.3-1.4c-1.1-1.9-2.9-5.4-4.1-8s4.8-7.5,7.5-4.5s5.6,9.5,6.7,11.3s3.9,0.7,2.4-1.5c-1.5-2.2-3.6-5.9,0-7.9
	s6.2-0.7,7.4,2.4S76.8,44.3,81.8,53.9z"/>
<g>
	<path class="sth5e6h0" d="M26.6,78.1c-2.7,2.1-6,3.4-9.7,3.4C8.4,81.5,1.5,74.6,1.5,66c0-6.6,4.1-12.2,9.9-14.4l2.8-9.1l-3.5-11.3
		C5.3,28.8,1.5,23.4,1.5,17C1.5,8.5,8.4,1.5,17,1.5S32.5,8.5,32.5,17c0,3.3-1,6.4-2.8,8.9"/>
	<path class="sth5e6h0" d="M21.5,40.2l-0.7,2.3l2.9,9.6c4.8,2.3,8.3,7.1,8.7,12.7"/>
</g>
</svg>
