<svg version="1.1" id="Слой_1" xmlns="http://www.w3.org/2000/svg" xmlns:xlink="http://www.w3.org/1999/xlink" x="0px" y="0px"
	 viewBox="0 0 79.1 96.4" style="enable-background:new 0 0 79.1 96.4;" xml:space="preserve">
<style type="text/css">
	.st76rv780{fill:none;stroke:#000000;stroke-miterlimit:10;}
</style>
<g>
	<path class="st76rv780" d="M46.8,21L24.6,2.2l28.7,7.2C55,8,57.1,7,59.4,6.5c8.4-1.8,16.6,3.6,18.4,11.9c1.8,8.4-3.6,16.6-11.9,18.4
		c-3.3,0.7-6.6,0.3-9.4-1"/>
</g>
<path id="Path-9" class="st76rv780" d="M38.1,91.8c-8.5,6.7-25.1,2.6-30-3.6s-7.8-9.9-6-22.9c1.7-13,5.8-30.9,6.7-35.2
	c0.9-4.3,9.7-3.9,9.2,2c-0.5,5.9-4.3,14.2-1.5,15.8s5.5-2.1,10.5-5.7c5-3.6,26.9-20.5,30.3-23s6.5-1.6,7.5,0.1
	c1,1.7,1.4,5.2-2.1,7.4s-20,15.4-21.4,16.8c-1.4,1.4-0.3,4,2.1,2.1c2.4-1.9,4.8-3.8,6.9-5.3s9.1,3.6,5.4,6.4
	c-3.6,2.8-8.1,6.5-10,8.4c-1.9,2,0.2,3.5,1.8,2c1.6-1.4,4.8-3.8,7-5.6c2.3-1.7,8.3,3.3,5.9,6.5c-2.4,3.2-8.3,7.3-9.9,8.7
	c-1.6,1.4,0.1,3.9,1.9,2c1.8-1.9,5.1-4.6,7.7-1.5c2.6,3.2,1.9,5.9-0.9,7.7C56.7,76.9,46.6,85,38.1,91.8z"/>
</svg>
