<?xml version="1.0" encoding="utf-8"?>
<!-- Generator: Adobe Illustrator 21.1.0, SVG Export Plug-In . SVG Version: 6.00 Build 0)  -->
<svg version="1.1" id="Слой_1" xmlns="http://www.w3.org/2000/svg"  x="0px" y="0px"
	 viewBox="0 0 14.1 14.1" style="enable-background:new 0 0 14.1 14.1;" xml:space="preserve">
<style type="text/css">
	.st0{fill:#010101;}
</style>
<title>help</title>
<path d="M7,14.1c-3.9,0-7-3.2-7-7s3.2-7,7-7s7,3.2,7,7S10.9,14.1,7,14.1z M7,1C3.7,1,1,3.7,1,7c0,3.3,2.7,6,6,6c3.3,0,6-2.7,6-6
	C13.1,3.7,10.4,1,7,1z"/>
<path class="st0" d="M7.1,9.1c0.2-0.5,1.8-2.9,0.7-3.6C7.1,5.2,6.3,5.3,5.7,5.8v0.4c0.4-0.1,0.8-0.1,0.9,0.2c0.3,0.8-0.7,2.1-1,2.8
	c-0.7,1.9,1,2.1,2.3,1.3v-0.4C7.2,10.3,6.7,10.1,7.1,9.1z"/>
<circle class="st0" cx="7.9" cy="3.8" r="0.9"/>
</svg>
