<?xml version="1.0" encoding="UTF-8"?>
<svg width="62px" height="71px" viewBox="0 0 62 71" version="1.1" xmlns="http://www.w3.org/2000/svg" xmlns:xlink="http://www.w3.org/1999/xlink">
    <!-- Generator: Sketch 49.1 (51147) - http://www.bohemiancoding.com/sketch -->
    <title>investment</title>
    <desc>Created with Sketch.</desc>
    <defs></defs>
    <g id="Page-1" stroke="none" stroke-width="1" fill="none" fill-rule="evenodd">
        <g id="investment" fill="#000000" fill-rule="nonzero">
            <path d="M55.102023,28.8148148 L53.8775336,28.8148148 C53.1507991,28.8186921 52.4343197,28.9883634 51.7812077,29.3111111 L54.6856966,14.0016111 L56.3032471,5.47524074 C56.4310531,4.80229398 55.9963594,4.15183565 55.332227,4.02233333 C55.2564617,4.00759954 55.1793188,4 55.102023,4 L25.7142774,4 C25.0380531,4 24.489788,4.55554167 24.489788,5.24074074 C24.489788,5.31952778 24.4971349,5.39800463 24.5118288,5.47524074 L26.1293793,14.0016111 L29.0363171,29.3111111 C28.3827459,28.9882083 27.6658074,28.818537 26.9387668,28.8148148 L20.3718301,28.8148148 C19.6862691,28.8137292 19.0080551,28.9595162 18.3820349,29.2428704 L9.79591519,33.1090185 L9.79591519,32.537037 C9.79591519,31.851838 9.24765006,31.2962963 8.57142579,31.2962963 L1.2244894,31.2962963 C0.548265128,31.2962963 0,31.851838 0,32.537037 L0,69.7592593 C0,70.4444583 0.548265128,71 1.2244894,71 L8.57142579,71 C9.24765006,71 9.79591519,70.4444583 9.79591519,69.7592593 L9.79591519,68.5185185 L39.6036606,68.5185185 C46.7193216,68.5383704 53.5470745,65.6727245 58.564879,60.5604074 C59.4869195,59.631713 60.003654,58.3677083 59.9999805,57.0503519 L59.9999805,33.7777778 C59.9999805,31.0368264 57.8072262,28.8148148 55.102023,28.8148148 Z M7.34693639,68.5185185 L2.4489788,68.5185185 L2.4489788,33.7777778 L7.34693639,33.7777778 L7.34693639,68.5185185 Z M53.6203908,6.48148148 L52.5305952,12.2137037 C50.0770246,11.2820625 48.2973823,9.09882407 47.8579437,6.48148148 L53.6203908,6.48148148 Z M27.1959096,6.48148148 L32.9583567,6.48148148 C32.518918,9.09882407 30.7392757,11.2820625 28.2857051,12.2137037 L27.1959096,6.48148148 Z M28.7497866,14.6703704 C32.3499385,13.4778634 34.9490703,10.2891597 35.4244783,6.48148148 L45.391822,6.48148148 C45.86723,10.2891597 48.4663618,13.4778634 52.0665137,14.6703704 L48.0771273,35.686037 C47.6433519,36.0539167 47.0963113,36.2567778 46.5305972,36.2592593 L34.2857032,36.2592593 C33.7199891,36.2569329 33.1729484,36.0540718 32.7391731,35.686037 L28.7497866,14.6703704 Z M57.5510017,38.198537 C54.6053394,41.0326991 50.8660549,42.873338 46.8465154,43.467963 L36.5608045,44.9568519 L36.907335,47.4122778 L47.1930459,45.9233889 C50.9676876,45.364125 54.5356966,43.8259167 57.5510017,41.457963 L57.5510017,44.4022407 C54.6053394,47.2364028 50.8660549,49.0770417 46.8465154,49.6716667 L36.5608045,51.1605556 L36.907335,53.6159815 L47.1930459,52.1270926 C50.9676876,51.5678287 54.5356966,50.0296204 57.5510017,47.6616667 L57.5510017,50.6059444 C54.6053394,53.4401065 50.8660549,55.2807454 46.8465154,55.8753704 L36.5608045,57.3642593 L36.907335,59.8196852 L47.1930459,58.3307963 C50.9676876,57.7715324 54.5356966,56.2333241 57.5510017,53.8653704 L57.5510017,57.0515926 C57.5526854,57.7099606 57.2943182,58.3418079 56.833451,58.806 C52.2737586,63.4513333 46.0695769,66.0550278 39.6036606,66.037037 L9.79591519,66.0371297 L9.79591519,35.825 L19.3787692,31.5097037 C19.6911671,31.3682593 20.0295853,31.2955208 20.3718301,31.2962963 L26.9387668,31.2962963 C28.2913684,31.2962963 29.3877456,32.4072245 29.3877456,33.7777778 C29.3877456,36.5187292 31.580653,38.7407407 34.2857032,38.7407407 L46.5305972,38.7407407 C49.2356473,38.7407407 51.4285548,36.5187292 51.4285548,33.7777778 C51.4285548,32.4072245 52.524932,31.2962963 53.8775336,31.2962963 L55.102023,31.2962963 C56.4546246,31.2962963 57.5510017,32.4072245 57.5510017,33.7777778 L57.5510017,38.198537 Z" id="Shape"></path>
            <path d="M41.5,23 C37.9102125,23 35,25.9102125 35,29.5 C35.004225,33.088 37.912,35.995775 41.5,36 C45.0897875,36 48,33.0897875 48,29.5 C48,25.9102125 45.08995,23 41.5,23 Z M41.5,33.4 C39.3460625,33.4 37.6,31.6539375 37.6,29.5 C37.6,27.3460625 39.3460625,25.6 41.5,25.6 C43.6539375,25.6 45.4,27.3460625 45.4,29.5 C45.4,31.6539375 43.6539375,33.4 41.5,33.4 Z" id="Shape"></path>
            <rect id="Rectangle-path" transform="translate(58.500000, 16.000000) rotate(-77.473057) translate(-58.500000, -16.000000) " x="47" y="15" width="23" height="2"></rect>
            <path d="M32,0 L20.3,0 C19.582075,0 19,0.563784805 19,1.2595025 C19,1.35742882 19.0118625,1.4551977 19.0351,1.55044757 L25.5351,28 L28.0636,27.4168503 L21.9458,2.51900499 L32,2.51900499 L32,0 Z" id="Shape"></path>
        </g>
    </g>
</svg>