<?xml version="1.0" encoding="utf-8"?>
<!-- Generator: Adobe Illustrator 21.1.0, SVG Export Plug-In . SVG Version: 6.00 Build 0)  -->
<svg version="1.1" id="Слой_1" xmlns="http://www.w3.org/2000/svg"  x="0px" y="0px"
	 viewBox="0 0 19.5 19.5" style="enable-background:new 0 0 19.5 19.5;" xml:space="preserve">
<path d="M17.7,19.5h-10c-1,0-1.8-0.8-1.8-1.8v-2.8c0-0.2,0.1-0.4,0.3-0.5s0.3-0.1,0.5-0.1c0.3,0,0.5,0.3,0.6,0.6l0,2.9
	c0,0.2,0.2,0.4,0.4,0.4h10c0.2,0,0.4-0.2,0.4-0.4V1.8c0-0.2-0.2-0.4-0.4-0.4h-10c-0.2,0-0.4,0.2-0.4,0.4v3.1
	C7.2,5.3,6.9,5.5,6.5,5.5C6.2,5.4,6,5.2,6,4.9l0-3.1C6,0.8,6.7,0,7.7,0h10c1,0,1.8,0.8,1.8,1.8v15.9C19.5,18.7,18.7,19.5,17.7,19.5z
	"/>
<path d="M14,9.3c0,0,0-0.1,0-0.1l-3.2-3.2c-0.1-0.1-0.3-0.2-0.5-0.2l-0.1,0C10,5.9,9.9,6,9.8,6.1c-0.3,0.3-0.3,0.7,0,1l2.1,2H0.7
	C0.3,9.1,0,9.4,0,9.7s0.3,0.7,0.7,0.7h11.2l-2.1,2.1c-0.2,0.2-0.2,0.6,0,0.8c0.1,0.2,0.3,0.3,0.5,0.3c0.1,0,0.3,0,0.4-0.2l3.2-3.2
	c0.1-0.1,0.2-0.3,0.2-0.5C14.1,9.6,14.1,9.5,14,9.3z"/>
<title>logout</title>
</svg>
