<?xml version="1.0" encoding="utf-8"?>
<!-- Generator: Adobe Illustrator 21.1.0, SVG Export Plug-In . SVG Version: 6.00 Build 0)  -->
<svg version="1.1" id="Слой_1" xmlns="http://www.w3.org/2000/svg"  x="0px" y="0px"
	 viewBox="0 0 17.9 18.7" style="enable-background:new 0 0 17.9 18.7;" xml:space="preserve">
<title>money</title>
<path d="M17.9,11.5l-0.7-2c0-0.1,0-0.1,0-0.2l0.7-2c0.2-0.5,0-1-0.4-1.3l-1.7-1.3c-0.1,0-0.1-0.1-0.1-0.1l-0.7-2.1
	c-0.2-0.5-0.6-0.8-1.2-0.8h-2.2c-0.1,0-0.1,0-0.2-0.1L9.7,0.2c-0.4-0.3-1-0.3-1.4,0L6.5,1.5c0,0-0.1,0.1-0.2,0.1H4.2
	c-0.5,0-1,0.3-1.2,0.8L2.4,4.5c0,0.1-0.1,0.1-0.1,0.1L0.5,5.9C0.1,6.2-0.1,6.7,0.1,7.2l0.7,2c0,0.1,0,0.1,0,0.2l-0.7,2
	c-0.2,0.5,0,1.1,0.4,1.4l1.7,1.3c0.1,0,0.1,0.1,0.1,0.1l0.7,2c0.2,0.5,0.6,0.8,1.2,0.8h2.2c0.1,0,0.1,0,0.2,0.1l1.7,1.3
	c0.4,0.3,1,0.3,1.4,0l1.7-1.3c0,0,0.1-0.1,0.2-0.1h2.2c0.5,0,1-0.3,1.2-0.8l0.7-2c0-0.1,0.1-0.1,0.1-0.1l1.7-1.3
	C17.9,12.6,18,12,17.9,11.5z M16.3,9.7l0.7,2c0,0.1,0,0.3-0.1,0.3l-1.7,1.3c-0.2,0.2-0.4,0.4-0.4,0.6L14,16c0,0.1-0.2,0.2-0.3,0.2
	h-2.2c-0.3,0-0.5,0.1-0.7,0.2l-1.7,1.3c-0.1,0.1-0.2,0.1-0.3,0L7,16.5c-0.2-0.2-0.5-0.2-0.7-0.2H4.2c-0.1,0-0.2-0.1-0.3-0.2l-0.7-2
	c-0.1-0.2-0.2-0.5-0.4-0.6L1,12.1c-0.1-0.1-0.1-0.2-0.1-0.3l0.7-2c0.1-0.2,0.1-0.5,0-0.7l-0.7-2c0-0.1,0-0.3,0.1-0.3l1.7-1.3
	C3,5.2,3.2,5,3.2,4.7l0.7-2c0-0.1,0.2-0.2,0.3-0.2h2.2c0.3,0,0.5-0.1,0.7-0.2L8.8,1C8.9,0.9,9,0.9,9.1,1l1.7,1.3
	c0.2,0.2,0.5,0.2,0.7,0.2h2.2c0.1,0,0.2,0.1,0.3,0.2l0.7,2c0.1,0.2,0.2,0.5,0.4,0.6l1.7,1.3C17,6.7,17,6.8,17,6.9l-0.7,2
	C16.2,9.2,16.2,9.5,16.3,9.7z"/>
<path d="M9.3,8.7H8.5c-0.6,0-1.1-0.4-1.2-1.1C7.2,7,7.7,6.5,8.4,6.4c0,0,0.1,0,0.1,0h2.4c0.3,0,0.6-0.2,0.6-0.5
	c0-0.3-0.2-0.6-0.5-0.6c0,0,0,0-0.1,0H9.6V4.3C9.6,4,9.3,3.8,9,3.8C8.7,3.8,8.5,4,8.4,4.3v0.9c-1.2,0-2.2,0.9-2.3,2.1
	C6,8.6,7,9.8,8.3,9.9c0.1,0,0.1,0,0.2,0h0.8c0.6,0,1.1,0.4,1.2,1.1c0.1,0.6-0.4,1.2-1.1,1.3c0,0-0.1,0-0.1,0H6.9
	c-0.3,0-0.6,0.3-0.5,0.6c0,0.3,0.3,0.5,0.5,0.5h1.5v0.9c0,0.3,0.2,0.6,0.5,0.6c0.3,0,0.6-0.2,0.6-0.5c0,0,0,0,0-0.1v-0.9
	c1.3-0.1,2.2-1.3,2.1-2.6C11.5,9.6,10.5,8.7,9.3,8.7z"/>
</svg>
