<?xml version="1.0" encoding="utf-8"?>
<!-- Generator: Adobe Illustrator 21.1.0, SVG Export Plug-In . SVG Version: 6.00 Build 0)  -->
<svg version="1.1" id="Слой_1" xmlns="http://www.w3.org/2000/svg"  x="0px" y="0px"
	 viewBox="0 0 19.8 19.7" style="enable-background:new 0 0 19.8 19.7;" xml:space="preserve">
<title>phone</title>
<path d="M4.1,1.4h0.2C4.6,1.5,4.9,1.7,5.1,2l1.1,1.1L7.2,4c0.2,0.2,0.3,0.4,0.4,0.7c0,0.3-0.1,0.5-0.3,0.7L6.4,6.2L6.3,6.3L6,6.6
	C5.5,7,5.4,7.7,5.7,8.3c0.2,0.5,0.5,0.9,0.8,1.3c1.2,1.7,2.7,3.1,4.4,4.2l0.4,0.2l0.2,0.1c0.5,0.3,1.2,0.2,1.7-0.2l1.2-1.2
	c0.2-0.2,0.4-0.3,0.7-0.3c0.2,0,0.5,0.1,0.6,0.3c0.8,0.8,1.7,1.6,2.5,2.5c0.3,0.3,0.4,0.8,0.1,1.1c0,0-0.1,0.1-0.1,0.1
	c-0.5,0.5-1,1-1.6,1.6c-0.4,0.3-0.8,0.5-1.3,0.5H15c-1,0-1.9-0.2-2.8-0.6c-2.3-1-4.5-2.5-6.2-4.3c-1.5-1.5-2.8-3.3-3.7-5.3
	C1.9,7.3,1.7,6.5,1.5,5.6c-0.1-0.5-0.1-1,0-1.6C1.6,3.8,1.7,3.5,2,3.3l0.6-0.6l0.8-0.8C3.6,1.6,3.8,1.5,4.1,1.4L4.1,1.4 M3.9,0H3.8
	l0,0c-0.5,0.1-1,0.4-1.3,0.8L1.6,1.6L1,2.3C0.6,2.7,0.2,3.2,0.1,3.8C0,4.5,0,5.2,0.1,5.9c0.2,1,0.5,1.9,0.9,2.8c1,2.1,2.3,4.1,4,5.7
	c1.9,2,4.2,3.5,6.7,4.6c1,0.5,2.2,0.7,3.3,0.7h0.2c0.8,0,1.6-0.3,2.2-0.9c0.7-0.6,1.2-1.2,1.7-1.7c0.9-0.8,0.9-2.2,0.1-3.1
	c0,0-0.1-0.1-0.1-0.1c-0.8-0.8-1.7-1.7-2.5-2.5c-0.4-0.4-1-0.7-1.6-0.7l0,0c-0.6,0-1.2,0.3-1.6,0.7l-1.3,1.3l-0.2-0.1l-0.3-0.2
	c-1.6-1-2.9-2.3-4-3.8C7.4,8.4,7.2,8.1,7,7.7l0,0l0.3-0.3l0.9-0.9C8.7,6.1,9,5.4,9,4.8c0-0.6-0.3-1.2-0.8-1.7L7.3,2.2L6.1,1
	c-0.4-0.5-1-0.9-1.7-1H3.9z"/>
</svg>
