<?xml version="1.0" encoding="UTF-8"?>
<svg width="19px" height="20px" viewBox="0 0 19 20" version="1.1" xmlns="http://www.w3.org/2000/svg" xmlns:xlink="http://www.w3.org/1999/xlink">
    <!-- Generator: Sketch 49 (51002) - http://www.bohemiancoding.com/sketch -->
    <title>ICN low coast</title>
    <desc>Created with Sketch.</desc>
    <defs></defs>
    <g id="Page-1" stroke="none" stroke-width="1" fill="none" fill-rule="evenodd">
        <g id="Product-page-1(sold_out)" transform="translate(-721.000000, -830.000000)" fill="#000000" fill-rule="nonzero">
            <g id="About" transform="translate(720.000000, 260.000000)">
                <g id="Info" transform="translate(0.000000, 520.000000)">
                    <path d="M11,67 L11,60 L9,60 L9,67 L8.43010753,67 C8.1925657,67 8,66.8221615 8,66.6027866 L8,59.3972134 C8,59.1778385 8.1925657,59 8.43010753,59 L11.5698925,59 C11.8074343,59 12,59.1778385 12,59.3972134 L12,66.6027866 C12,66.8221615 11.8074343,67 11.5698925,67 L11,67 Z M18,67 L18,63 L16,63 L16,67 L15.4301075,67 C15.1925657,67 15,66.8272489 15,66.6141497 L15,62.3858503 C15,62.1727511 15.1925657,62 15.4301075,62 L18.5698925,62 C18.8074343,62 19,62.1727511 19,62.3858503 L19,66.6141497 C19,66.8272489 18.8074343,67 18.5698925,67 L18,67 Z M18.7563607,57.7409567 L18.9481037,57.677353 L17.2093789,53.5422109 C17.1215136,53.3332444 17.2441645,53.1016079 17.4833271,53.0248363 C17.7224898,52.9480648 17.9875983,53.05523 18.0754636,53.2641965 L19.9715799,57.7736568 C20.0423159,57.9418855 19.9766337,58.1250427 19.8231176,58.2300623 C19.9855914,58.3472454 20.0476978,58.5639589 19.9604701,58.75098 C19.8605998,58.9651076 19.602789,59.0592263 19.3846334,58.9612 L18.6595654,58.635397 L14.6252108,59.9736468 C14.3870072,60.0526622 14.1205945,59.9479953 14.0301613,59.7398668 C13.939728,59.5317384 14.0595195,59.2989623 14.2977231,59.219947 L17.5555047,58.1392969 L1.25370431,50.8142246 C1.03554877,50.7161983 0.939659615,50.4631475 1.03952989,50.24902 C1.13940017,50.0348924 1.39721103,49.9407737 1.61536657,50.0388 L18.7563607,57.7409567 Z M1.43010753,56 L4.56989247,56 C4.8074343,56 5,56.1971145 5,56.4402677 L5,67.5597323 C5,67.8028855 4.8074343,68 4.56989247,68 L1.43010753,68 C1.1925657,68 1,67.8028855 1,67.5597323 L1,56.4402677 C1,56.1971145 1.1925657,56 1.43010753,56 Z M2,57 L2,67 L4,67 L4,57 L2,57 Z M18.5813953,69 C18.8125843,69 19,69.1874157 19,69.4186047 C19,69.6497936 18.8125843,69.8372093 18.5813953,69.8372093 L1.41860465,69.8372093 C1.18741569,69.8372093 1,69.6497936 1,69.4186047 C1,69.1874157 1.18741569,69 1.41860465,69 L18.5813953,69 Z" id="ICN-low-coast"></path>
                </g>
            </g>
        </g>
    </g>
</svg>