<?xml version="1.0" encoding="utf-8"?>
<!-- Generator: Adobe Illustrator 21.1.0, SVG Export Plug-In . SVG Version: 6.00 Build 0)  -->
<svg version="1.1" id="Слой_1" xmlns="http://www.w3.org/2000/svg"  x="0px" y="0px"
	 viewBox="0 0 14.8 14.2" style="enable-background:new 0 0 14.8 14.2;" xml:space="preserve">
<style type="text/css">
	.st0{fill:#010101;}
</style>
<title>quality</title>
<path class="st0" d="M3.6,14.2c-0.5,0-1-0.3-1.1-0.8L0.1,6.1c-0.2-0.5,0-1,0.4-1.4l6.2-4.5c0.4-0.3,1-0.3,1.4,0l6.2,4.5
	C14.7,5,14.9,5.6,14.7,6l-2.4,7.3c-0.2,0.5-0.6,0.8-1.1,0.8l0,0L3.6,14.2C3.6,14.2,3.6,14.2,3.6,14.2z M3.6,13.2h7.6l0,0
	c0.1,0,0.2-0.1,0.2-0.1l2.4-7.3c0-0.1,0-0.2-0.1-0.2L7.5,1C7.4,1,7.4,1,7.3,1L1.1,5.5C1,5.6,1,5.7,1,5.8L3.4,13
	C3.4,13.1,3.5,13.2,3.6,13.2z"/>
<path class="st0" d="M6.6,9.8c-0.1,0-0.2,0-0.3-0.1L4.9,8.3c-0.2-0.2-0.2-0.5,0-0.7s0.5-0.2,0.7,0l1.1,1l3-2.9
	c0.2-0.2,0.5-0.2,0.7,0s0.2,0.5,0,0.7L7,9.6C6.9,9.7,6.8,9.8,6.6,9.8z"/>
</svg>
