<?xml version="1.0" encoding="UTF-8"?>
<svg width="78px" height="78px" viewBox="0 0 78 78" version="1.1" xmlns="http://www.w3.org/2000/svg" xmlns:xlink="http://www.w3.org/1999/xlink">
    <!-- Generator: Sketch 47.1 (45422) - http://www.bohemiancoding.com/sketch -->
    <title>Untitled</title>
    <desc>Created with Sketch.</desc>
    <defs></defs>
    <g id="Page-1" stroke="none" stroke-width="1" fill="none" fill-rule="evenodd">
        <path d="M37.8,16.6 C25.8,16.6 16,24.6 16,34.6 C16.0023443,38.2199824 17.2765525,41.7240551 19.6,44.5 C19.3,47.8 18.4,52.4 16,54.6 C16,54.6 23.5,53.6 28.5,50.8 C31.4329569,51.9384725 34.5538712,52.5151632 37.7,52.5 C49.7,52.5 59.5,44.5 59.5,34.5 C59.5,24.5 49.8,16.6 37.8,16.6 Z" id="Shape" stroke="#D0A889" stroke-width="3"></path>
        <path d="M61.6,47.7 C62.0721238,44.4962538 61.2835082,41.2342528 59.4,38.6 L59.4,38.7 C56.2,48 47.3,53.4 37.4,52.6 C37,52.7 36.7,52.7 36.3,52.8 C38.4181888,56.4258393 42.126471,58.8362227 46.3,59.3 C48.2865363,59.5635095 50.3071786,59.3580204 52.2,58.7 C54.4151946,60.4059184 56.9228685,61.6936429 59.6,62.5 C58.3,60.6 58.2,57.2 58.4,54.7 C60.170664,52.7575425 61.2895483,50.3099831 61.6,47.7 L61.6,47.7 Z" id="Shape" stroke="#D0A889" stroke-width="3"></path>
        <circle id="Oval" stroke="#D0A889" stroke-width="1.2" cx="38.9" cy="39.4" r="37.9"></circle>
        <g id="Group" transform="translate(22.000000, 28.380000)" font-size="12" font-family="Helvetica" fill="#D0A889" font-weight="normal">
            <text id="5-000">
                <tspan x="0" y="11">5 000</tspan>
            </text>
        </g>
    </g>
</svg>