<?xml version="1.0" encoding="UTF-8"?>
<svg width="74px" height="74px" viewBox="0 0 74 74" version="1.1" xmlns="http://www.w3.org/2000/svg" xmlns:xlink="http://www.w3.org/1999/xlink">
    <!-- Generator: Sketch 47.1 (45422) - http://www.bohemiancoding.com/sketch -->
    <title>Untitled 2</title>
    <desc>Created with Sketch.</desc>
    <defs></defs>
    <g id="Page-1" stroke="none" stroke-width="1" fill="none" fill-rule="evenodd">
        <g id="Group" transform="translate(1.000000, 1.000000)">
            <path d="M59.58,53.94 L59.58,56.54 L16.24,56.54 L16.24,14.87 L18.95,14.87 L18.95,53.94 L59.58,53.94 Z M55.04,39.32 L51.22,29.6 L48.66,32.6 L26.09,14.87 L24.37,16.87 L46.94,34.63 L44.38,37.63 L55.04,39.32 Z M24.37,20.25 L24.37,51.33 L29.79,51.33 L29.79,24.52 L24.37,20.25 Z M32.5,26.69 L32.5,51.33 L37.92,51.33 L37.92,30.91 L32.5,26.69 Z M40.63,39.69 L40.63,51.33 L46.05,51.33 L46.05,40.55 L40.63,39.69 Z M48.76,40.97 L48.76,51.33 L54.18,51.33 L54.18,41.82 L48.76,40.97 Z" id="Shape" fill="#D0A889" fill-rule="nonzero"></path>
            <circle id="Oval" stroke="#D0A889" stroke-width="1.2" cx="36.33" cy="36.33" r="35.83"></circle>
        </g>
    </g>
</svg>