<?xml version="1.0" encoding="UTF-8"?>
<svg width="63px" height="64px" viewBox="0 0 63 64" version="1.1" xmlns="http://www.w3.org/2000/svg">
    <!-- Generator: Sketch 46.2 (44496) - http://www.bohemiancoding.com/sketch -->
    <title>s3-8</title>
    <desc>Created with Sketch.</desc>
    <defs></defs>
    <g id="Welcome-Page" stroke="none" stroke-width="1" fill="none" fill-rule="evenodd">
        <g id="Buy-Page" transform="translate(-840.000000, -2977.000000)" stroke="#CFA788" fill="#FAFAFA">
            <g id="s3-8" transform="translate(841.000000, 2978.000000)">
                <ellipse id="Oval-2-Copy-22" stroke-width="1.19999993" cx="30.5244687" cy="31" rx="30.5244687" ry="31"></ellipse>
                <path d="M31,40.1965495 L21.9822798,44.9374456 L21.9822798,44.9374456 C21.4934352,45.1944464 20.888808,45.0064999 20.6318072,44.5176553 C20.5294681,44.3229949 20.4941535,44.1000268 20.5313303,43.8832692 L22.2535616,33.8418901 L14.9580727,26.730546 L14.9580727,26.730546 C14.5625891,26.3450448 14.5544968,25.7119315 14.939998,25.3164479 C15.0935066,25.1589643 15.294649,25.0564771 15.5122861,25.0248526 L25.5944038,23.5598351 L30.1032639,14.4238867 L30.1032639,14.4238867 C30.3476862,13.928633 30.9473121,13.725294 31.4425657,13.9697163 C31.6397783,14.0670465 31.7994058,14.2266741 31.8967361,14.4238867 L36.4055962,23.5598351 L46.4877139,25.0248526 L46.4877139,25.0248526 C47.0342588,25.1042702 47.4129402,25.6117131 47.3335226,26.1582579 C47.3018981,26.3758949 47.1994109,26.5770374 47.0419273,26.730546 L39.7464384,33.8418901 L41.4686697,43.8832692 L41.4686697,43.8832692 C41.5620307,44.4276056 41.1964429,44.9445615 40.6521064,45.0379225 C40.4353488,45.0750994 40.2123807,45.0397847 40.0177202,44.9374456 L31,40.1965495 Z" id="Star" stroke-width="1.5"></path>
            </g>
        </g>
    </g>
</svg>