<?xml version="1.0" encoding="utf-8"?>
<!-- Generator: Adobe Illustrator 21.1.0, SVG Export Plug-In . SVG Version: 6.00 Build 0)  -->
<svg version="1.1" id="Слой_1" xmlns="http://www.w3.org/2000/svg"  x="0px" y="0px"
	 viewBox="0 0 15.2 15.2" style="enable-background:new 0 0 15.2 15.2;" xml:space="preserve">
<title>search</title>
<path d="M10.4,9.5L11,10c0,0,0.1,0,0.1,0c0.3,0,0.7,0.1,0.9,0.4l2.8,2.8c0.4,0.4,0.4,1.1,0,1.6c-0.1,0.1-0.3,0.2-0.5,0.3
	c-0.4,0.1-0.8,0-1.1-0.2c-1-1-2-2-2.9-2.9c-0.2-0.2-0.3-0.5-0.3-0.8c0-0.1,0-0.1-0.1-0.2c-0.2-0.2-0.4-0.4-0.5-0.6
	c-1.4,1.1-3.1,1.5-4.8,1.1c-1.4-0.2-2.7-1-3.6-2.2C-0.8,6.7-0.2,3,2.4,1.1s6.2-1.3,8.1,1.3C12.1,4.5,12,7.4,10.4,9.5z M5.8,1.6
	c-2.3,0-4.2,1.8-4.2,4.1S3.5,10,5.8,10S10,8.1,10,5.8c0,0,0,0,0,0C10,3.5,8.1,1.7,5.8,1.6z"/>
</svg>
