<?xml version="1.0" encoding="UTF-8"?>
<svg width="61px" height="61px" viewBox="0 0 61 61" version="1.1" xmlns="http://www.w3.org/2000/svg">
    <!-- Generator: Sketch 46.2 (44496) - http://www.bohemiancoding.com/sketch -->
    <title>Group 15</title>
    <desc>Created with Sketch.</desc>
    <defs></defs>
    <g id="Welcome-Page" stroke="none" stroke-width="1" fill="none" fill-rule="evenodd">
        <g id="Sell-Page" transform="translate(-123.000000, -1116.000000)" fill-rule="nonzero" fill="#CFA788">
            <g id="Group-15" transform="translate(123.000000, 1116.000000)">
                <path d="M30.5,0 C13.6628423,0 0,13.662841 0,30.5 C0,47.337159 13.662841,61 30.5,61 C47.337159,61 61,47.337159 61,30.5 C61,13.662841 47.337159,-2.54166667e-07 30.5,0 Z M30.5,1.27083333 C46.6503498,1.27083308 59.7291667,14.3496502 59.7291667,30.5 C59.7291667,46.6503498 46.6503498,59.7291667 30.5,59.7291667 C14.3496514,59.7291667 1.27083333,46.6503498 1.27083333,30.5 C1.27083333,14.3496514 14.3496514,1.27083333 30.5,1.27083333 Z" id="Shape"></path>
                <path d="M50,28.3157844 C50,26.3216596 49.2222775,24.4460846 47.8125979,23.0359436 L42.9645177,18.1874021 C41.5608347,16.7841804 39.7014045,16.0133772 37.7234247,16.0133772 L37.668532,16.0133772 C35.6614914,16.027677 33.7573168,16.8367667 32.3047379,18.2911907 L31.0002306,19.5956979 L29.5919348,18.1874021 C28.1817939,16.7767999 26.3066801,16 24.3120941,16 C22.3179694,16 20.4423943,16.7772612 19.0322534,18.1874021 L14.1837119,23.0359436 C11.272096,25.9480207 11.272096,30.6849318 14.1837119,33.5965477 L17.237864,36.6506998 C17.2046517,37.6207771 17.5962806,38.5599485 18.3430971,39.256024 C19.0294857,39.8976681 19.9345221,40.2625426 20.805885,40.2690006 C20.8672356,41.1560471 21.2680902,42.2594351 21.9235728,42.8623314 C22.5070953,43.4380121 23.3392491,43.7710582 24.1866252,43.7862805 C24.2392114,44.6461113 24.6626689,45.6115758 25.2738683,46.173418 C25.8670778,46.7177315 26.8851285,47.2744996 27.8667379,47.3561466 C28.2090096,48.7741293 28.8391216,49.5481615 29.9305163,49.9130361 C30.1228711,49.9776157 30.5306449,50.0897073 31.0380558,50.0897073 C31.6589422,50.0897073 32.4302067,49.9218005 33.1391981,49.2921497 C33.2079292,49.2220347 33.3347819,49.104869 33.498076,48.9508006 C34.8436373,47.6910378 36.1186225,46.4128237 36.6015854,45.4316755 C37.487248,45.7887083 38.7041115,45.7974727 39.4615375,45.2102599 C40.4196215,44.5257165 40.7162262,43.4827565 40.6069022,42.5325144 C41.5179354,42.647835 42.5645856,42.2866507 43.1504145,41.7105087 C43.7643817,41.1048447 44.1264885,40.0646524 43.9442819,39.1420872 C44.752449,39.1822188 45.8489178,39.0272278 46.7004455,38.128188 C47.6571456,37.1189017 47.411282,35.6949222 47.1478896,35.1828986 C47.1368188,35.1589119 47.1220578,35.136309 47.1059129,35.1146287 C47.0906906,35.093871 47.0736231,35.0740359 47.0556331,35.0560458 L46.7069035,34.7022421 L47.8130592,33.5965477 C49.2232001,32.1859454 50,30.3103704 50,28.3157844 Z M18.9727479,38.5816288 C18.4122895,38.0585343 18.1295233,37.3850617 18.1581228,36.6719188 L22.3373433,32.6204737 C22.5398463,32.4013644 22.9923646,32.1684167 23.5090011,32.1684167 L23.5233008,32.1684167 C24.0399374,32.1725683 24.5053715,32.4013644 24.9057648,32.847886 C25.8463201,33.8954588 25.3901116,35.0223722 25.2711006,35.2705422 L21.0678935,39.3298292 C20.3533668,39.4091698 19.5627284,39.1324002 18.9727479,38.5816288 Z M22.5601428,42.1943942 C22.0379708,41.7146603 21.703541,40.6472523 21.7261438,39.9756249 L25.9002901,35.9449374 C26.2268782,35.8259265 27.5941199,35.4015465 28.4484153,36.2466162 C29.2980978,37.0870732 29.0836014,38.0529989 28.9991867,38.3270008 L24.4712366,42.8503381 C23.7696258,42.9163015 23.0495636,42.6773571 22.5601428,42.1943942 Z M25.1110356,43.5150463 L29.6837301,38.9474259 C29.9014555,38.8297989 30.8650748,38.4183348 32.0136685,39.641195 C32.7923136,40.4705811 32.5063184,41.5914978 32.4089877,41.8959444 L28.0461768,46.4391168 C27.365785,46.4132849 26.4828901,46.0304204 25.8979837,45.49441 C25.4081016,45.0432756 25.0713653,44.1728353 25.1110356,43.5150463 Z M32.8679639,48.2777892 C32.6922152,48.4415446 32.5575207,48.5688586 32.5058571,48.6228286 C31.609585,49.4171573 30.5329514,49.140849 30.2243533,49.0375217 C29.4300246,48.7722842 29.0051834,48.1993712 28.7454813,47.0424744 L33.0953762,42.5126792 C33.8338897,42.0513966 34.8611661,42.6183129 35.2366501,43.0768278 C35.7177679,43.6649632 35.8478496,44.5280229 35.874604,44.7526675 C35.7320676,45.594047 33.5824907,47.6093907 32.8679639,48.2777892 Z M46.0302019,37.4939244 C45.204506,38.3666711 44.0093228,38.2642664 43.4451741,38.1540198 L36.1024776,30.7458211 C35.9230386,30.5645371 35.631508,30.5636145 35.450224,30.7430534 C35.2689399,30.9224924 35.2680173,31.214023 35.4474563,31.3953071 L42.8505809,38.8643951 C43.2749609,39.4889717 43.0166426,40.547154 42.5036963,41.0536423 C41.9953629,41.5545952 40.8135569,41.8401292 40.2088154,41.4452712 C40.1995897,41.4392746 40.1894415,41.4374294 40.1797545,41.4332779 L32.6806832,33.7460032 C32.5017055,33.5633353 32.2097136,33.5610289 32.0284296,33.7377001 C31.8457617,33.9162165 31.8425327,34.2082084 32.0196652,34.3899538 L39.5704002,42.1279695 C39.8337926,42.8936986 39.7383071,43.8776144 38.9103048,44.4703626 C38.3913619,44.8721397 37.3705435,44.8084827 36.7685697,44.4892752 C36.7016837,44.0612049 36.5028709,43.1713908 35.9488705,42.4919215 C35.4414596,41.8714964 34.4224863,41.3133444 33.4404156,41.4323553 C33.5123757,40.7547312 33.4321126,39.804489 32.685296,39.0087765 C31.7239831,37.9847291 30.733148,37.7923743 30.0038602,37.89155 C30.0407628,37.2628218 29.9000716,36.3845397 29.0969786,35.5906724 C28.2445283,34.7474478 27.1240729,34.7419124 26.3555761,34.8743005 C26.4879642,34.1187196 26.3910948,33.1209653 25.5921533,32.2306899 C24.8688622,31.4243679 24.0717659,31.2495418 23.5306814,31.2449289 L23.5094624,31.2449289 C22.806929,31.2449289 22.0831765,31.5364595 21.6772478,31.974678 L17.71114,35.8190073 L14.8355042,32.9424489 C12.2841501,30.3910948 12.2841501,26.2390901 14.8355042,23.6872747 L19.6840457,18.8387332 C20.9202831,17.6024958 22.563833,16.9216427 24.3116328,16.9216427 C26.0598939,16.9216427 27.7034438,17.6029571 28.9392199,18.8387332 L30.3475158,20.247029 C30.3475158,20.247029 24.3513031,26.191578 23.8480438,26.7635684 C23.6081768,27.037109 23.5016206,27.373384 23.5403683,27.7368747 C23.6017189,28.3153231 24.0224086,28.9089938 24.7567705,29.4546911 C26.846842,31.0069071 29.5896284,30.8011751 31.581908,28.94359 C32.5206181,28.0689982 34.8893043,25.7469015 35.762051,24.8898384 L45.7303682,35.0237561 C45.7303682,35.0237561 45.7303682,35.0242173 45.7303682,35.0246786 C45.7312907,35.0251399 45.7312907,35.0251399 45.7312907,35.0251399 L46.3466417,35.6501778 C46.4398208,35.8997317 46.6543172,36.8347516 46.0302019,37.4939244 Z M46.0592627,34.0444531 L36.0955583,23.9151483 C36.0092985,23.8279659 35.8935166,23.7781473 35.7703541,23.7772248 C35.6536496,23.7965986 35.5300259,23.8242756 35.4433047,23.9096129 C35.4105537,23.942364 32.0990058,27.2017869 30.9527185,28.2696561 C29.2962527,29.8131077 27.0272035,29.9920854 25.307542,28.7152551 C24.8075116,28.3439226 24.4906105,27.9426067 24.4583207,27.6409279 C24.4472499,27.5348329 24.4726204,27.4522633 24.5418128,27.3743066 C24.8827007,26.9863679 32.9569915,18.9439056 32.9569915,18.9439056 C34.2361281,17.6620012 35.9119679,16.9488583 37.6754513,16.9359424 C39.4384734,16.9350198 41.0718751,17.5992668 42.3127253,18.8396557 L47.1612668,23.6881972 C48.3975042,24.9244346 49.0778961,26.5679846 49.0778961,28.3157844 C49.0778961,30.0640454 48.3965817,31.7075954 47.1612668,32.9433715 L46.0592627,34.0444531 Z" id="Shape"></path>
            </g>
        </g>
    </g>
</svg>