<?xml version="1.0" encoding="UTF-8"?>
<svg width="75px" height="79px" viewBox="0 0 75 79" version="1.1" xmlns="http://www.w3.org/2000/svg" xmlns:xlink="http://www.w3.org/1999/xlink">
    <!-- Generator: Sketch 47.1 (45422) - http://www.bohemiancoding.com/sketch -->
    <title>Group</title>
    <desc>Created with Sketch.</desc>
    <defs></defs>
    <g id="Page-1" stroke="none" stroke-width="1" fill="none" fill-rule="evenodd">
        <g id="Group" transform="translate(-3.000000, -3.000000)">
            <rect id="Rectangle-path" x="0.82" y="0.92" width="79.87" height="83.9"></rect>
            <path d="M40.75,81.29 C60.95,81.29 77.33,64.09 77.33,42.87 C77.33,21.65 61,4.45 40.75,4.45 C20.5,4.45 4.17,21.65 4.17,42.87 C4.17,64.09 20.55,81.29 40.75,81.29 Z M42.68,33.47 L42.68,31 L41.8,31 L41.8,28.49 L44.8,28.49 C45.0831798,28.4522431 45.2946674,28.2106858 45.2946674,27.925 C45.2946674,27.6393142 45.0831798,27.3977569 44.8,27.36 L36.8,27.36 C36.5168202,27.3977569 36.3053326,27.6393142 36.3053326,27.925 C36.3053326,28.2106858 36.5168202,28.4522431 36.8,28.49 L39.8,28.49 L39.8,31 L38.92,31 L38.92,33.52 C30.69,34.52 24.3,41.9 24.3,50.85 L57.3,50.85 C57.3,41.91 50.91,34.53 42.68,33.52 L42.68,33.47 Z M61,54.67 C61.0017471,53.0663142 59.7419396,51.7448378 58.14,51.67 L23.38,51.67 C21.7780604,51.7448378 20.5182529,53.0663142 20.52,54.67 C20.52,56.34 17.52,57.67 19.12,57.67 L62.39,57.67 C63.97,57.67 60.99,56.32 60.99,54.67 L61,54.67 Z M29.76,47.67 C30.1,42.77 32.18,39.5466667 36,38 C39.82,36.4533333 37.7433333,39.6866667 29.77,47.7 L29.76,47.67 Z" id="Shape" stroke="#CFA687" stroke-width="1.2"></path>
        </g>
    </g>
</svg>