<?xml version="1.0" encoding="UTF-8"?>
<svg width="61px" height="61px" viewBox="0 0 61 61" version="1.1" xmlns="http://www.w3.org/2000/svg" xmlns:xlink="http://www.w3.org/1999/xlink">
    <!-- Generator: Sketch 46.2 (44496) - http://www.bohemiancoding.com/sketch -->
    <title>Group 14</title>
    <desc>Created with Sketch.</desc>
    <defs>
        <path d="M0.157917791,10.3595916 C0.157917791,4.77692305 4.68478314,0.248312567 10.2674517,0.248312567 C15.8518654,0.248312567 20.3804759,4.77692305 20.3804759,10.3595916 C20.3804759,15.940515 15.8518654,20.4691255 10.2674517,20.4691255 C4.68478314,20.4691255 0.157917791,15.940515 0.157917791,10.3595916 Z M1.10442524,10.3595786 C1.10442524,15.4052745 5.22006268,19.5243502 10.2674777,19.5243502 C15.3166118,19.5243502 19.4322493,15.4052745 19.4322493,10.3595786 C19.4322493,5.31216361 15.3166118,1.19480703 10.2674777,1.19480703 C5.22006268,1.19480703 1.10442524,5.31216361 1.10442524,10.3595786 Z" id="path-1"></path>
        <polygon id="path-3" points="0 30.8399917 0 0.418485669 16.6306155 0.418485669 16.6306155 30.8399917 1.35271573e-15 30.8399917"></polygon>
    </defs>
    <g id="Welcome-Page" stroke="none" stroke-width="1" fill="none" fill-rule="evenodd">
        <g id="Sell-Page" transform="translate(-123.000000, -1024.000000)">
            <g id="Group-14" transform="translate(123.000000, 1024.000000)">
                <g id="Group-8-Copy" transform="translate(16.000000, 11.000000)">
                    <g id="Page-1">
                        <g id="Group-3" transform="translate(9.000000, 19.000000)">
                            <mask id="mask-2" fill="white">
                                <use xlink:href="#path-1"></use>
                            </mask>
                            <g id="Clip-2"></g>
                            <polygon id="Fill-1" fill="#CFA788" mask="url(#mask-2)" points="-1.7218521 22.3489084 22.2568075 22.3489084 22.2568075 -1.63147031 -1.7218521 -1.63147031"></polygon>
                        </g>
                        <g id="Group-2" transform="translate(14.000000, 24.000000)" stroke="#CFA788" stroke-linecap="round">
                            <path d="M5,0 L5,10" id="Path-7"></path>
                            <path d="M10,5 L3.55271368e-15,5" id="Path-7-Copy-2"></path>
                        </g>
                        <g id="Group-9" transform="translate(0.000000, 0.318947)">
                            <mask id="mask-4" fill="white">
                                <use xlink:href="#path-3"></use>
                            </mask>
                            <g id="Clip-8"></g>
                            <path d="M7.32339346,29.8342908 C3.67536395,29.4887423 1.18947767,28.5621222 1.07773313,28.5105478 L1.06054166,28.5053904 L6.48444982,12.5327974 C6.49304555,12.5070102 6.56696886,12.2886786 6.6013518,12.0342449 C6.63917303,11.7368325 6.52914764,11.3431478 6.48273067,11.1935821 C6.21970121,10.5162382 4.98535381,9.18733776 4.48680124,7.19828491 L4.4782055,7.13467648 C4.48336294,6.67222599 4.62777127,6.18398829 4.76530302,5.70778463 C4.90971135,5.21610865 5.04724309,4.75021986 5.04724309,4.29808425 L5.04724309,4.2190035 L6.67355597,4.3255906 C8.01792876,4.45968405 9.25743361,5.82812491 9.67002884,6.01379276 L9.76802021,6.05505228 C9.89695622,6.11350328 10.0448028,6.11522242 10.1737389,6.05505228 L10.2717302,6.01379276 C10.691202,5.82640576 11.9427409,4.80007512 13.2767988,4.66770082 L14.8910777,4.20696947 C14.8910777,4.23963326 14.8893585,4.26713961 14.8893585,4.29808425 C14.8893585,4.7588156 15.0286094,5.22814267 15.1747369,5.73013354 C15.3122686,6.19430318 15.4532387,6.67394513 15.4601153,7.13295733 L15.4532387,7.19828491 C14.8773245,9.49850333 13.6085942,10.79474 13.4487135,11.215931 C13.4366795,11.2451565 13.3524413,11.5081859 13.3300924,11.8090366 C13.3043052,12.1236405 13.4108923,12.4262103 13.4538709,12.5345166 L14.9718776,17.5269189 C15.2796049,17.4065786 15.5924896,17.2948341 15.9105317,17.1985618 L14.3994017,12.223351 C14.3942442,12.2061595 14.3856485,12.1855298 14.3787719,12.1700575 C14.3512656,12.1047299 14.3134443,11.9671981 14.3203209,11.8881174 C14.3340741,11.7144836 14.3839294,11.5477263 14.3839294,11.5477263 C14.6538354,10.8463144 15.9191275,9.44520978 16.4245566,7.40802082 C16.4279949,7.38739106 16.4314332,7.37019959 16.4348715,7.34785068 L16.452063,7.22407211 C16.4555013,7.2017232 16.4555013,7.18453173 16.4555013,7.16218282 C16.4555013,6.55188571 16.288744,5.98972471 16.1288634,5.44303602 C16.0050848,5.01496847 15.8864637,4.61440727 15.8864637,4.29808425 C15.8864637,4.15367592 15.9036551,3.97488466 15.9328806,3.77374448 C15.9363189,3.75655301 15.9397572,3.73592325 15.9414764,3.71873178 C16.0480635,3.04826453 16.2749908,2.18525284 16.4108034,1.7210832 L16.6102245,1.05577339 C16.6875861,0.792743927 16.5380203,0.517680439 16.27671,0.438599686 C16.0136805,0.359518933 15.7403362,0.510803852 15.6595363,0.773833312 L15.4601153,1.43914312 C15.422294,1.57323657 15.1798943,2.40014619 15.0251711,3.20298774 L13.1925606,3.68091055 C11.8069283,3.82016144 10.4849044,4.84477294 9.97431782,5.06138543 C9.46888866,4.84649208 8.15546051,3.47461294 6.75779416,3.33536205 L4.92174538,3.21674092 C4.78249449,2.48954182 4.56932028,1.73827467 4.4816438,1.43914312 L4.28050362,0.773833312 C4.20314201,0.510803852 3.92635938,0.359518933 3.66332992,0.440318833 C3.40030046,0.519399586 3.25073469,0.796182221 3.32981544,1.05749253 L3.53095561,1.72795979 C3.67880224,2.2316698 3.90401047,3.08952405 4.00372098,3.74967642 C4.00372098,3.75655301 4.00544013,3.76514875 4.00715928,3.77374448 C4.03638477,3.97488466 4.05529539,4.15539507 4.05529539,4.2998034 C4.05529539,4.60924983 3.93839341,5.00809188 3.81289569,5.431002 C3.65129589,5.98112897 3.48453865,6.55360486 3.48453865,7.16390197 C3.48453865,7.18625088 3.48453865,7.20516149 3.48797694,7.2275104 L3.50344927,7.35128897 C3.50516841,7.37363788 3.50860671,7.39082935 3.51376415,7.41145911 C4.02435075,9.4606821 5.28448535,10.8566293 5.54235737,11.5185008 C5.5801786,11.6405602 5.61971898,11.8434196 5.61456154,11.9087471 C5.59393178,12.0651895 5.54579566,12.2095978 5.54407652,12.2130361 L0.108134334,28.2148545 C0.101257747,28.2372035 0.0961003062,28.2561141 0.0909428658,28.2819013 L0.00842381932,28.711688 C-0.0345548507,28.9386154 0.0857854254,29.1672619 0.298959629,29.2600958 L0.687486806,29.4251339 C0.809546229,29.4749892 3.52407903,30.4961624 7.45920605,30.8399917 C7.40075506,30.5099155 7.35261895,30.1746819 7.32339346,29.8342908" id="Fill-7" fill="#CFA788" mask="url(#mask-4)"></path>
                        </g>
                    </g>
                </g>
                <path d="M30.5,0 C13.6628423,0 9.02981399e-15,13.662841 0,30.5 C0,47.337159 13.662841,61 30.5,61 C47.337159,61 61,47.337159 61,30.5 C61,13.662841 47.337159,0 30.5,0 Z M30.5,1.27083333 C46.6503498,1.27083333 59.7291667,14.3496502 59.7291667,30.5 C59.7291667,46.6503498 46.6503498,59.7291667 30.5,59.7291667 C14.3496514,59.7291667 1.27083333,46.6503498 1.27083333,30.5 C1.27083333,14.3496514 14.3496514,1.27083333 30.5,1.27083333 Z" id="Shape" fill="#CFA788" fill-rule="nonzero"></path>
            </g>
        </g>
    </g>
</svg>