<?xml version="1.0" encoding="UTF-8"?>
<svg width="91px" height="88px" viewBox="0 0 91 88" version="1.1" xmlns="http://www.w3.org/2000/svg">
    <!-- Generator: Sketch 46.2 (44496) - http://www.bohemiancoding.com/sketch -->
    <title>delivery</title>
    <desc>Created with Sketch.</desc>
    <defs></defs>
    <g id="Welcome-Page" stroke="none" stroke-width="1" fill="none" fill-rule="evenodd">
        <g id="Sell-Page" transform="translate(-147.000000, -1742.000000)" fill-rule="nonzero" fill="#CFA788">
            <g id="delivery" transform="translate(147.000000, 1742.000000)">
                <path d="M33.49,87.76 C27.5045382,87.7544784 22.6563218,82.8988027 22.660002,76.9133395 C22.6636823,70.9278762 27.5178662,66.0781663 33.5033303,66.0800051 C39.4887944,66.081844 44.3399975,70.9345356 44.34,76.92 C44.3289784,82.9060988 39.4761064,87.7544981 33.49,87.76 Z M33.49,68.07 C29.9145538,68.07 26.691169,70.2237969 25.3229049,73.5270785 C23.9546409,76.8303601 24.7109538,80.6326017 27.2391761,83.1608239 C29.7673983,85.6890462 33.5696399,86.4453591 36.8729215,85.0770951 C40.1762031,83.708831 42.33,80.4854462 42.33,76.91 C42.3244891,72.0300873 38.3699127,68.0755109 33.49,68.07 L33.49,68.07 Z" id="Shape"></path>
                <path d="M33.49,81.75 C31.5305886,81.7540442 29.7620509,80.5763009 29.0103472,78.7668118 C28.2586435,76.9573226 28.6720975,74.8731295 30.0576135,73.4876135 C31.4431295,72.1020975 33.5273226,71.6886435 35.3368118,72.4403472 C37.1463009,73.1920509 38.3240442,74.9605886 38.32,76.92 C38.3144989,79.5852534 36.1552534,81.7444989 33.49,81.75 Z M33.49,74.08 C32.3404259,74.0759522 31.3017937,74.7653236 30.8590631,75.8262321 C30.4163325,76.8871405 30.6568363,78.1103117 31.4682781,78.9246208 C32.2797199,79.7389298 33.5020351,79.9837467 34.5644986,79.544761 C35.6269621,79.1057753 36.3199929,78.0695813 36.32,76.92 C36.3200097,75.3554083 35.054582,74.0855091 33.49,74.08 Z" id="Shape"></path>
                <path d="M48.26,77.92 C47.8587198,77.919673 47.4964992,77.6795049 47.34,77.31 L15.79,2.68 L2,10.72 C1.69129393,10.9445083 1.28170665,10.9736931 0.9442868,10.7952238 C0.606866952,10.6167546 0.400478059,10.2617657 0.412318431,9.88023824 C0.424158802,9.49871076 0.652162863,9.15720287 1,9 L15.76,0.38 C16.008167,0.23309181 16.307675,0.200475014 16.5816467,0.290521652 C16.8556184,0.38056829 17.0773764,0.584510268 17.19,0.85 L48.83,75.69 L88.2,63.21 C88.7274319,63.0443146 89.2893146,63.3375681 89.455,63.865 C89.6206854,64.3924319 89.3274319,64.9543146 88.8,65.12 L48.56,77.87 C48.4631342,77.901865 48.3619644,77.9187267 48.26,77.92 L48.26,77.92 Z" id="Shape"></path>
                <path d="M41.88,44.62 C41.4909654,44.6023159 41.1475841,44.3603881 41,44 L30.8,20 C30.6913746,19.740989 30.6966811,19.4482367 30.8146219,19.1933325 C30.9325626,18.9384283 31.1522638,18.7448736 31.42,18.66 L68.89,6.79 C69.3801494,6.63542539 69.90766,6.8775614 70.11,7.35 L80.26,31.35 C80.3686254,31.609011 80.3633189,31.9017633 80.2453781,32.1566675 C80.1274374,32.4115717 79.9077362,32.6051264 79.64,32.69 L42.18,44.57 C42.0831342,44.601865 41.9819644,44.6187267 41.88,44.62 Z M33.08,20.25 L42.45,42.4 L78,31.12 L68.63,9 L33.08,20.25 Z" id="Shape"></path>
                <path d="M46.18,21.56 C45.6277153,21.6456041 45.1106042,21.2672847 45.025,20.715 C44.9393959,20.1627153 45.3177153,19.6456041 45.87,19.56 L57.92,15.64 C58.4370805,15.4924324 58.9782834,15.7801931 59.145095,16.29139 C59.3119067,16.802587 59.0445975,17.3541779 58.54,17.54 L46.49,21.51 C46.3899445,21.5428876 46.2853216,21.5597622 46.18,21.56 Z" id="Shape"></path>
                <path d="M52,68.61 C51.5987198,68.609673 51.2364992,68.3695049 51.08,68 L41,44 C40.8913746,43.740989 40.8966811,43.4482367 41.0146219,43.1933325 C41.1325626,42.9384283 41.3522638,42.7448736 41.62,42.66 L79,30.79 C79.4901494,30.6354254 80.01766,30.8775614 80.22,31.35 L90.37,55.35 C90.4786254,55.609011 90.4733189,55.9017633 90.3553781,56.1566675 C90.2374374,56.4115717 90.0177362,56.6051264 89.75,56.69 L52.33,68.56 C52.2235778,68.5950358 52.1120243,68.6119378 52,68.61 Z M43.2,44.24 L52.6,66.38 L88.15,55.11 L78.78,33 L43.2,44.24 Z" id="Shape"></path>
                <path d="M56.34,45.55 C55.7877153,45.6356041 55.2706042,45.2572847 55.185,44.705 C55.0993959,44.1527153 55.4777153,43.6356041 56.03,43.55 L68.08,39.63 C68.5970805,39.4824324 69.1382834,39.7701931 69.305095,40.28139 C69.4719067,40.792587 69.2045975,41.3441779 68.7,41.53 L56.65,45.5 C56.5499445,45.5328876 56.4453216,45.5497622 56.34,45.55 Z" id="Shape"></path>
            </g>
        </g>
    </g>
</svg>