<?xml version="1.0" encoding="UTF-8"?>
<svg width="61px" height="61px" viewBox="0 0 61 61" version="1.1" xmlns="http://www.w3.org/2000/svg">
    <!-- Generator: Sketch 46.2 (44496) - http://www.bohemiancoding.com/sketch -->
    <title>Group 16</title>
    <desc>Created with Sketch.</desc>
    <defs></defs>
    <g id="Welcome-Page" stroke="none" stroke-width="1" fill="none" fill-rule="evenodd">
        <g id="Sell-Page" transform="translate(-123.000000, -1206.000000)">
            <g id="Group-16" transform="translate(123.000000, 1206.000000)">
                <g id="noun_1158240_cc-copy" fill-rule="nonzero" fill="#CFA788">
                    <path d="M30.5,0 C13.6628423,0 0,13.662841 0,30.5 C0,47.337159 13.662841,61 30.5,61 C47.337159,61 61,47.337159 61,30.5 C61,13.662841 47.337159,-2.54166667e-07 30.5,0 Z M30.5,1.27083333 C46.6503498,1.27083308 59.7291667,14.3496502 59.7291667,30.5 C59.7291667,46.6503498 46.6503498,59.7291667 30.5,59.7291667 C14.3496514,59.7291667 1.27083333,46.6503498 1.27083333,30.5 C1.27083333,14.3496514 14.3496514,1.27083333 30.5,1.27083333 Z" id="Shape"></path>
                </g>
                <g id="Group-7" transform="translate(15.000000, 15.000000)">
                    <g id="Group-4">
                        <g id="Group-8">
                            <circle id="Oval" stroke="#CFA788" stroke-width="0.8" fill="#FAFAFA" cx="22.6538462" cy="8.34615385" r="8.34615385"></circle>
                            <circle id="Oval-Copy" stroke="#CFA788" stroke-width="0.8" fill="#FAFAFA" cx="19.0769231" cy="11.9230769" r="8.34615385"></circle>
                            <circle id="Oval-Copy-2" stroke="#CFA788" stroke-width="0.8" fill="#FAFAFA" cx="15.5" cy="15.5" r="8.34615385"></circle>
                            <circle id="Oval-Copy-4" stroke="#CFA788" stroke-width="0.8" fill="#FAFAFA" cx="11.9230769" cy="19.0769231" r="8.34615385"></circle>
                            <circle id="Oval-Copy-5" stroke="#CFA788" stroke-width="0.8" fill="#FAFAFA" cx="8.34615385" cy="22.6538462" r="8.34615385"></circle>
                            <path d="M7.79037694,26.8305 C7.38641462,26.8231552 7.02836247,26.7882681 6.71620976,26.7258376 C6.40405706,26.663407 6.15250247,26.5807796 5.96153846,26.4779528 L6.25900014,25.6737046 C6.40589553,25.7618418 6.6060375,25.8426331 6.85943205,25.9160808 C7.1128266,25.9895285 7.42313846,26.0299241 7.79037694,26.0372689 L7.79037694,23.062652 C7.57003385,22.9524805 7.35153024,22.834966 7.13485953,22.7101049 C6.91818883,22.5852438 6.72539152,22.4365144 6.55646182,22.2639123 C6.38753212,22.0913103 6.25165592,21.887496 6.14882915,21.6524633 C6.04600238,21.4174307 5.99458976,21.1383337 5.99458976,20.8151638 C5.99458976,20.2863404 6.14331911,19.8530055 6.44078228,19.5151461 C6.73824545,19.1772867 7.18810584,18.9679639 7.79037694,18.8871714 L7.79037694,17.8846154 L8.53953969,17.8846154 L8.53953969,18.8541201 C8.91412294,18.8688097 9.22076247,18.9036968 9.45946748,18.9587826 C9.69817249,19.0138683 9.91300378,19.0854788 10.1039678,19.173616 L9.83955741,19.9448129 C9.69266202,19.8713653 9.51639019,19.8070995 9.31073664,19.7520137 C9.10508309,19.6969279 8.84802002,19.6620408 8.53953969,19.6473513 L8.53953969,22.3685748 C8.76722755,22.4860911 8.99491199,22.6127865 9.22259985,22.7486647 C9.45028771,22.884543 9.654102,23.040617 9.83404886,23.2168914 C10.0139957,23.3931659 10.1590527,23.5988164 10.2692243,23.833849 C10.3793958,24.0688816 10.4344808,24.3443064 10.4344808,24.6601314 C10.4344808,25.2330235 10.2747344,25.7049178 9.95523695,26.0758287 C9.63573947,26.4467396 9.16384511,26.6836048 8.53953969,26.7864316 L8.53953969,27.8000047 L7.79037694,27.8000047 L7.79037694,26.8305 Z M9.52006153,24.7372511 C9.52006153,24.5609767 9.48884673,24.4030665 9.42641619,24.2635159 C9.36398564,24.1239652 9.28135823,23.999106 9.17853145,23.8889345 C9.07570468,23.7787629 8.9545178,23.67961 8.81496718,23.5914728 C8.67541655,23.5033356 8.52485104,23.418872 8.3632661,23.3380795 L8.3632661,26.0152347 C8.70112551,25.9638213 8.9783864,25.8334536 9.1950571,25.6241276 C9.4117278,25.4148017 9.52006153,25.1191792 9.52006153,24.7372511 Z M6.909009,20.7600783 C6.909009,21.0759034 7.00999807,21.3329665 7.21197923,21.5312752 C7.41396039,21.729584 7.66551498,21.9095282 7.96665053,22.0711131 L7.96665053,19.6583684 C7.57737774,19.702437 7.30378918,19.8309685 7.14587663,20.0439668 C6.98796409,20.2569652 6.909009,20.4956666 6.909009,20.7600783 Z" id="$" fill="#CFA788"></path>
                        </g>
                    </g>
                </g>
            </g>
        </g>
    </g>
</svg>