<?xml version="1.0" encoding="UTF-8"?>
<svg width="67px" height="87px" viewBox="0 0 67 87" version="1.1" xmlns="http://www.w3.org/2000/svg">
    <!-- Generator: Sketch 46.2 (44496) - http://www.bohemiancoding.com/sketch -->
    <title>Group 3</title>
    <desc>Created with Sketch.</desc>
    <defs></defs>
    <g id="Welcome-Page" stroke="none" stroke-width="1" fill="none" fill-rule="evenodd">
        <g id="Sell-Page" transform="translate(-799.000000, -1743.000000)" fill="#CFA788">
            <g id="Group-3" transform="translate(799.000000, 1743.000000)">
                <g id="Security">
                    <path d="M25.6659999,46.968 C25.6953334,49.5493462 26.333327,51.5219932 27.5799999,52.886 C28.8266728,54.2500068 30.608655,55.0639987 32.9259999,55.328 L32.9259999,42.304 C31.6939937,42.0399987 30.5133389,41.7246685 29.3839999,41.358 C28.2546609,40.9913315 27.2720041,40.4780033 26.4359999,39.818 C25.5999957,39.1579967 24.9326691,38.3220051 24.4339999,37.31 C23.9353307,36.2979949 23.6859999,35.029341 23.6859999,33.504 C23.6859999,32.1839934 23.9279975,30.9960053 24.4119999,29.94 C24.8960023,28.8839947 25.5559957,27.9820037 26.3919999,27.234 C27.2280041,26.4859963 28.2106609,25.914002 29.3399999,25.518 C30.4693389,25.121998 31.6646603,24.924 32.9259999,24.924 L32.9259999,21.492 L34.6419999,21.492 L34.6419999,24.924 C35.932673,24.924 37.1426609,25.1513311 38.2719999,25.606 C39.4013389,26.0606689 40.3986622,26.7059958 41.2639999,27.542 C42.1293376,28.3780042 42.8039975,29.3826608 43.2879999,30.556 C43.7720023,31.7293392 43.9993334,33.0346595 43.9699999,34.472 L41.1979999,34.472 C41.1686664,32.271989 40.5526726,30.5193399 39.3499999,29.214 C38.1473272,27.9086601 36.5780096,27.256 34.6419999,27.256 L34.6419999,39.928 C35.9033395,40.1920013 37.1426605,40.5146648 38.3599999,40.896 C39.5773393,41.2773352 40.6626618,41.80533 41.6159999,42.48 C42.569338,43.15467 43.3393303,43.9979949 43.9259999,45.01 C44.5126695,46.0220051 44.8059999,47.3053256 44.8059999,48.86 C44.8059999,50.2973405 44.5200028,51.5659945 43.9479999,52.666 C43.375997,53.7660055 42.613338,54.682663 41.6599999,55.416 C40.7066618,56.149337 39.6213393,56.6993315 38.4039999,57.066 C37.1866605,57.4326685 35.932673,57.616 34.6419999,57.616 L34.6419999,61.356 L32.9259999,61.356 L32.9259999,57.572 C29.4939827,57.2493317 26.9933411,56.2373418 25.4239999,54.536 C23.8546587,52.8346582 23.0113338,50.3120167 22.8939999,46.968 L25.6659999,46.968 Z M32.9259999,27.256 C32.0459955,27.256 31.2173371,27.3806654 30.4399999,27.63 C29.6626627,27.8793346 28.9733362,28.2679974 28.3719999,28.796 C27.7706636,29.3240026 27.3013349,30.0059958 26.9639999,30.842 C26.6266649,31.6780042 26.4579999,32.6679943 26.4579999,33.812 C26.4579999,34.8386718 26.6413314,35.6746634 27.0079999,36.32 C27.3746684,36.9653366 27.8586636,37.4933313 28.4599999,37.904 C29.0613362,38.3146687 29.7506627,38.6373322 30.5279999,38.872 C31.3053371,39.1066678 32.1046625,39.3266656 32.9259999,39.532 L32.9259999,27.256 Z M34.6419999,55.328 C35.5806713,55.328 36.4899955,55.2106678 37.3699999,54.976 C38.2500043,54.7413322 39.0346631,54.3600026 39.7239999,53.832 C40.4133367,53.3039974 40.9706644,52.6366707 41.3959999,51.83 C41.8213354,51.0233293 42.0339999,50.0480057 42.0339999,48.904 C42.0339999,47.8479947 41.8066688,46.9680035 41.3519999,46.264 C40.897331,45.5599965 40.3180034,44.9806689 39.6139999,44.526 C38.9099964,44.0713311 38.1180043,43.6973348 37.2379999,43.404 C36.3579955,43.1106652 35.4926708,42.8613344 34.6419999,42.656 L34.6419999,55.328 Z" id="$"></path>
                    <path d="M33.3209877,86.9241227 C33.0070123,86.9241227 32.693037,86.8337775 32.4203457,86.6519988 C31.3762963,85.9586271 30.3268148,85.2674324 29.2773333,84.5751492 C22.8326914,80.326751 16.169679,75.9335828 11.0015802,71.2998572 C3.68888889,64.7394943 0.282962963,58.665689 0.282962963,52.1836979 L0.282962963,13.768512 C0.282962963,13.0882023 0.704493827,12.4786448 1.34004938,12.2402642 L32.747358,0.438795221 C33.1167407,0.299467788 33.5230617,0.299467788 33.8924444,0.438795221 L65.3008395,12.2402642 C65.9374815,12.4786448 66.3590123,13.0882023 66.3590123,13.768512 L66.3590123,52.1836979 C66.3590123,58.663512 62.9530864,64.7373173 55.6403951,71.2987687 C50.4668642,75.9379368 43.7973333,80.3343704 37.3472593,84.5871227 C36.3032099,85.2750519 35.2591605,85.9629811 34.2205432,86.6519988 C33.9478519,86.8337775 33.6338765,86.9241227 33.3209877,86.9241227 Z M2.58363946,13.9780961 L2.58363946,52.462542 C2.58363946,58.1240351 5.74260185,63.5956507 12.5270259,69.6818401 C17.6753384,74.297322 24.4474271,78.7622503 30.9963587,83.081119 C31.7712408,83.5923274 32.5472444,84.1035359 33.3198837,84.6147443 C34.0880375,84.1069065 34.8573127,83.6001922 35.6265879,83.0934779 C42.1822479,78.7712386 48.9610649,74.3029397 54.113863,69.6807165 C60.898287,63.5956507 64.0572494,58.1240351 64.0572494,52.462542 L64.0572494,13.9780961 L33.3210051,2.42815584 L2.58363946,13.9780961 Z" id="Shape" fill-rule="nonzero"></path>
                </g>
            </g>
        </g>
    </g>
</svg>