<?xml version="1.0" encoding="utf-8"?>
<!-- Generator: Adobe Illustrator 21.1.0, SVG Export Plug-In . SVG Version: 6.00 Build 0)  -->
<svg version="1.1" id="Слой_1" xmlns="http://www.w3.org/2000/svg"  x="0px" y="0px"
	 viewBox="0 0 15.8 19.4" style="enable-background:new 0 0 15.8 19.4;" xml:space="preserve">
<style type="text/css">
	.st0{fill:#080909;}
</style>
<title>share</title>
<path class="st0" d="M15,14.5c-0.5-0.6-1.3-0.9-2.1-0.9c0,0,0,0,0,0c-0.8,0-1.5,0.3-2.1,0.9l-5.2-3.8c0.2-0.6,0.2-1.3,0-1.9L10.8,5
	c0.5,0.5,1.3,0.8,2,0.8c0,0,0,0,0,0c1.6,0,2.9-1.3,2.9-2.9S14.5,0,12.9,0S10,1.3,10,2.9c0,0.3,0.1,0.7,0.2,1L5,7.7
	C3.9,6.6,2.1,6.5,1,7.5C0.4,8,0.1,8.7,0,9.5c-0.1,0.8,0.2,1.5,0.7,2.1s1.2,0.9,2,1c0.8,0,1.5-0.2,2.1-0.7c0.1,0,0.1-0.1,0.2-0.2
	l5.2,3.8c-0.1,0.3-0.2,0.6-0.2,1c0,1.6,1.3,2.9,2.9,2.9c0,0,0,0,0,0c0.8,0,1.5-0.3,2-0.8c0.6-0.5,0.9-1.3,0.9-2.1S15.5,15,15,14.5z
	 M12.9,1.1c1,0,1.8,0.8,1.8,1.8c0,1-0.8,1.8-1.8,1.8c-1,0-1.8-0.8-1.8-1.8C11.1,1.9,11.9,1.1,12.9,1.1z M2.9,11.5
	c-1,0-1.8-0.8-1.8-1.8c0-1,0.8-1.8,1.8-1.8c1,0,1.8,0.8,1.8,1.8C4.7,10.7,3.9,11.5,2.9,11.5z M12.9,18.3c-1,0-1.8-0.8-1.8-1.8
	c0-1,0.8-1.8,1.8-1.8c1,0,1.8,0.8,1.8,1.8C14.7,17.5,13.9,18.3,12.9,18.3z"/>
</svg>
