<svg xmlns="http://www.w3.org/2000/svg" viewBox="0 0 14.75 19.28"><defs><style>.cls-1{fill:#cfa788;}.cls-2{fill:#bb8e71;}.cls-3{fill:#fff;}</style></defs><title>trusted</title><g id="Слой_2" data-name="Слой 2"><g id="Слой_1-2" data-name="Слой 1"><path class="cls-1" d="M0,1.31v10c0,4.41,7.34,8,7.34,8l0,0V0Z"/><path class="cls-2" d="M7.38,0V19.26c.56-.27,7.34-3.7,7.34-7.93h0v-10Z"/><path class="cls-3" d="M7.35,17A.52.52,0,0,1,7.1,17c-.21-.11-5.25-2.84-5.25-6.42v-7A.53.53,0,0,1,2.27,3l5-1a.53.53,0,0,1,.2,0l5,1a.53.53,0,0,1,.42.51v7a.53.53,0,0,1,0,.18c-.17,3.49-5.07,6.13-5.28,6.24A.53.53,0,0,1,7.35,17ZM2.9,4v6.57c0,2.56,3.48,4.79,4.45,5.36,1-.57,4.48-2.8,4.48-5.36a.54.54,0,0,1,0-.17V4L7.38,3.11Z"/><path class="cls-3" d="M6.67,10.48a.52.52,0,0,1-.37-.15L4.9,8.94a.52.52,0,0,1,.74-.74l1,1L9.14,6.77a.52.52,0,1,1,.74.75L7,10.33A.52.52,0,0,1,6.67,10.48Z"/></g></g></svg>