<svg xmlns="http://www.w3.org/2000/svg" viewBox="0 0 53.49 21.9"><defs><style>.cls-1,.cls-3{opacity:.5}.cls-1{font-size:12px;fill:#231f20;font-family:Lato-Bold,Lato;font-weight:700}.cls-2{letter-spacing:0}</style></defs><title>apps</title><g id="Слой_2" data-name="Слой 2"><g id="Layer_5" data-name="Layer 5"><text class="cls-1" transform="translate(25.9 14.94)"><tspan class="cls-2">A</tspan><tspan x="8.32" y="0">pps</tspan></text><g class="cls-3"><path d="M0 17.21v2.33a2.38 2.38 0 0 0 2.37 2.36h14a2.38 2.38 0 0 0 2.37-2.37v-2.32zm10.14 3.21H8.56a.93.93 0 0 1 0-1.86h1.58a.93.93 0 1 1 0 1.86zM16.32 0h-14A2.38 2.38 0 0 0 0 2.37v13h18.65v-13A2.31 2.31 0 0 0 16.32 0zM13 9.67l-3 2.75a.9.9 0 0 1-1.21 0L5.67 9.67a.92.92 0 0 1 1.21-1.4l1.58 1.4v-6a.93.93 0 0 1 1.86 0v6.05l1.58-1.4a1 1 0 0 1 1.3.09 1 1 0 0 1-.2 1.26z"/></g></g></g></svg>