<svg xmlns="http://www.w3.org/2000/svg" viewBox="0 0 22.33 22.32"><defs><style>.cls-1{opacity:.5}</style></defs><title>facebook</title><g id="Слой_2" data-name="Слой 2"><g id="Layer_5" data-name="Layer 5"><g class="cls-1"><path d="M22.33 11.16v4.53a6.5 6.5 0 0 1-5.08 6.46 7.24 7.24 0 0 1-1.64.17h-9a6.41 6.41 0 0 1-4.66-1.89A6.27 6.27 0 0 1 .08 16.6 9.84 9.84 0 0 1 0 15.46v-9A6.48 6.48 0 0 1 5.2.14 6.86 6.86 0 0 1 6.58 0h9.16a6.4 6.4 0 0 1 4.16 1.44 6.21 6.21 0 0 1 2.3 3.83 8.42 8.42 0 0 1 .12 1.39c.02 1.49.01 2.99.01 4.5zM11.94 18v-5.83c0-.33 0-.33.34-.33h1.76l.3-2.33H12V7.94c0-.81.34-1.15 1.15-1.18h1.28a9.92 9.92 0 0 0 0-2.12l-.75-.06a7.54 7.54 0 0 0-1.74 0 2.62 2.62 0 0 0-2.2 1.86 4.69 4.69 0 0 0-.17 1.15v1.89h-1a8.48 8.48 0 0 0-1 0v2.33h1.72c.13 0 .2.06.2.19v6z"/></g></g></g></svg>