<svg xmlns="http://www.w3.org/2000/svg" viewBox="0 0 22.33 22.34"><defs><style>.cls-1{opacity:.5}</style></defs><title>google</title><g id="Слой_2" data-name="Слой 2"><g id="Layer_5" data-name="Layer 5"><g class="cls-1"><path d="M11.17 0h4.56a6.37 6.37 0 0 1 3 .67 6.44 6.44 0 0 1 3.42 4.19 6.36 6.36 0 0 1 .21 1.69v9.22a6.34 6.34 0 0 1-3.21 5.65 6.05 6.05 0 0 1-3.19.9H6.45a6.47 6.47 0 0 1-6.24-5A7.07 7.07 0 0 1 0 15.71v-9.1a6.44 6.44 0 0 1 1-3.52A6.4 6.4 0 0 1 5.19.14 7.13 7.13 0 0 1 6.6 0h4.57zm-2 12.29c-.06 0-.07.07-.09.07h-.25a8.81 8.81 0 0 0-2.2.43 3.46 3.46 0 0 0-1.49.93 2.06 2.06 0 0 0 .34 3.17 3.82 3.82 0 0 0 1.14.53 6.15 6.15 0 0 0 3.13.05A4.42 4.42 0 0 0 12 16.32a2.55 2.55 0 0 0 0-3.71c-.24-.25-.53-.45-.79-.68s-.44-.33-.64-.52a.75.75 0 0 1-.09-1.1 6.6 6.6 0 0 1 .51-.56c.24-.26.51-.51.73-.79a2.23 2.23 0 0 0 .47-1.9 2.69 2.69 0 0 0-.83-1.53.61.61 0 0 1-.36-.43 2.14 2.14 0 0 0 1.89-.53c-.37 0-.71-.05-1 0-.84 0-1.69 0-2.53.06A7.42 7.42 0 0 0 8 4.76 3.21 3.21 0 0 0 5.56 7 2.61 2.61 0 0 0 8 10.44a1.85 1.85 0 0 1 .79.1c-.36.68.03 1.21.38 1.76zm8.54-2.07h-1.82V8.4h-.46v.89a7.1 7.1 0 0 1 0 .94H13.6v.43h1.56c.24 0 .26 0 .26.25v1.23a2.06 2.06 0 0 0 0 .23h.43v-.85a3.71 3.71 0 0 1 0-.88h1.78z"/><path d="M9.06 17A3.52 3.52 0 0 1 7 16.46a2.76 2.76 0 0 1-.66-.62 1.55 1.55 0 0 1 .13-2.06A2.89 2.89 0 0 1 8 13a9.27 9.27 0 0 1 1.19-.17 1.3 1.3 0 0 1 1 .33c.2.18.44.33.65.51a2.06 2.06 0 0 1 .8 1.36 1.52 1.52 0 0 1-.43 1.27 2.66 2.66 0 0 1-1.74.7 4 4 0 0 1-.41 0zm1.66-8.86a5.78 5.78 0 0 1-.13.79 1.55 1.55 0 0 1-2.32.9 2.09 2.09 0 0 1-.27-.2 3.46 3.46 0 0 1-1-3.38 1.55 1.55 0 0 1 2.54-.75 3.29 3.29 0 0 1 1.05 1.8c.07.26.08.54.13.84z"/></g></g></g></svg>