<svg xmlns="http://www.w3.org/2000/svg" viewBox="0 0 22.34 22.34"><defs><style>.cls-1{opacity:.5}.cls-2{fill:#fff}</style></defs><title>insta</title><g id="Слой_2" data-name="Слой 2"><g id="Layer_5" data-name="Layer 5"><g class="cls-1"><path d="M22.34 11.16v4.57a6.35 6.35 0 0 1-.6 2.82 6.43 6.43 0 0 1-4.49 3.62 6.85 6.85 0 0 1-1.6.17H6.58a6.39 6.39 0 0 1-5-2.25 6.13 6.13 0 0 1-1.52-3.58C0 16.16 0 15.8 0 15.44V6.66a6.53 6.53 0 0 1 1.08-3.72 6.42 6.42 0 0 1 4.1-2.8A6.81 6.81 0 0 1 6.6 0h9.13a6.53 6.53 0 0 1 6.41 4.87 6.86 6.86 0 0 1 .21 1.76q-.01 2.26-.01 4.53zm-3.77 0v-1.9a11.36 11.36 0 0 0-.22-2.49 3.8 3.8 0 0 0-3.19-2.91 19 19 0 0 0-2.24-.16H9.31A15.45 15.45 0 0 0 7 3.88a3.74 3.74 0 0 0-3.16 2.88A8.74 8.74 0 0 0 3.61 9v4.38a8.74 8.74 0 0 0 .22 2.23A3.74 3.74 0 0 0 7 18.48a15.44 15.44 0 0 0 2.24.17h3.61a16.89 16.89 0 0 0 2.21-.16 3.86 3.86 0 0 0 3.36-3.76c.11-1.18.11-2.36.15-3.54z"/><path class="cls-2" d="M18.57 11.19c0 1.18 0 2.37-.12 3.55a3.86 3.86 0 0 1-3.36 3.76 16.89 16.89 0 0 1-2.21.16H9.27A15.44 15.44 0 0 1 7 18.48a3.74 3.74 0 0 1-3.16-2.88 8.74 8.74 0 0 1-.22-2.23V8.99a8.74 8.74 0 0 1 .22-2.23A3.74 3.74 0 0 1 7 3.88a15.45 15.45 0 0 1 2.24-.17h3.61a19 19 0 0 1 2.24.16 3.8 3.8 0 0 1 3.22 2.93 11.36 11.36 0 0 1 .22 2.49v1.9zm-13.65 0v1.87A17.72 17.72 0 0 0 5 14.9a2.53 2.53 0 0 0 1.72 2.2 4.11 4.11 0 0 0 1.4.24h4.85a15 15 0 0 0 1.74-.08A2.55 2.55 0 0 0 17 15.38a4.91 4.91 0 0 0 .19-1.31V8.3A5.26 5.26 0 0 0 17 7.09a2.47 2.47 0 0 0-1.62-1.81A4.16 4.16 0 0 0 14 5H8.14a4.88 4.88 0 0 0-1.19.17 2.48 2.48 0 0 0-1.81 1.7 4.77 4.77 0 0 0-.22 1.5c-.01.95 0 1.87 0 2.79z"/><path d="M4.92 11.16V8.4a4.77 4.77 0 0 1 .22-1.5 2.48 2.48 0 0 1 1.81-1.7A4.88 4.88 0 0 1 8.13 5H14a4.16 4.16 0 0 1 1.43.25A2.47 2.47 0 0 1 17 7.09a5.26 5.26 0 0 1 .17 1.22v5.77a4.91 4.91 0 0 1-.17 1.3 2.55 2.55 0 0 1-2.31 1.87 15 15 0 0 1-1.74.08H8.1a4.11 4.11 0 0 1-1.4-.24A2.53 2.53 0 0 1 5 14.9a17.72 17.72 0 0 1-.1-1.9v-1.87zM11.07 15a3.81 3.81 0 1 0-3.82-3.83A3.77 3.77 0 0 0 11.07 15zm4-7a.84.84 0 0 0 .87-.84.86.86 0 0 0-.86-.88.84.84 0 0 0-.87.86.82.82 0 0 0 .85.86z"/><path d="M8.54 11.18A2.53 2.53 0 1 1 11 13.72a2.54 2.54 0 0 1-2.46-2.54z"/></g></g></g></svg>