<svg xmlns="http://www.w3.org/2000/svg" viewBox="0 0 22.35 22.34"><defs><style>.cls-1{opacity:.5}.cls-2{fill:#fff}</style></defs><title>ok</title><g id="Слой_2" data-name="Слой 2"><g id="Layer_5" data-name="Layer 5"><g class="cls-1"><path d="M11.16 22.34H6.53a6.54 6.54 0 0 1-6.36-5.06A6.28 6.28 0 0 1 0 15.93V6.39a6.47 6.47 0 0 1 4.18-6A6.6 6.6 0 0 1 6.58 0h9.16a6.41 6.41 0 0 1 4.14 1.42 6.21 6.21 0 0 1 2.33 3.87 9.3 9.3 0 0 1 .13 1.54v8.94a6.39 6.39 0 0 1-2.19 4.91 6.21 6.21 0 0 1-3.49 1.59 9.54 9.54 0 0 1-1.07.07z"/><path class="cls-2" d="M11.43 11.23a3.08 3.08 0 0 0 3.08-3.08 3.08 3.08 0 0 0-3.08-3.08 3.08 3.08 0 0 0-3.08 3.08 3.08 3.08 0 0 0 3.08 3.08zm-1.07-4.15a1.51 1.51 0 0 1 2.14 2.14 1.51 1.51 0 0 1-2.14-2.14z"/><path class="cls-2" d="M14.71 11.3a.69.69 0 0 0-.45-.09 1.07 1.07 0 0 0-.58.26l-.28.19a4.06 4.06 0 0 1-.77.3 3.91 3.91 0 0 1-1.21.19 4 4 0 0 1-1.17-.15 3.28 3.28 0 0 1-.82-.34l-.26-.17a1.07 1.07 0 0 0-.58-.26.69.69 0 0 0-.45.09.77.77 0 0 0-.27.3.68.68 0 0 0 0 .71 3.1 3.1 0 0 0 .83.7 4.87 4.87 0 0 0 2.15.64l-.48.49-1.83 1.79a.7.7 0 0 0 0 1l.09.09a.7.7 0 0 0 1 0l1.82-1.82L13.26 17a.7.7 0 0 0 1 0l.09-.09a.7.7 0 0 0 0-1l-1.82-1.81-.53-.45a4.91 4.91 0 0 0 2.17-.65 3.1 3.1 0 0 0 .83-.7.68.68 0 0 0 0-.71.77.77 0 0 0-.29-.29z"/></g></g></g></svg>