<svg width="69" height="17" viewBox="0 0 69 17" xmlns="http://www.w3.org/2000/svg" xmlns:xlink="http://www.w3.org/1999/xlink"><title>social_apps</title><defs><rect id="a" x="18" y="7" width="7" height="1" rx=".5"/><mask id="c" x="0" y="0" width="7" height="1" fill="#fff"><use xlink:href="#a"/></mask><rect id="b" x="45" y="7" width="7" height="1" rx=".5"/><mask id="d" x="0" y="0" width="7" height="1" fill="#fff"><use xlink:href="#b"/></mask></defs><g fill="none" fill-rule="evenodd"><g transform="translate(-1)"><g opacity=".4" fill-rule="nonzero"><g fill="#040706"><path d="M65.315 4.005a.338.338 0 0 0-.36-.006L56.43 8.317a.242.242 0 0 0 .055.472l2.688.65 1.46 2.283a.31.31 0 0 0 .258.152h.003a.31.31 0 0 0 .258-.146l1.05-1.558 1.897.458a.27.27 0 0 0 .332-.22l.998-6.06a.338.338 0 0 0-.115-.343zM56.85 8.508l7.256-3.676-4.868 4.253-2.388-.577zm3.896 1.05l-.001.002-.004.006-.008.014-.007.01-.002.006-.005.015-.005.014v.002l-.001.003-.002.014-.002.015v.01l.005 1.51-1.194-1.864 4.473-3.909-3.247 4.152zm.326 1.65l-.004-1.311.764.184-.76 1.127zm3.022-.949l-2.894-.7 3.811-4.871-.917 5.571z" stroke="#040706" stroke-width=".3"/><path d="M61.593 15.101a7.55 7.55 0 1 1 7.55-7.55 7.56 7.56 0 0 1-7.55 7.55zm0-14.138a6.588 6.588 0 1 0 6.588 6.588A6.595 6.595 0 0 0 61.593.963z"/></g><g fill="#000"><path d="M33.938.18h1.79c.024.014.05.024.076.03.152.009.305.01.456.02.177.012.354.03.531.044.07 0 .14.008.209.022.113.023.228.039.343.048.095.014.19.03.284.046a8.68 8.68 0 0 1 .572.116c.1.022.199.045.297.07.123.03.246.057.367.095.198.062.396.126.59.2.16.06.314.13.468.202.143.065.285.13.422.208.147.084.29.177.43.274.123.083.24.176.351.276.141.134.27.28.402.423.044.05.084.104.121.16.055.078.109.156.16.235.046.072.093.145.132.22.093.181.183.363.272.546.035.07.066.141.094.214.035.098.064.198.096.298l.084.267c.02.069.036.138.055.207.027.102.058.203.082.306.02.092.033.186.05.278.019.097.041.193.057.29.015.09.022.18.034.27.02.145.041.289.06.434.01.085.019.17.022.256.01.219.017.438.024.658.002.096-.001.193.001.29a.248.248 0 0 0 .023.068v.256a.264.264 0 0 0-.023.067c.006.252 0 .504-.02.756-.021.132-.018.268-.027.401-.006.084-.015.167-.022.25-.008.098-.02.195-.024.292a1.51 1.51 0 0 1-.041.39 1.443 1.443 0 0 0-.028.268l-.023.205c-.005.043-.008.088-.016.13-.013.069-.03.136-.045.204a11.11 11.11 0 0 1-.039.159l-.052.209c-.018.07-.032.143-.053.213-.025.08-.058.157-.087.236-.06.162-.113.327-.183.485-.063.142-.145.276-.219.414a4.212 4.212 0 0 1-.474.687c-.104.125-.23.232-.343.349a3.071 3.071 0 0 1-.526.43c-.129.084-.256.17-.391.241-.19.1-.387.187-.584.274-.086.039-.177.067-.266.098-.048.016-.099.027-.148.04a426.553 426.553 0 0 0-.516.145c-.086.026-.17.056-.258.078-.081.021-.165.033-.248.05-.04.007-.078.015-.117.024-.058.014-.116.03-.174.042-.061.013-.123.021-.184.033-.063.012-.125.029-.189.038-.066.009-.133.01-.2.017-.06.006-.12.014-.18.025-.084.014-.166.038-.25.049-.128.016-.257.025-.387.038-.085.008-.17.017-.255.023-.115.008-.228 0-.344.019-.16.018-.322.024-.483.02-.346.02-.692.016-1.036-.013-.196-.022-.395-.017-.593-.027-.064-.003-.128-.017-.192-.02a.083.083 0 0 0-.057.03c-.061.073-.117.151-.18.224a102.188 102.188 0 0 1-.754.841c-.04.046-.09.085-.13.131-.091.104-.177.211-.27.314-.071.079-.148.153-.224.227a.889.889 0 0 1-.342.235.382.382 0 0 0-.071.042h-.302a.262.262 0 0 0-.043-.023.42.42 0 0 1-.234-.154 1.088 1.088 0 0 1-.117-.226.778.778 0 0 1-.057-.251c-.006-.463-.003-.926-.003-1.39v-.424a.07.07 0 0 0-.048-.076c-.124-.04-.25-.075-.372-.12a8.21 8.21 0 0 1-.475-.19c-.106-.048-.206-.107-.31-.16a3.461 3.461 0 0 1-.614-.407 4.312 4.312 0 0 1-.493-.458 5.689 5.689 0 0 1-.414-.508 3.411 3.411 0 0 1-.248-.398c-.117-.23-.222-.467-.328-.703a2.918 2.918 0 0 1-.104-.275c-.029-.085-.05-.172-.074-.258-.038-.14-.076-.28-.112-.42-.01-.036-.016-.073-.025-.11-.013-.058-.028-.115-.04-.173-.014-.066-.025-.134-.037-.2-.013-.079-.028-.156-.037-.234-.009-.07-.008-.142-.017-.213-.012-.09-.03-.179-.042-.269a7.658 7.658 0 0 1-.046-.64c-.004-.188-.001-.377-.003-.564a.155.155 0 0 0-.022-.052v-.43a.208.208 0 0 0 .022-.06c.015-.32-.022-.643.022-.965 0-.13.008-.26.024-.39.014-.085.023-.172.024-.26.007-.077.017-.155.023-.232a1.38 1.38 0 0 1 .043-.356 1.75 1.75 0 0 0 .047-.287c.016-.1.03-.202.051-.302.024-.114.055-.226.082-.34.017-.067.03-.136.05-.202.026-.082.058-.162.087-.244.058-.16.109-.322.175-.477.068-.158.15-.309.227-.462.11-.223.244-.432.4-.625.112-.134.224-.268.34-.397a2.909 2.909 0 0 1 .451-.388 3.92 3.92 0 0 1 .246-.158c.142-.085.283-.173.43-.248.18-.09.366-.17.55-.253.08-.036.163-.067.247-.097.104-.037.21-.07.315-.105.075-.026.149-.056.225-.079.08-.024.164-.042.246-.06.114-.025.229-.046.342-.073.122-.028.242-.062.363-.09.084-.019.17-.032.255-.046.092-.017.185-.036.278-.045.115-.009.23-.024.343-.045.136-.024.273-.038.41-.042.166-.01.331-.015.497-.023a.38.38 0 0 0 .075-.007.149.149 0 0 0 .04-.025zm-2.652 14.608l.001 1.425c.002.036.01.071.026.103.022.047.107.097.141.085a.467.467 0 0 0 .217-.12c.068-.076.141-.148.21-.223.074-.081.145-.164.218-.245.032-.036.067-.07.099-.106l.34-.398c.074-.084.15-.164.223-.25.101-.12.199-.243.299-.364l.248-.295.348-.419c.072-.087.143-.175.217-.26a.064.064 0 0 1 .046-.016c.061.002.123.01.184.011.17.002.34.004.511 0 .457.015.915.003 1.37-.034.09-.012.179-.016.268-.024.074-.007.147-.014.22-.023.13-.015.26-.032.39-.046.084-.01.167-.016.25-.024l.018-.002c.109-.023.217-.047.326-.067.098-.019.197-.03.295-.049.045-.008.09-.024.135-.036l.213-.055.214-.053c.05-.013.1-.029.152-.04.069-.014.14-.02.207-.04.113-.033.227-.069.336-.112.16-.064.32-.13.475-.203.186-.082.36-.188.517-.315.106-.088.22-.166.322-.258.076-.073.148-.151.214-.234.072-.08.14-.163.202-.25.113-.168.226-.336.321-.513.08-.159.15-.321.212-.487.04-.1.074-.202.107-.304.02-.067.034-.136.05-.204.018-.075.033-.15.05-.226.021-.092.047-.184.064-.277.02-.102.033-.206.046-.309.018-.143.035-.286.047-.43.012-.139.017-.278.025-.418v-.011c.026-.149.012-.3.04-.45.021-.155.028-.311.02-.467a31.42 31.42 0 0 0-.015-.811 1.988 1.988 0 0 0-.03-.505 1.189 1.189 0 0 1-.007-.231c-.007-.099-.021-.197-.032-.295-.009-.083-.012-.168-.026-.25-.018-.112-.046-.222-.066-.332-.018-.097-.031-.194-.048-.29a1.058 1.058 0 0 0-.027-.105l-.065-.225c-.02-.076-.035-.15-.06-.223a7.692 7.692 0 0 0-.148-.425 4.302 4.302 0 0 0-.187-.423 4.376 4.376 0 0 0-.552-.805c-.065-.075-.151-.131-.22-.203a2.168 2.168 0 0 0-.499-.344 4.964 4.964 0 0 0-.51-.247c-.147-.063-.3-.114-.45-.166-.146-.05-.293-.095-.44-.141-.03-.01-.06-.012-.089-.02-.05-.014-.1-.033-.15-.045-.067-.016-.135-.025-.202-.04-.092-.021-.182-.05-.274-.068-.102-.02-.206-.032-.308-.05-.125-.02-.249-.045-.374-.064a10.201 10.201 0 0 0-.366-.047 7.666 7.666 0 0 0-.261-.024c-.097-.008-.194-.018-.29-.022-.196-.009-.392-.008-.588-.019-.344-.02-.69-.008-1.035-.004a2.391 2.391 0 0 0-.46.018 3.025 3.025 0 0 1-.395.027c-.07.005-.138.016-.208.023l-.273.024c-.078.007-.156.012-.233.025-.117.019-.233.044-.35.066a8.018 8.018 0 0 1-.138.025c-.052.009-.105.014-.157.026-.082.02-.163.046-.245.066-.086.022-.173.039-.26.06-.03.007-.06.023-.09.031-.07.02-.143.034-.213.057-.09.03-.177.064-.266.097-.13.05-.262.096-.39.152-.111.048-.22.104-.326.162a3.899 3.899 0 0 0-.757.516 2.916 2.916 0 0 0-.503.591 6.84 6.84 0 0 0-.215.345c-.12.215-.22.44-.303.67a3.43 3.43 0 0 0-.098.291c-.036.134-.064.27-.097.406l-.029.114c-.014.058-.029.117-.039.176-.01.065-.016.131-.026.196a4.018 4.018 0 0 1-.023.146c-.014.08-.035.159-.043.24-.013.123-.017.247-.025.371v.018c-.024.168-.024.338-.04.507-.028.276-.022.556-.022.834 0 .287.01.574.015.861.002.099-.004.198.002.297.005.098.024.195.032.293.008.098.009.197.013.295l.003.023c.014.085.03.17.043.255.01.066.013.133.027.197.018.092.045.182.066.273.025.108.042.217.073.322.042.147.092.291.149.433.084.2.172.399.273.59.075.134.158.262.248.385.058.092.123.179.195.26.188.214.401.405.634.57.122.078.24.165.366.235.183.107.378.194.58.26.107.033.214.066.32.103a.088.088 0 0 1 .071.093c-.002.479 0 .956 0 1.432z"/><path d="M36.697 8.907c.016.01.033.019.052.023.13.007.254.05.36.126.214.143.434.278.644.426.158.112.306.238.456.36.11.084.213.175.31.272a.705.705 0 0 1 .104.209c.013.029.02.06.021.093a.852.852 0 0 1-.154.445c-.084.14-.183.27-.296.389-.076.074-.136.164-.215.233a1.495 1.495 0 0 1-.43.272.678.678 0 0 1-.297.064.648.648 0 0 1-.246-.04 3.456 3.456 0 0 0-.327-.11c-.07-.026-.138-.06-.207-.092-.133-.062-.267-.121-.398-.187-.21-.106-.419-.213-.625-.325a9.843 9.843 0 0 1-.482-.276c-.213-.13-.423-.266-.63-.404a5.223 5.223 0 0 1-.315-.23c-.15-.115-.297-.234-.445-.352-.008-.006-.014-.014-.02-.02-.09-.08-.179-.16-.266-.241a4.243 4.243 0 0 1-.192-.19 9.598 9.598 0 0 1-.283-.311c-.088-.102-.17-.208-.254-.312-.065-.08-.132-.16-.194-.242-.065-.087-.125-.177-.186-.267a9.836 9.836 0 0 1-.215-.318 13.908 13.908 0 0 1-.471-.826c-.14-.27-.278-.54-.411-.812a6.316 6.316 0 0 1-.19-.439 1.89 1.89 0 0 1-.114-.325.746.746 0 0 1-.013-.343 1.41 1.41 0 0 1 .12-.335 2.377 2.377 0 0 1 .382-.463c.12-.106.25-.2.38-.295.07-.05.144-.094.221-.132a.784.784 0 0 1 .152-.041c.03-.013.06-.02.092-.023.182.007.35.101.452.252.038.056.083.106.124.158.14.177.288.349.419.532.122.171.227.354.338.532.039.061.07.126.107.189a.635.635 0 0 1 .065.419.57.57 0 0 1-.249.39 3.508 3.508 0 0 0-.375.325.352.352 0 0 0-.095.229.765.765 0 0 0 .079.4c.089.188.163.384.264.564.1.178.227.34.34.511.158.213.339.407.54.58.113.103.236.195.368.273.15.094.306.18.467.256.12.056.254.083.375.137a.635.635 0 0 0 .297.042.374.374 0 0 0 .255-.107c.076-.078.137-.17.21-.251a2.42 2.42 0 0 1 .263-.282.612.612 0 0 1 .215-.08c.04-.01.08-.016.12-.019l.003-.01zm1.823-1.346c0-.05.003-.1 0-.15a5.073 5.073 0 0 0-.071-.592c-.016-.085-.042-.167-.063-.252-.016-.064-.026-.13-.044-.193a2.707 2.707 0 0 0-.093-.282 4.875 4.875 0 0 0-.208-.456 3.157 3.157 0 0 0-.266-.413 3.72 3.72 0 0 0-.351-.397 3.029 3.029 0 0 0-.574-.45 6.622 6.622 0 0 0-.472-.258 2.935 2.935 0 0 0-.337-.123 5.135 5.135 0 0 0-.286-.09c-.054-.015-.112-.017-.167-.028-.068-.013-.135-.029-.203-.043l-.023-.003c-.178-.007-.356-.014-.535-.023a.21.21 0 0 1-.215-.217.204.204 0 0 1 .18-.178c.105 0 .21-.006.315.002.099.007.197.03.296.043.068.01.136.014.203.025a3 3 0 0 1 .245.05c.123.032.247.062.367.103.204.067.4.155.587.261.2.114.392.239.577.375.152.123.293.257.424.402.115.12.217.25.322.378.16.21.294.439.397.682a6.127 6.127 0 0 1 .274.849c.014.057.014.117.024.175.01.063.025.125.037.188a.56.56 0 0 1 .008.068l.025.395c.006.088.017.175.021.263a.219.219 0 0 1-.161.245.198.198 0 0 1-.188-.083.57.57 0 0 1-.043-.15.728.728 0 0 1-.002-.123z"/><path d="M37.486 7.146c-.018-.135-.031-.272-.056-.407a1.994 1.994 0 0 0-.307-.817 2.197 2.197 0 0 0-.366-.448 1.677 1.677 0 0 0-.434-.307c-.104-.045-.203-.105-.309-.144a3.612 3.612 0 0 0-.355-.1 4.962 4.962 0 0 0-.297-.066.716.716 0 0 0-.116-.002.267.267 0 0 1-.236-.088.21.21 0 0 1-.051-.142c.023-.086.07-.17.181-.167.119.005.237.012.355.026.105.011.21.031.312.06a3.701 3.701 0 0 1 .897.391c.089.06.172.127.251.2.052.036.1.077.144.123.092.105.173.22.263.326.099.124.18.261.243.407.048.104.09.21.127.32.04.141.072.286.096.431.032.185.046.373.041.56a.209.209 0 0 1-.195.203.218.218 0 0 1-.2-.194v-.163l.012-.002z"/><path d="M36.464 6.91c-.02-.087-.046-.172-.058-.26a.833.833 0 0 0-.371-.57.971.971 0 0 0-.393-.135c-.069-.005-.137-.014-.205-.022a.207.207 0 0 1-.162-.185.188.188 0 0 1 .134-.205.642.642 0 0 1 .228.008c.06.007.119.018.177.033.122.037.243.08.36.132.154.078.286.192.387.333.071.11.131.226.178.349.055.131.085.272.087.415.002.055.026.11.029.165a.21.21 0 0 1-.172.178c-.16 0-.228-.067-.219-.236z"/></g><g fill="#040706"><path d="M8.55 15.101h-.002a7.541 7.541 0 0 1-3.844-1.052l-.085-.05-3.288.862.879-3.208-.055-.088a7.55 7.55 0 1 1 6.395 3.536zm-3.786-2.136l.431.256a6.58 6.58 0 0 0 3.353.917l.002.482v-.481a6.586 6.586 0 1 0-5.58-3.087l.28.447-.55 2.007 2.064-.541z"/><path d="M12.428 9.327c-.213-.106-1.257-.62-1.452-.69-.195-.072-.337-.107-.478.106-.142.212-.55.69-.673.832-.124.142-.248.16-.46.054a5.804 5.804 0 0 1-1.71-1.055 6.403 6.403 0 0 1-1.182-1.471c-.124-.213-.013-.328.093-.434.096-.095.213-.248.32-.372.087-.107.158-.227.212-.354a.391.391 0 0 0-.018-.373c-.053-.106-.478-1.152-.655-1.577-.173-.414-.348-.358-.478-.365a8.465 8.465 0 0 0-.408-.008.78.78 0 0 0-.566.266 2.382 2.382 0 0 0-.744 1.773c.07.801.37 1.565.868 2.197a9.471 9.471 0 0 0 3.63 3.208c.395.17.8.32 1.211.448.434.131.892.16 1.339.084a2.189 2.189 0 0 0 1.434-1.01c.139-.317.182-.669.124-1.01-.053-.089-.195-.142-.407-.248"/></g></g><use stroke="#979797" mask="url(#c)" stroke-width="2" fill="#9B9C9C" xlink:href="#a"/><use stroke="#979797" mask="url(#d)" stroke-width="2" fill="#D8D8D8" xlink:href="#b"/></g></g></svg>