<svg xmlns="http://www.w3.org/2000/svg" viewBox="0 0 22.33 22.32"><defs><style>.cls-1{opacity:.5}.cls-2{fill:#fff;stroke:#fff;stroke-miterlimit:10;stroke-width:.3px}</style></defs><title>telegram</title><g id="Слой_2" data-name="Слой 2"><g id="Layer_5" data-name="Layer 5"><g class="cls-1"><path d="M22.33 11.16v4.53a6.5 6.5 0 0 1-5.08 6.46 7.24 7.24 0 0 1-1.64.17h-9a6.41 6.41 0 0 1-4.66-1.89A6.27 6.27 0 0 1 .08 16.6 9.84 9.84 0 0 1 0 15.46v-9A6.48 6.48 0 0 1 5.2.14 6.86 6.86 0 0 1 6.58 0h9.16a6.4 6.4 0 0 1 4.16 1.44 6.21 6.21 0 0 1 2.3 3.83 8.42 8.42 0 0 1 .12 1.39c.02 1.49.01 2.99.01 4.5z"/><path class="cls-2" d="M18.18 4.89a.57.57 0 0 0-.61 0L3.09 12.21a.41.41 0 0 0 .09.8l4.57 1.1L10.23 18a.53.53 0 0 0 .44.26.53.53 0 0 0 .44-.25l1.78-2.65 3.22.78h.11a.46.46 0 0 0 .45-.39l1.7-10.3a.57.57 0 0 0-.19-.56zM3.8 12.54l12.33-6.25-8.27 7.23zm6.62 1.78v2.57l-2-3.17 7.6-6.64zm.55 2.8v-2.23l1.3.31zm5.13-1.61l-4.92-1.19L17.67 6z"/></g></g></g></svg>